full.ufo
<glyph name="exclamation" format="2">
  <advance width="300.0"/>
  <unicode hex="0021"/>
  <outline>
    <contour>
      <point x="255.0" y="93.75" type="curve" smooth="yes"/>
      <point x="255.0" y="151.70108"/>
      <point x="207.95108" y="198.75"/>
      <point x="150.0" y="198.75" type="curve" smooth="yes"/>
      <point x="92.04892000000001" y="198.75"/>
      <point x="45.0" y="151.70108"/>
      <point x="45.0" y="93.75" type="curve" smooth="yes"/>
      <point x="45.0" y="35.79892"/>
      <point x="92.04892000000001" y="-11.25"/>
      <point x="150.0" y="-11.25" type="curve" smooth="yes"/>
      <point x="207.95108" y="-11.25"/>
      <point x="255.0" y="35.79892"/>
    </contour>
    <contour>
      <point x="50.0" y="212.5" type="line"/>
      <point x="250.0" y="212.5" type="line"/>
      <point x="250.0" y="400.0" type="line"/>
      <point x="50.0" y="400.0" type="line"/>
    </contour>
    <contour>
      <point x="50.0" y="400" type="line"/>
      <point x="250.0" y="400" type="line"/>
      <point x="250.0" y="600" type="line"/>
      <point x="50.0" y="600" type="line"/>
    </contour>
    <contour>
      <point x="50.0" y="600" type="line"/>
      <point x="250.0" y="600" type="line"/>
      <point x="250.0" y="800" type="line"/>
      <point x="50.0" y="800" type="line"/>
    </contour>
  </outline>
</glyph>
<glyph name="numbersign" format="2">
  <advance width="979.4095225512604"/>
  <unicode hex="0023"/>
  <outline>
    <contour>
      <point x="301.76380902050414" y="350.0" type="line"/>
      <point x="191.38080902050416" y="350.0"/>
      <point x="78.56922265555153" y="260.383"/>
      <point x="50.0" y="150.0" type="curve"/>
      <point x="250.0" y="150.0" type="line"/>
    </contour>
    <contour>
      <point x="379.40952255126035" y="650.0" type="line"/>
      <point x="269.02652255126037" y="650.0"/>
      <point x="156.2149361863078" y="560.383"/>
      <point x="127.64571353075621" y="450.0" type="curve"/>
      <point x="327.6457135307562" y="450.0" type="line"/>
    </contour>
    <contour>
      <point x="159.8830480091093" y="-5.0" type="line"/>
      <point x="270.2660480091093" y="-5.0"/>
      <point x="383.0776343740619" y="84.617"/>
      <point x="411.64685702961344" y="195.0" type="curve"/>
      <point x="211.64685702961344" y="195.0" type="line"/>
    </contour>
    <contour>
      <point x="211.64685702961344" y="195.0" type="line"/>
      <point x="411.64685702961344" y="195.0" type="line"/>
      <point x="412.94095225512604" y="200.0" type="line"/>
      <point x="212.94095225512604" y="200.0" type="line"/>
    </contour>
    <contour>
      <point x="212.94095225512604" y="200" type="line"/>
      <point x="412.94095225512604" y="200" type="line"/>
      <point x="464.7047612756302" y="400" type="line"/>
      <point x="264.7047612756302" y="400" type="line"/>
    </contour>
    <contour>
      <point x="264.7047612756302" y="400" type="line"/>
      <point x="464.7047612756302" y="400" type="line"/>
      <point x="516.4685702961343" y="600" type="line"/>
      <point x="316.4685702961343" y="600" type="line"/>
    </contour>
    <contour>
      <point x="569.526474542151" y="805.0" type="line"/>
      <point x="459.1434745421511" y="805.0"/>
      <point x="346.3318881771985" y="715.383"/>
      <point x="317.7626655216469" y="605.0" type="curve"/>
      <point x="517.7626655216469" y="605.0" type="line"/>
    </contour>
    <contour>
      <point x="316.4685702961343" y="600" type="line"/>
      <point x="516.4685702961343" y="600" type="line"/>
      <point x="517.7626655216469" y="605.0" type="line"/>
      <point x="317.7626655216469" y="605.0" type="line"/>
    </contour>
    <contour>
      <point x="300.0" y="150.0" type="line"/>
      <point x="500.0" y="150.0" type="line"/>
      <point x="551.7638090205041" y="350.0" type="line"/>
      <point x="351.76380902050414" y="350.0" type="line"/>
    </contour>
    <contour>
      <point x="409.8830480091093" y="-5.0" type="line"/>
      <point x="520.2660480091093" y="-5.0"/>
      <point x="633.0776343740619" y="84.617"/>
      <point x="661.6468570296134" y="195.0" type="curve"/>
      <point x="461.64685702961344" y="195.0" type="line"/>
    </contour>
    <contour>
      <point x="461.64685702961344" y="195.0" type="line"/>
      <point x="661.6468570296134" y="195.0" type="line"/>
      <point x="662.940952255126" y="200.0" type="line"/>
      <point x="462.94095225512604" y="200.0" type="line"/>
    </contour>
    <contour>
      <point x="462.94095225512604" y="200" type="line"/>
      <point x="662.940952255126" y="200" type="line"/>
      <point x="714.7047612756302" y="400" type="line"/>
      <point x="514.7047612756302" y="400" type="line"/>
    </contour>
    <contour>
      <point x="514.7047612756302" y="400" type="line"/>
      <point x="714.7047612756302" y="400" type="line"/>
      <point x="766.4685702961343" y="600" type="line"/>
      <point x="566.4685702961343" y="600" type="line"/>
    </contour>
    <contour>
      <point x="819.526474542151" y="805.0" type="line"/>
      <point x="709.143474542151" y="805.0"/>
      <point x="596.3318881771985" y="715.383"/>
      <point x="567.7626655216469" y="605.0" type="curve"/>
      <point x="767.7626655216469" y="605.0" type="line"/>
    </contour>
    <contour>
      <point x="566.4685702961343" y="600" type="line"/>
      <point x="766.4685702961343" y="600" type="line"/>
      <point x="767.7626655216469" y="605.0" type="line"/>
      <point x="567.7626655216469" y="605.0" type="line"/>
    </contour>
    <contour>
      <point x="427.6457135307562" y="450.0" type="line"/>
      <point x="627.6457135307562" y="450.0" type="line"/>
      <point x="679.4095225512604" y="650.0" type="line"/>
      <point x="479.40952255126035" y="650.0" type="line"/>
    </contour>
    <contour>
      <point x="600.0" y="150.0" type="line"/>
      <point x="710.383" y="150.0"/>
      <point x="823.1945863649526" y="239.617"/>
      <point x="851.7638090205041" y="350.0" type="curve"/>
      <point x="651.7638090205041" y="350.0" type="line"/>
    </contour>
    <contour>
      <point x="677.6457135307562" y="450.0" type="line"/>
      <point x="788.0287135307562" y="450.0"/>
      <point x="900.8402998957089" y="539.617"/>
      <point x="929.4095225512604" y="650.0" type="curve"/>
      <point x="729.4095225512604" y="650.0" type="line"/>
    </contour>
  </outline>
</glyph>
<glyph name="dollar" format="2">
  <advance width="550.0"/>
  <unicode hex="0024"/>
  <outline>
    <contour>
      <point x="150.0" y="0" type="line"/>
      <point x="250.0" y="0" type="line"/>
      <point x="250.0" y="100.0" type="line"/>
      <point x="150.0" y="100.0" type="line"/>
    </contour>
    <contour>
      <point x="250.0" y="100.0" type="line"/>
      <point x="250.0" y="210.383"/>
      <point x="160.38299999999998" y="300.0"/>
      <point x="50.0" y="300.0" type="curve"/>
      <point x="50.0" y="100.0" type="line"/>
    </contour>
    <contour>
      <point x="50.0" y="500.0" type="line"/>
      <point x="50.0" y="389.617"/>
      <point x="139.61700000000002" y="300.0"/>
      <point x="250.0" y="300.0" type="curve"/>
      <point x="250.0" y="500.0" type="line"/>
    </contour>
    <contour>
      <point x="250.0" y="700.0" type="line"/>
      <point x="139.61700000000002" y="700.0"/>
      <point x="50.0" y="610.383"/>
      <point x="50.0" y="500.0" type="curve"/>
      <point x="250.0" y="500.0" type="line"/>
    </contour>
    <contour>
      <point x="150.0" y="600" type="line"/>
      <point x="250.0" y="600" type="line"/>
      <point x="250.0" y="700.0" type="line"/>
      <point x="150.0" y="700.0" type="line"/>
    </contour>
    <contour>
      <point x="150.0" y="700.0" type="line"/>
      <point x="250.0" y="700.0" type="line"/>
      <point x="250.0" y="800.0" type="line"/>
      <point x="150.0" y="800.0" type="line"/>
    </contour>
    <contour>
      <point x="300.0" y="0" type="line"/>
      <point x="400.0" y="0" type="line"/>
      <point x="400.0" y="100.0" type="line"/>
      <point x="300.0" y="100.0" type="line"/>
    </contour>
    <contour>
      <point x="300.0" y="100.0" type="line"/>
      <point x="400.0" y="100.0" type="line"/>
      <point x="400.0" y="200.0" type="line"/>
      <point x="300.0" y="200.0" type="line"/>
    </contour>
    <contour>
      <point x="300.0" y="100.0" type="line"/>
      <point x="410.383" y="100.0"/>
      <point x="500.0" y="189.617"/>
      <point x="500.0" y="300.0" type="curve"/>
      <point x="300.0" y="300.0" type="line"/>
    </contour>
    <contour>
      <point x="500.0" y="300.0" type="line"/>
      <point x="500.0" y="410.383"/>
      <point x="410.383" y="500.0"/>
      <point x="300.0" y="500.0" type="curve"/>
      <point x="300.0" y="300.0" type="line"/>
    </contour>
    <contour>
      <point x="293.75" y="700.0" type="line"/>
      <point x="293.75" y="589.617"/>
      <point x="383.367" y="500.0"/>
      <point x="493.75" y="500.0" type="curve"/>
      <point x="493.75" y="700.0" type="line"/>
    </contour>
    <contour>
      <point x="293.75" y="700.0" type="line"/>
      <point x="393.75" y="700.0" type="line"/>
      <point x="393.75" y="800.0" type="line"/>
      <point x="293.75" y="800.0" type="line"/>
    </contour>
  </outline>
</glyph>
<glyph name="percent" format="2">
  <advance width="910.0"/>
  <unicode hex="0025"/>
  <outline>
    <contour>
      <point x="155.0" y="805.0" type="line"/>
      <point x="97.04892000000001" y="805.0"/>
      <point x="50.0" y="757.95108"/>
      <point x="50.0" y="700.0" type="curve" smooth="yes"/>
      <point x="50.0" y="642.04892"/>
      <point x="97.04892000000001" y="595.0"/>
      <point x="155.0" y="595.0" type="curve"/>
    </contour>
    <contour>
      <point x="205.0" y="595.0" type="line"/>
      <point x="262.95108" y="595.0"/>
      <point x="310.0" y="642.04892"/>
      <point x="310.0" y="700.0" type="curve" smooth="yes"/>
      <point x="310.0" y="757.95108"/>
      <point x="262.95108" y="805.0"/>
      <point x="205.0" y="805.0" type="curve"/>
    </contour>
    <contour>
      <point x="355.0" y="0.0" type="line"/>
      <point x="465.38300000000004" y="0.0"/>
      <point x="555.0" y="89.617"/>
      <point x="555.0" y="200.0" type="curve"/>
      <point x="355.0" y="200.0" type="line"/>
    </contour>
    <contour>
      <point x="355.0" y="200" type="line"/>
      <point x="555.0" y="200" type="line"/>
      <point x="555.0" y="400" type="line"/>
      <point x="355.0" y="400" type="line"/>
    </contour>
    <contour>
      <point x="355.0" y="400" type="line"/>
      <point x="555.0" y="400" type="line"/>
      <point x="555.0" y="600" type="line"/>
      <point x="355.0" y="600" type="line"/>
    </contour>
    <contour>
      <point x="555.0" y="800.0" type="line"/>
      <point x="444.61699999999996" y="800.0"/>
      <point x="355.0" y="710.383"/>
      <point x="355.0" y="600.0" type="curve"/>
      <point x="555.0" y="600.0" type="line"/>
    </contour>
    <contour>
      <point x="705.0" y="205.0" type="line"/>
      <point x="647.04892" y="205.0"/>
      <point x="600.0" y="157.95108"/>
      <point x="600.0" y="100.0" type="curve" smooth="yes"/>
      <point x="600.0" y="42.04892"/>
      <point x="647.04892" y="-5.0"/>
      <point x="705.0" y="-5.0" type="curve"/>
    </contour>
    <contour>
      <point x="755.0" y="-5.0" type="line"/>
      <point x="812.95108" y="-5.0"/>
      <point x="860.0" y="42.04892"/>
      <point x="860.0" y="100.0" type="curve" smooth="yes"/>
      <point x="860.0" y="157.95108"/>
      <point x="812.95108" y="205.0"/>
      <point x="755.0" y="205.0" type="curve"/>
    </contour>
  </outline>
</glyph>
<glyph name="ampersand" format="2">
  <advance width="750.0"/>
  <unicode hex="0026"/>
  <outline>
    <contour>
      <point x="50.0" y="195.0" type="line"/>
      <point x="50.0" y="84.617"/>
      <point x="139.61700000000002" y="-5.0"/>
      <point x="250.0" y="-5.0" type="curve"/>
      <point x="250.0" y="195.0" type="line"/>
    </contour>
    <contour>
      <point x="50.0" y="195.0" type="line"/>
      <point x="250.0" y="195.0" type="line"/>
      <point x="250.0" y="200.0" type="line"/>
      <point x="50.0" y="200.0" type="line"/>
    </contour>
    <contour>
      <point x="250.0" y="400.0" type="line"/>
      <point x="139.61700000000002" y="400.0"/>
      <point x="50.0" y="310.383"/>
      <point x="50.0" y="200.0" type="curve"/>
      <point x="250.0" y="200.0" type="line"/>
    </contour>
    <contour>
      <point x="50.0" y="600.0" type="line"/>
      <point x="50.0" y="489.617"/>
      <point x="139.61700000000002" y="400.0"/>
      <point x="250.0" y="400.0" type="curve"/>
      <point x="250.0" y="600.0" type="line"/>
    </contour>
    <contour>
      <point x="250.0" y="800.0" type="line"/>
      <point x="139.61700000000002" y="800.0"/>
      <point x="50.0" y="710.383"/>
      <point x="50.0" y="600.0" type="curve"/>
      <point x="250.0" y="600.0" type="line"/>
    </contour>
    <contour>
      <point x="300.0" y="-5.0" type="line"/>
      <point x="410.383" y="-5.0"/>
      <point x="500.0" y="84.617"/>
      <point x="500.0" y="195.0" type="curve"/>
      <point x="300.0" y="195.0" type="line"/>
    </contour>
    <contour>
      <point x="300.0" y="195.0" type="line"/>
      <point x="500.0" y="195.0" type="line"/>
      <point x="500.0" y="200.0" type="line"/>
      <point x="300.0" y="200.0" type="line"/>
    </contour>
    <contour>
      <point x="300.0" y="200" type="line"/>
      <point x="500.0" y="200" type="line"/>
      <point x="500.0" y="300.0" type="line"/>
      <point x="300.0" y="300.0" type="line"/>
    </contour>
    <contour>
      <point x="500.0" y="500.0" type="line"/>
      <point x="389.617" y="500.0"/>
      <point x="300.0" y="410.383"/>
      <point x="300.0" y="300.0" type="curve"/>
      <point x="500.0" y="300.0" type="line"/>
    </contour>
    <contour>
      <point x="287.5" y="800.0" type="line"/>
      <point x="287.5" y="689.617"/>
      <point x="377.117" y="600.0"/>
      <point x="487.5" y="600.0" type="curve"/>
      <point x="487.5" y="800.0" type="line"/>
    </contour>
    <contour>
      <point x="500.0" y="300.0" type="line"/>
      <point x="610.383" y="300.0"/>
      <point x="700.0" y="389.617"/>
      <point x="700.0" y="500.0" type="curve"/>
      <point x="500.0" y="500.0" type="line"/>
    </contour>
  </outline>
</glyph>
<glyph name="parenright" format="2">
  <advance width="300.0"/>
  <unicode hex="0029"/>
  <outline>
    <contour>
      <point x="50.0" y="-100.0" type="line"/>
      <point x="160.38299999999998" y="-100.0"/>
      <point x="250.0" y="-10.383"/>
      <point x="250.0" y="100.0" type="curve"/>
      <point x="50.0" y="100.0" type="line"/>
    </contour>
    <contour>
      <point x="50.0" y="100.0" type="line"/>
      <point x="250.0" y="100.0" type="line"/>
      <point x="250.0" y="300.0" type="line"/>
      <point x="50.0" y="300.0" type="line"/>
    </contour>
    <contour>
      <point x="50.0" y="300.0" type="line"/>
      <point x="250.0" y="300.0" type="line"/>
      <point x="250.0" y="500.0" type="line"/>
      <point x="50.0" y="500.0" type="line"/>
    </contour>
    <contour>
      <point x="50.0" y="500.0" type="line"/>
      <point x="250.0" y="500.0" type="line"/>
      <point x="250.0" y="700.0" type="line"/>
      <point x="50.0" y="700.0" type="line"/>
    </contour>
    <contour>
      <point x="250.0" y="700.0" type="line"/>
      <point x="250.0" y="810.383"/>
      <point x="160.38299999999998" y="900.0"/>
      <point x="50.0" y="900.0" type="curve"/>
      <point x="50.0" y="700.0" type="line"/>
    </contour>
  </outline>
</glyph>
<glyph name="asterisk" format="2">
  <advance width="628.5468820183673"/>
  <unicode hex="002A"/>
  <outline>
    <contour>
      <point x="578.5468820183673" y="608.9316397477041" type="line"/>
      <point x="511.8802153517007" y="724.4016935856292" type="line"/>
      <point x="50.0" y="457.73502691896266" type="line"/>
      <point x="116.66666666666663" y="342.2649730810375" type="line"/>
    </contour>
    <contour>
      <point x="511.8802153517006" y="342.26497308103745" type="line"/>
      <point x="578.5468820183673" y="457.7350269189626" type="line"/>
      <point x="116.66666666666671" y="724.4016935856292" type="line"/>
      <point x="50.00000000000006" y="608.9316397477041" type="line"/>
    </contour>
    <contour>
      <point x="247.606774342517" y="266.66666666666674" type="line"/>
      <point x="380.9401076758503" y="266.66666666666674" type="line"/>
      <point x="380.9401076758503" y="800.0" type="line"/>
      <point x="247.606774342517" y="800.0" type="line"/>
    </contour>
  </outline>
</glyph>
<glyph name="plus" format="2">
  <advance width="800.0"/>
  <unicode hex="002B"/>
  <outline>
    <contour>
      <point x="100.0" y="300.0" type="line"/>
      <point x="300.0" y="300.0" type="line"/>
      <point x="300.0" y="500.0" type="line"/>
      <point x="100.0" y="500.0" type="line"/>
    </contour>
    <contour>
      <point x="300.0" y="100.0" type="line"/>
      <point x="500.0" y="100.0" type="line"/>
      <point x="500.0" y="300.0" type="line"/>
      <point x="300.0" y="300.0" type="line"/>
    </contour>
    <contour>
      <point x="300.0" y="300.0" type="line"/>
      <point x="500.0" y="300.0" type="line"/>
      <point x="500.0" y="500.0" type="line"/>
      <point x="300.0" y="500.0" type="line"/>
    </contour>
    <contour>
      <point x="300.0" y="500.0" type="line"/>
      <point x="500.0" y="500.0" type="line"/>
      <point x="500.0" y="700.0" type="line"/>
      <point x="300.0" y="700.0" type="line"/>
    </contour>
    <contour>
      <point x="500.0" y="300.0" type="line"/>
      <point x="700.0" y="300.0" type="line"/>
      <point x="700.0" y="500.0" type="line"/>
      <point x="500.0" y="500.0" type="line"/>
    </contour>
  </outline>
</glyph>
<glyph name="comma" format="2">
  <advance width="300.0"/>
  <unicode hex="002C"/>
  <outline>
    <contour>
      <point x="50.0" y="-100.0" type="line"/>
      <point x="160.38299999999998" y="-100.0"/>
      <point x="250.0" y="-10.383"/>
      <point x="250.0" y="100.0" type="curve"/>
      <point x="50.0" y="100.0" type="line"/>
    </contour>
  </outline>
</glyph>
<glyph name="hyphen" format="2">
  <advance width="550.0"/>
  <unicode hex="002D"/>
  <outline>
    <contour>
      <point x="50.0" y="300.0" type="line"/>
      <point x="250.0" y="300.0" type="line"/>
      <point x="250.0" y="500.0" type="line"/>
      <point x="50.0" y="500.0" type="line"/>
    </contour>
    <contour>
      <point x="250.0" y="300.0" type="line"/>
      <point x="300.0" y="300.0" type="line"/>
      <point x="300.0" y="500.0" type="line"/>
      <point x="250.0" y="500.0" type="line"/>
    </contour>
    <contour>
      <point x="300.0" y="300.0" type="line"/>
      <point x="500.0" y="300.0" type="line"/>
      <point x="500.0" y="500.0" type="line"/>
      <point x="300.0" y="500.0" type="line"/>
    </contour>
  </outline>
</glyph>
<glyph name="slash" format="2">
  <advance width="552.0042103603344"/>
  <unicode hex="002F"/>
  <outline>
    <contour>
      <point x="50.0" y="-57.081008634282114" type="line"/>
      <point x="156.6217904832662" y="-85.65023128983364"/>
      <point x="266.37975162276626" y="-22.281442880238785"/>
      <point x="294.9489742783178" y="84.34034760302745" type="curve"/>
      <point x="101.76380902050417" y="136.1041566235316" type="line"/>
    </contour>
    <contour>
      <point x="101.76380902050417" y="136.1041566235316" type="line"/>
      <point x="294.9489742783178" y="84.34034760302745" type="line"/>
      <point x="346.71278329882193" y="277.5255128608411" type="line"/>
      <point x="153.5276180410083" y="329.28932188134524" type="line"/>
    </contour>
    <contour>
      <point x="153.5276180410083" y="329.28932188134524" type="line"/>
      <point x="346.71278329882193" y="277.5255128608411" type="line"/>
      <point x="398.4765923193261" y="470.71067811865476" type="line"/>
      <point x="205.29142706151245" y="522.4744871391589" type="line"/>
    </contour>
    <contour>
      <point x="205.29142706151245" y="522.4744871391589" type="line"/>
      <point x="398.4765923193261" y="470.71067811865476" type="line"/>
      <point x="450.2404013398302" y="663.8958433764684" type="line"/>
      <point x="257.0552360820166" y="715.6596523969725" type="line"/>
    </contour>
    <contour>
      <point x="502.00421036033435" y="857.0810086342822" type="line"/>
      <point x="395.3824198770682" y="885.6502312898336"/>
      <point x="285.62445873756815" y="822.2814428802388"/>
      <point x="257.0552360820166" y="715.6596523969725" type="curve"/>
      <point x="450.2404013398302" y="663.8958433764684" type="line"/>
    </contour>
  </outline>
</glyph>
<glyph name="two" format="2">
  <advance width="550.0"/>
  <unicode hex="0032"/>
  <outline>
    <contour>
      <point x="250.0" y="200.0" type="line"/>
      <point x="139.61700000000002" y="200.0"/>
      <point x="50.0" y="110.383"/>
      <point x="50.0" y="0.0" type="curve"/>
      <point x="250.0" y="0.0" type="line"/>
    </contour>
    <contour>
      <point x="250.0" y="0" type="line"/>
      <point x="300.0" y="0" type="line"/>
      <point x="300.0" y="200.0" type="line"/>
      <point x="250.0" y="200.0" type="line"/>
    </contour>
    <contour>
      <point x="261.25" y="700.0" type="curve" smooth="yes"/>
      <point x="261.25" y="757.95108"/>
      <point x="214.20108" y="805.0"/>
      <point x="156.25" y="805.0" type="curve" smooth="yes"/>
      <point x="98.29892000000001" y="805.0"/>
      <point x="51.25" y="757.95108"/>
      <point x="51.25" y="700.0" type="curve" smooth="yes"/>
      <point x="51.25" y="642.04892"/>
      <point x="98.29892000000001" y="595.0"/>
      <point x="156.25" y="595.0" type="curve" smooth="yes"/>
      <point x="214.20108" y="595.0"/>
      <point x="261.25" y="642.04892"/>
    </contour>
    <contour>
      <point x="300.0" y="0" type="line"/>
      <point x="500.0" y="0" type="line"/>
      <point x="500.0" y="200" type="line"/>
      <point x="300.0" y="200" type="line"/>
    </contour>
    <contour>
      <point x="300.0" y="245.0" type="line"/>
      <point x="410.383" y="245.0"/>
      <point x="500.0" y="334.617"/>
      <point x="500.0" y="445.0" type="curve"/>
      <point x="300.0" y="445.0" type="line"/>
    </contour>
    <contour>
      <point x="300.0" y="445.0" type="line"/>
      <point x="500.0" y="445.0" type="line"/>
      <point x="500.0" y="500.0" type="line"/>
      <point x="300.0" y="500.0" type="line"/>
    </contour>
    <contour>
      <point x="300.0" y="500.0" type="line"/>
      <point x="500.0" y="500.0" type="line"/>
      <point x="500.0" y="600.0" type="line"/>
      <point x="300.0" y="600.0" type="line"/>
    </contour>
    <contour>
      <point x="500.0" y="605.0" type="line"/>
      <point x="500.0" y="715.383"/>
      <point x="410.383" y="805.0"/>
      <point x="300.0" y="805.0" type="curve"/>
      <point x="300.0" y="605.0" type="line"/>
    </contour>
    <contour>
      <point x="300.0" y="600" type="line"/>
      <point x="500.0" y="600" type="line"/>
      <point x="500.0" y="605.0" type="line"/>
      <point x="300.0" y="605.0" type="line"/>
    </contour>
  </outline>
</glyph>
<glyph name="three" format="2">
  <advance width="550.0"/>
  <unicode hex="0033"/>
  <outline>
    <contour>
      <point x="255.0" y="100.0" type="curve" smooth="yes"/>
      <point x="255.0" y="157.95108"/>
      <point x="207.95108" y="205.0"/>
      <point x="150.0" y="205.0" type="curve" smooth="yes"/>
      <point x="92.04892000000001" y="205.0"/>
      <point x="45.0" y="157.95108"/>
      <point x="45.0" y="100.0" type="curve" smooth="yes"/>
      <point x="45.0" y="42.04892"/>
      <point x="92.04892000000001" y="-5.0"/>
      <point x="150.0" y="-5.0" type="curve" smooth="yes"/>
      <point x="207.95108" y="-5.0"/>
      <point x="255.0" y="42.04892"/>
    </contour>
    <contour>
      <point x="255.0" y="700.0" type="curve" smooth="yes"/>
      <point x="255.0" y="757.95108"/>
      <point x="207.95108" y="805.0"/>
      <point x="150.0" y="805.0" type="curve" smooth="yes"/>
      <point x="92.04892000000001" y="805.0"/>
      <point x="45.0" y="757.95108"/>
      <point x="45.0" y="700.0" type="curve" smooth="yes"/>
      <point x="45.0" y="642.04892"/>
      <point x="92.04892000000001" y="595.0"/>
      <point x="150.0" y="595.0" type="curve" smooth="yes"/>
      <point x="207.95108" y="595.0"/>
      <point x="255.0" y="642.04892"/>
    </contour>
    <contour>
      <point x="300.0" y="-5.0" type="line"/>
      <point x="410.383" y="-5.0"/>
      <point x="500.0" y="84.617"/>
      <point x="500.0" y="195.0" type="curve"/>
      <point x="300.0" y="195.0" type="line"/>
    </contour>
    <contour>
      <point x="300.0" y="195.0" type="line"/>
      <point x="500.0" y="195.0" type="line"/>
      <point x="500.0" y="200.0" type="line"/>
      <point x="300.0" y="200.0" type="line"/>
    </contour>
    <contour>
      <point x="500.0" y="200" type="line"/>
      <point x="500.0" y="310.383"/>
      <point x="410.383" y="400.0"/>
      <point x="300.0" y="400.0" type="curve"/>
      <point x="300.0" y="200" type="line"/>
    </contour>
    <contour>
      <point x="300.0" y="400.0" type="line"/>
      <point x="410.383" y="400.0"/>
      <point x="500.0" y="489.617"/>
      <point x="500.0" y="600.0" type="curve"/>
      <point x="300.0" y="600.0" type="line"/>
    </contour>
    <contour>
      <point x="500.0" y="605.0" type="line"/>
      <point x="500.0" y="715.383"/>
      <point x="410.383" y="805.0"/>
      <point x="300.0" y="805.0" type="curve"/>
      <point x="300.0" y="605.0" type="line"/>
    </contour>
    <contour>
      <point x="300.0" y="600" type="line"/>
      <point x="500.0" y="600" type="line"/>
      <point x="500.0" y="605.0" type="line"/>
      <point x="300.0" y="605.0" type="line"/>
    </contour>
  </outline>
</glyph>
<glyph name="five" format="2">
  <advance width="550.0"/>
  <unicode hex="0035"/>
  <outline>
    <contour>
      <point x="255.0" y="95.0" type="curve" smooth="yes"/>
      <point x="255.0" y="152.95108"/>
      <point x="207.95108" y="200.0"/>
      <point x="150.0" y="200.0" type="curve" smooth="yes"/>
      <point x="92.04892000000001" y="200.0"/>
      <point x="45.0" y="152.95108"/>
      <point x="45.0" y="95.0" type="curve" smooth="yes"/>
      <point x="45.0" y="37.04892"/>
      <point x="92.04892000000001" y="-10.0"/>
      <point x="150.0" y="-10.0" type="curve" smooth="yes"/>
      <point x="207.95108" y="-10.0"/>
      <point x="255.0" y="37.04892"/>
    </contour>
    <contour>
      <point x="56.25" y="500.0" type="line"/>
      <point x="56.25" y="389.617"/>
      <point x="145.86700000000002" y="300.0"/>
      <point x="256.25" y="300.0" type="curve"/>
      <point x="256.25" y="500.0" type="line"/>
    </contour>
    <contour>
      <point x="56.25" y="500.0" type="line"/>
      <point x="256.25" y="500.0" type="line"/>
      <point x="256.25" y="600.0" type="line"/>
      <point x="56.25" y="600.0" type="line"/>
    </contour>
    <contour>
      <point x="56.25" y="600" type="line"/>
      <point x="256.25" y="600" type="line"/>
      <point x="256.25" y="800" type="line"/>
      <point x="56.25" y="800" type="line"/>
    </contour>
    <contour>
      <point x="300.0" y="-5.0" type="line"/>
      <point x="410.383" y="-5.0"/>
      <point x="500.0" y="84.617"/>
      <point x="500.0" y="195.0" type="curve"/>
      <point x="300.0" y="195.0" type="line"/>
    </contour>
    <contour>
      <point x="300.0" y="195.0" type="line"/>
      <point x="500.0" y="195.0" type="line"/>
      <point x="500.0" y="200.0" type="line"/>
      <point x="300.0" y="200.0" type="line"/>
    </contour>
    <contour>
      <point x="300.0" y="200" type="line"/>
      <point x="500.0" y="200" type="line"/>
      <point x="500.0" y="300.0" type="line"/>
      <point x="300.0" y="300.0" type="line"/>
    </contour>
    <contour>
      <point x="500.0" y="300.0" type="line"/>
      <point x="500.0" y="410.383"/>
      <point x="410.383" y="500.0"/>
      <point x="300.0" y="500.0" type="curve"/>
      <point x="300.0" y="300.0" type="line"/>
    </contour>
    <contour>
      <point x="293.75" y="800.0" type="line"/>
      <point x="293.75" y="689.617"/>
      <point x="383.367" y="600.0"/>
      <point x="493.75" y="600.0" type="curve"/>
      <point x="493.75" y="800.0" type="line"/>
    </contour>
  </outline>
</glyph>
<glyph name="six" format="2">
  <advance width="550.0"/>
  <unicode hex="0036"/>
  <outline>
    <contour>
      <point x="50.0" y="195.0" type="line"/>
      <point x="50.0" y="84.617"/>
      <point x="139.61700000000002" y="-5.0"/>
      <point x="250.0" y="-5.0" type="curve"/>
      <point x="250.0" y="195.0" type="line"/>
    </contour>
    <contour>
      <point x="50.0" y="195.0" type="line"/>
      <point x="250.0" y="195.0" type="line"/>
      <point x="250.0" y="200.0" type="line"/>
      <point x="50.0" y="200.0" type="line"/>
    </contour>
    <contour>
      <point x="50.0" y="200" type="line"/>
      <point x="250.0" y="200" type="line"/>
      <point x="250.0" y="400" type="line"/>
      <point x="50.0" y="400" type="line"/>
    </contour>
    <contour>
      <point x="50.0" y="400" type="line"/>
      <point x="250.0" y="400" type="line"/>
      <point x="250.0" y="600" type="line"/>
      <point x="50.0" y="600" type="line"/>
    </contour>
    <contour>
      <point x="250.0" y="805.0" type="line"/>
      <point x="139.61700000000002" y="805.0"/>
      <point x="50.0" y="715.383"/>
      <point x="50.0" y="605.0" type="curve"/>
      <point x="250.0" y="605.0" type="line"/>
    </contour>
    <contour>
      <point x="50.0" y="600" type="line"/>
      <point x="250.0" y="600" type="line"/>
      <point x="250.0" y="605.0" type="line"/>
      <point x="50.0" y="605.0" type="line"/>
    </contour>
    <contour>
      <point x="300.0" y="-5.0" type="line"/>
      <point x="410.383" y="-5.0"/>
      <point x="500.0" y="84.617"/>
      <point x="500.0" y="195.0" type="curve"/>
      <point x="300.0" y="195.0" type="line"/>
    </contour>
    <contour>
      <point x="300.0" y="195.0" type="line"/>
      <point x="500.0" y="195.0" type="line"/>
      <point x="500.0" y="200.0" type="line"/>
      <point x="300.0" y="200.0" type="line"/>
    </contour>
    <contour>
      <point x="300.0" y="200" type="line"/>
      <point x="500.0" y="200" type="line"/>
      <point x="500.0" y="300.0" type="line"/>
      <point x="300.0" y="300.0" type="line"/>
    </contour>
    <contour>
      <point x="500.0" y="300.0" type="line"/>
      <point x="500.0" y="410.383"/>
      <point x="410.383" y="500.0"/>
      <point x="300.0" y="500.0" type="curve"/>
      <point x="300.0" y="300.0" type="line"/>
    </contour>
    <contour>
      <point x="493.75" y="705.0" type="curve" smooth="yes"/>
      <point x="493.75" y="760.1915"/>
      <point x="448.9415" y="805.0"/>
      <point x="393.75" y="805.0" type="curve" smooth="yes"/>
      <point x="338.5585" y="805.0"/>
      <point x="293.75" y="760.1915"/>
      <point x="293.75" y="705.0" type="curve" smooth="yes"/>
      <point x="293.75" y="649.8085"/>
      <point x="338.5585" y="605.0"/>
      <point x="393.75" y="605.0" type="curve" smooth="yes"/>
      <point x="448.9415" y="605.0"/>
      <point x="493.75" y="649.8085"/>
    </contour>
  </outline>
</glyph>
<glyph name="nine" format="2">
  <advance width="550.0"/>
  <unicode hex="0039"/>
  <outline>
    <contour>
      <point x="261.25" y="95.0" type="curve" smooth="yes"/>
      <point x="261.25" y="152.95108"/>
      <point x="214.20108" y="200.0"/>
      <point x="156.25" y="200.0" type="curve" smooth="yes"/>
      <point x="98.29892000000001" y="200.0"/>
      <point x="51.25" y="152.95108"/>
      <point x="51.25" y="95.0" type="curve" smooth="yes"/>
      <point x="51.25" y="37.04892"/>
      <point x="98.29892000000001" y="-10.0"/>
      <point x="156.25" y="-10.0" type="curve" smooth="yes"/>
      <point x="214.20108" y="-10.0"/>
      <point x="261.25" y="37.04892"/>
    </contour>
    <contour>
      <point x="50.0" y="500.0" type="line"/>
      <point x="50.0" y="389.617"/>
      <point x="139.61700000000002" y="300.0"/>
      <point x="250.0" y="300.0" type="curve"/>
      <point x="250.0" y="500.0" type="line"/>
    </contour>
    <contour>
      <point x="50.0" y="500.0" type="line"/>
      <point x="250.0" y="500.0" type="line"/>
      <point x="250.0" y="600.0" type="line"/>
      <point x="50.0" y="600.0" type="line"/>
    </contour>
    <contour>
      <point x="250.0" y="805.0" type="line"/>
      <point x="139.61700000000002" y="805.0"/>
      <point x="50.0" y="715.383"/>
      <point x="50.0" y="605.0" type="curve"/>
      <point x="250.0" y="605.0" type="line"/>
    </contour>
    <contour>
      <point x="50.0" y="600" type="line"/>
      <point x="250.0" y="600" type="line"/>
      <point x="250.0" y="605.0" type="line"/>
      <point x="50.0" y="605.0" type="line"/>
    </contour>
    <contour>
      <point x="300.0" y="-5.0" type="line"/>
      <point x="410.383" y="-5.0"/>
      <point x="500.0" y="84.617"/>
      <point x="500.0" y="195.0" type="curve"/>
      <point x="300.0" y="195.0" type="line"/>
    </contour>
    <contour>
      <point x="300.0" y="195.0" type="line"/>
      <point x="500.0" y="195.0" type="line"/>
      <point x="500.0" y="200.0" type="line"/>
      <point x="300.0" y="200.0" type="line"/>
    </contour>
    <contour>
      <point x="300.0" y="200" type="line"/>
      <point x="500.0" y="200" type="line"/>
      <point x="500.0" y="400" type="line"/>
      <point x="300.0" y="400" type="line"/>
    </contour>
    <contour>
      <point x="300.0" y="400" type="line"/>
      <point x="500.0" y="400" type="line"/>
      <point x="500.0" y="600" type="line"/>
      <point x="300.0" y="600" type="line"/>
    </contour>
    <contour>
      <point x="500.0" y="605.0" type="line"/>
      <point x="500.0" y="715.383"/>
      <point x="410.383" y="805.0"/>
      <point x="300.0" y="805.0" type="curve"/>
      <point x="300.0" y="605.0" type="line"/>
    </contour>
    <contour>
      <point x="300.0" y="600" type="line"/>
      <point x="500.0" y="600" type="line"/>
      <point x="500.0" y="605.0" type="line"/>
      <point x="300.0" y="605.0" type="line"/>
    </contour>
  </outline>
</glyph>
<glyph name="colon" format="2">
  <advance width="300.0"/>
  <unicode hex="003A"/>
  <outline>
    <contour>
      <point x="255.0" y="95.0" type="curve" smooth="yes"/>
      <point x="255.0" y="152.95108"/>
      <point x="207.95108" y="200.0"/>
      <point x="150.0" y="200.0" type="curve" smooth="yes"/>
      <point x="92.04892000000001" y="200.0"/>
      <point x="45.0" y="152.95108"/>
      <point x="45.0" y="95.0" type="curve" smooth="yes"/>
      <point x="45.0" y="37.04892"/>
      <point x="92.04892000000001" y="-10.0"/>
      <point x="150.0" y="-10.0" type="curve" smooth="yes"/>
      <point x="207.95108" y="-10.0"/>
      <point x="255.0" y="37.04892"/>
    </contour>
    <contour>
      <point x="255.0" y="500.0" type="curve" smooth="yes"/>
      <point x="255.0" y="557.95108"/>
      <point x="207.95108" y="605.0"/>
      <point x="150.0" y="605.0" type="curve" smooth="yes"/>
      <point x="92.04892000000001" y="605.0"/>
      <point x="45.0" y="557.95108"/>
      <point x="45.0" y="500.0" type="curve" smooth="yes"/>
      <point x="45.0" y="442.04892"/>
      <point x="92.04892000000001" y="395.0"/>
      <point x="150.0" y="395.0" type="curve" smooth="yes"/>
      <point x="207.95108" y="395.0"/>
      <point x="255.0" y="442.04892"/>
    </contour>
  </outline>
</glyph>
<glyph name="semicolon" format="2">
  <advance width="300.0"/>
  <unicode hex="003B"/>
  <outline>
    <contour>
      <point x="50.0" y="-100.0" type="line"/>
      <point x="160.38299999999998" y="-100.0"/>
      <point x="250.0" y="-10.383"/>
      <point x="250.0" y="100.0" type="curve"/>
      <point x="50.0" y="100.0" type="line"/>
    </contour>
    <contour>
      <point x="255.0" y="500.0" type="curve" smooth="yes"/>
      <point x="255.0" y="557.95108"/>
      <point x="207.95108" y="605.0"/>
      <point x="150.0" y="605.0" type="curve" smooth="yes"/>
      <point x="92.04892000000001" y="605.0"/>
      <point x="45.0" y="557.95108"/>
      <point x="45.0" y="500.0" type="curve" smooth="yes"/>
      <point x="45.0" y="442.04892"/>
      <point x="92.04892000000001" y="395.0"/>
      <point x="150.0" y="395.0" type="curve" smooth="yes"/>
      <point x="207.95108" y="395.0"/>
      <point x="255.0" y="442.04892"/>
    </contour>
  </outline>
</glyph>
<glyph name="less" format="2">
  <advance width="500.0"/>
  <unicode hex="003C"/>
  <outline>
    <contour>
      <point x="50.0" y="300.0" type="line"/>
      <point x="50.0" y="189.617"/>
      <point x="139.61700000000002" y="100.0"/>
      <point x="250.0" y="100.0" type="curve"/>
      <point x="250.0" y="300.0" type="line"/>
    </contour>
    <contour>
      <point x="50.0" y="300.0" type="line"/>
      <point x="250.0" y="300.0" type="line"/>
      <point x="250.0" y="500.0" type="line"/>
      <point x="50.0" y="500.0" type="line"/>
    </contour>
    <contour>
      <point x="250.0" y="700.0" type="line"/>
      <point x="139.61700000000002" y="700.0"/>
      <point x="50.0" y="610.383"/>
      <point x="50.0" y="500.0" type="curve"/>
      <point x="250.0" y="500.0" type="line"/>
    </contour>
    <contour>
      <point x="450.0" y="100.0" type="line"/>
      <point x="450.0" y="210.383"/>
      <point x="360.383" y="300.0"/>
      <point x="250.0" y="300.0" type="curve"/>
      <point x="250.0" y="100.0" type="line"/>
    </contour>
    <contour>
      <point x="250.0" y="500.0" type="line"/>
      <point x="360.383" y="500.0"/>
      <point x="450.0" y="589.617"/>
      <point x="450.0" y="700.0" type="curve"/>
      <point x="250.0" y="700.0" type="line"/>
    </contour>
  </outline>
</glyph>
<glyph name="equal" format="2">
  <advance width="800.0"/>
  <unicode hex="003D"/>
  <outline>
    <contour>
      <point x="100.0" y="150.0" type="line"/>
      <point x="300.0" y="150.0" type="line"/>
      <point x="300.0" y="350.0" type="line"/>
      <point x="100.0" y="350.0" type="line"/>
    </contour>
    <contour>
      <point x="100.0" y="450.0" type="line"/>
      <point x="300.0" y="450.0" type="line"/>
      <point x="300.0" y="650.0" type="line"/>
      <point x="100.0" y="650.0" type="line"/>
    </contour>
    <contour>
      <point x="300.0" y="150.0" type="line"/>
      <point x="500.0" y="150.0" type="line"/>
      <point x="500.0" y="350.0" type="line"/>
      <point x="300.0" y="350.0" type="line"/>
    </contour>
    <contour>
      <point x="300.0" y="450.0" type="line"/>
      <point x="500.0" y="450.0" type="line"/>
      <point x="500.0" y="650.0" type="line"/>
      <point x="300.0" y="650.0" type="line"/>
    </contour>
    <contour>
      <point x="500.0" y="150.0" type="line"/>
      <point x="700.0" y="150.0" type="line"/>
      <point x="700.0" y="350.0" type="line"/>
      <point x="500.0" y="350.0" type="line"/>
    </contour>
    <contour>
      <point x="500.0" y="450.0" type="line"/>
      <point x="700.0" y="450.0" type="line"/>
      <point x="700.0" y="650.0" type="line"/>
      <point x="500.0" y="650.0" type="line"/>
    </contour>
  </outline>
</glyph>
<glyph name="question" format="2">
  <advance width="550.0"/>
  <unicode hex="003F"/>
  <outline>
    <contour>
      <point x="255.0" y="93.75" type="curve" smooth="yes"/>
      <point x="255.0" y="151.70108"/>
      <point x="207.95108" y="198.75"/>
      <point x="150.0" y="198.75" type="curve" smooth="yes"/>
      <point x="92.04892000000001" y="198.75"/>
      <point x="45.0" y="151.70108"/>
      <point x="45.0" y="93.75" type="curve" smooth="yes"/>
      <point x="45.0" y="35.79892"/>
      <point x="92.04892000000001" y="-11.25"/>
      <point x="150.0" y="-11.25" type="curve" smooth="yes"/>
      <point x="207.95108" y="-11.25"/>
      <point x="255.0" y="35.79892"/>
    </contour>
    <contour>
      <point x="50.0" y="212.5" type="line"/>
      <point x="250.0" y="212.5" type="line"/>
      <point x="250.0" y="400.0" type="line"/>
      <point x="50.0" y="400.0" type="line"/>
    </contour>
    <contour>
      <point x="250.0" y="600.0" type="line"/>
      <point x="139.61700000000002" y="600.0"/>
      <point x="50.0" y="510.383"/>
      <point x="50.0" y="400.0" type="curve"/>
      <point x="250.0" y="400.0" type="line"/>
    </contour>
    <contour>
      <point x="255.0" y="712.5" type="curve" smooth="yes"/>
      <point x="255.0" y="770.45108"/>
      <point x="207.95108" y="817.5"/>
      <point x="150.0" y="817.5" type="curve" smooth="yes"/>
      <point x="92.04892000000001" y="817.5"/>
      <point x="45.0" y="770.45108"/>
      <point x="45.0" y="712.5" type="curve" smooth="yes"/>
      <point x="45.0" y="654.54892"/>
      <point x="92.04892000000001" y="607.5"/>
      <point x="150.0" y="607.5" type="curve" smooth="yes"/>
      <point x="207.95108" y="607.5"/>
      <point x="255.0" y="654.54892"/>
    </contour>
    <contour>
      <point x="300.0" y="405.0" type="line"/>
      <point x="410.383" y="405.0"/>
      <point x="500.0" y="494.617"/>
      <point x="500.0" y="605.0" type="curve"/>
      <point x="300.0" y="605.0" type="line"/>
    </contour>
    <contour>
      <point x="500.0" y="605.0" type="line"/>
      <point x="500.0" y="715.383"/>
      <point x="410.383" y="805.0"/>
      <point x="300.0" y="805.0" type="curve"/>
      <point x="300.0" y="605.0" type="line"/>
    </contour>
  </outline>
</glyph>
<glyph name="at" format="2">
  <advance width="1148.52814"/>
  <unicode hex="0040"/>
  <outline>
    <contour>
      <point x="336.76407" y="400.0" type="curve"/>
      <point x="536.76407" y="400.0" type="line"/>
      <point x="536.76407" y="200.0" type="line"/>
      <point x="426.38107" y="200.0"/>
      <point x="336.76407" y="289.617"/>
    </contour>
    <contour>
      <point x="536.76407" y="600.0" type="curve"/>
      <point x="536.76407" y="400.0" type="line"/>
      <point x="336.76407" y="400.0" type="line"/>
      <point x="336.76407" y="510.383"/>
      <point x="426.38107" y="600.0"/>
    </contour>
    <contour>
      <point x="586.76407" y="400.0" type="curve"/>
      <point x="786.76407" y="400.0" type="line"/>
      <point x="786.76407" y="200.0" type="line"/>
      <point x="676.38107" y="200.0"/>
      <point x="586.76407" y="289.617"/>
    </contour>
    <contour>
      <point x="586.76407" y="400" type="line"/>
      <point x="586.76407" y="600" type="line"/>
      <point x="786.76407" y="600" type="line"/>
      <point x="786.76407" y="400" type="line"/>
    </contour>
    <contour>
      <point x="998.5281399999999" y="400.0" type="curve" smooth="yes"/>
      <point x="998.5281399999999" y="634.15771"/>
      <point x="808.42178" y="824.26407"/>
      <point x="574.26407" y="824.26407" type="curve" smooth="yes"/>
      <point x="340.10636" y="824.26407"/>
      <point x="150.0" y="634.15771"/>
      <point x="150.0" y="400.0" type="curve" smooth="yes"/>
      <point x="150.0" y="165.84229"/>
      <point x="340.10636" y="-24.26407"/>
      <point x="574.26407" y="-24.26407" type="curve" smooth="yes"/>
      <point x="808.42178" y="-24.26407"/>
      <point x="998.5281399999999" y="165.84229"/>
    </contour>
  </outline>
</glyph>
<glyph name="E" format="2">
  <advance width="550.0"/>
  <unicode hex="0045"/>
  <outline>
    <contour>
      <point x="50.0" y="0" type="line"/>
      <point x="250.0" y="0" type="line"/>
      <point x="250.0" y="200" type="line"/>
      <point x="50.0" y="200" type="line"/>
    </contour>
    <contour>
      <point x="50.0" y="200" type="line"/>
      <point x="250.0" y="200" type="line"/>
      <point x="250.0" y="400" type="line"/>
      <point x="50.0" y="400" type="line"/>
    </contour>
    <contour>
      <point x="50.0" y="400" type="line"/>
      <point x="250.0" y="400" type="line"/>
      <point x="250.0" y="600" type="line"/>
      <point x="50.0" y="600" type="line"/>
    </contour>
    <contour>
      <point x="50.0" y="600" type="line"/>
      <point x="250.0" y="600" type="line"/>
      <point x="250.0" y="800" type="line"/>
      <point x="50.0" y="800" type="line"/>
    </contour>
    <contour>
      <point x="500.0" y="200.0" type="line"/>
      <point x="389.617" y="200.0"/>
      <point x="300.0" y="110.383"/>
      <point x="300.0" y="0.0" type="curve"/>
      <point x="500.0" y="0.0" type="line"/>
    </contour>
    <contour>
      <point x="300.0" y="500.0" type="line"/>
      <point x="300.0" y="389.617"/>
      <point x="389.617" y="300.0"/>
      <point x="500.0" y="300.0" type="curve"/>
      <point x="500.0" y="500.0" type="line"/>
    </contour>
    <contour>
      <point x="300.0" y="800.0" type="line"/>
      <point x="300.0" y="689.617"/>
      <point x="389.617" y="600.0"/>
      <point x="500.0" y="600.0" type="curve"/>
      <point x="500.0" y="800.0" type="line"/>
    </contour>
  </outline>
</glyph>
<glyph name="G" format="2">
  <advance width="550.0"/>
  <unicode hex="0047"/>
  <outline>
    <contour>
      <point x="50.0" y="200.0" type="line"/>
      <point x="50.0" y="89.617"/>
      <point x="139.61700000000002" y="0.0"/>
      <point x="250.0" y="0.0" type="curve"/>
      <point x="250.0" y="200.0" type="line"/>
    </contour>
    <contour>
      <point x="50.0" y="200" type="line"/>
      <point x="250.0" y="200" type="line"/>
      <point x="250.0" y="400" type="line"/>
      <point x="50.0" y="400" type="line"/>
    </contour>
    <contour>
      <point x="50.0" y="400" type="line"/>
      <point x="250.0" y="400" type="line"/>
      <point x="250.0" y="600" type="line"/>
      <point x="50.0" y="600" type="line"/>
    </contour>
    <contour>
      <point x="250.0" y="800.0" type="line"/>
      <point x="139.61700000000002" y="800.0"/>
      <point x="50.0" y="710.383"/>
      <point x="50.0" y="600.0" type="curve"/>
      <point x="250.0" y="600.0" type="line"/>
    </contour>
    <contour>
      <point x="300.0" y="200.0" type="line"/>
      <point x="300.0" y="89.617"/>
      <point x="389.617" y="0.0"/>
      <point x="500.0" y="0.0" type="curve"/>
      <point x="500.0" y="200.0" type="line"/>
    </contour>
    <contour>
      <point x="300.0" y="200" type="line"/>
      <point x="500.0" y="200" type="line"/>
      <point x="500.0" y="400" type="line"/>
      <point x="300.0" y="400" type="line"/>
    </contour>
    <contour>
      <point x="300.0" y="800.0" type="line"/>
      <point x="300.0" y="689.617"/>
      <point x="389.617" y="600.0"/>
      <point x="500.0" y="600.0" type="curve"/>
      <point x="500.0" y="800.0" type="line"/>
    </contour>
  </outline>
</glyph>
<glyph name="N" format="2">
  <advance width="550.0"/>
  <unicode hex="004E"/>
  <outline>
    <contour>
      <point x="50.0" y="0" type="line"/>
      <point x="250.0" y="0" type="line"/>
      <point x="250.0" y="200" type="line"/>
      <point x="50.0" y="200" type="line"/>
    </contour>
    <contour>
      <point x="50.0" y="200" type="line"/>
      <point x="250.0" y="200" type="line"/>
      <point x="250.0" y="400" type="line"/>
      <point x="50.0" y="400" type="line"/>
    </contour>
    <contour>
      <point x="50.0" y="400" type="line"/>
      <point x="250.0" y="400" type="line"/>
      <point x="250.0" y="600" type="line"/>
      <point x="50.0" y="600" type="line"/>
    </contour>
    <contour>
      <point x="50.0" y="600" type="line"/>
      <point x="250.0" y="600" type="line"/>
      <point x="250.0" y="800" type="line"/>
      <point x="50.0" y="800" type="line"/>
    </contour>
    <contour>
      <point x="300.0" y="0" type="line"/>
      <point x="500.0" y="0" type="line"/>
      <point x="500.0" y="200" type="line"/>
      <point x="300.0" y="200" type="line"/>
    </contour>
    <contour>
      <point x="300.0" y="200" type="line"/>
      <point x="500.0" y="200" type="line"/>
      <point x="500.0" y="400" type="line"/>
      <point x="300.0" y="400" type="line"/>
    </contour>
    <contour>
      <point x="300.0" y="400" type="line"/>
      <point x="500.0" y="400" type="line"/>
      <point x="500.0" y="600" type="line"/>
      <point x="300.0" y="600" type="line"/>
    </contour>
    <contour>
      <point x="500.0" y="600" type="line"/>
      <point x="500.0" y="710.383"/>
      <point x="410.383" y="800.0"/>
      <point x="300.0" y="800.0" type="curve"/>
      <point x="300.0" y="600" type="line"/>
    </contour>
  </outline>
</glyph>
<glyph name="P" format="2">
  <advance width="550.0"/>
  <unicode hex="0050"/>
  <outline>
    <contour>
      <point x="50.0" y="0" type="line"/>
      <point x="250.0" y="0" type="line"/>
      <point x="250.0" y="200" type="line"/>
      <point x="50.0" y="200" type="line"/>
    </contour>
    <contour>
      <point x="50.0" y="200" type="line"/>
      <point x="250.0" y="200" type="line"/>
      <point x="250.0" y="400" type="line"/>
      <point x="50.0" y="400" type="line"/>
    </contour>
    <contour>
      <point x="50.0" y="400" type="line"/>
      <point x="250.0" y="400" type="line"/>
      <point x="250.0" y="600" type="line"/>
      <point x="50.0" y="600" type="line"/>
    </contour>
    <contour>
      <point x="50.0" y="600" type="line"/>
      <point x="250.0" y="600" type="line"/>
      <point x="250.0" y="800" type="line"/>
      <point x="50.0" y="800" type="line"/>
    </contour>
    <contour>
      <point x="300.0" y="200.0" type="line"/>
      <point x="410.383" y="200.0"/>
      <point x="500.0" y="289.617"/>
      <point x="500.0" y="400.0" type="curve"/>
      <point x="300.0" y="400.0" type="line"/>
    </contour>
    <contour>
      <point x="300.0" y="400" type="line"/>
      <point x="500.0" y="400" type="line"/>
      <point x="500.0" y="600" type="line"/>
      <point x="300.0" y="600" type="line"/>
    </contour>
    <contour>
      <point x="500.0" y="600" type="line"/>
      <point x="500.0" y="710.383"/>
      <point x="410.383" y="800.0"/>
      <point x="300.0" y="800.0" type="curve"/>
      <point x="300.0" y="600" type="line"/>
    </contour>
  </outline>
</glyph>
<glyph name="T" format="2">
  <advance width="800.0"/>
  <unicode hex="0054"/>
  <outline>
    <contour>
      <point x="50.0" y="600.0" type="line"/>
      <point x="160.38299999999998" y="600.0"/>
      <point x="250.0" y="689.617"/>
      <point x="250.0" y="800.0" type="curve"/>
      <point x="50.0" y="800.0" type="line"/>
    </contour>
    <contour>
      <point x="300.0" y="0" type="line"/>
      <point x="500.0" y="0" type="line"/>
      <point x="500.0" y="200" type="line"/>
      <point x="300.0" y="200" type="line"/>
    </contour>
    <contour>
      <point x="300.0" y="200" type="line"/>
      <point x="500.0" y="200" type="line"/>
      <point x="500.0" y="400" type="line"/>
      <point x="300.0" y="400" type="line"/>
    </contour>
    <contour>
      <point x="300.0" y="400" type="line"/>
      <point x="500.0" y="400" type="line"/>
      <point x="500.0" y="600" type="line"/>
      <point x="300.0" y="600" type="line"/>
    </contour>
    <contour>
      <point x="300.0" y="600" type="line"/>
      <point x="500.0" y="600" type="line"/>
      <point x="500.0" y="800" type="line"/>
      <point x="300.0" y="800" type="line"/>
    </contour>
    <contour>
      <point x="550.0" y="800.0" type="line"/>
      <point x="550.0" y="689.617"/>
      <point x="639.617" y="600.0"/>
      <point x="750.0" y="600.0" type="curve"/>
      <point x="750.0" y="800.0" type="line"/>
    </contour>
  </outline>
</glyph>
<glyph name="V" format="2">
  <advance width="550.0"/>
  <unicode hex="0056"/>
  <outline>
    <contour>
      <point x="50.0" y="195.0" type="line"/>
      <point x="50.0" y="84.617"/>
      <point x="139.61700000000002" y="-5.0"/>
      <point x="250.0" y="-5.0" type="curve"/>
      <point x="250.0" y="195.0" type="line"/>
    </contour>
    <contour>
      <point x="50.0" y="195.0" type="line"/>
      <point x="250.0" y="195.0" type="line"/>
      <point x="250.0" y="400.0" type="line"/>
      <point x="50.0" y="400.0" type="line"/>
    </contour>
    <contour>
      <point x="50.0" y="400" type="line"/>
      <point x="250.0" y="400" type="line"/>
      <point x="250.0" y="600" type="line"/>
      <point x="50.0" y="600" type="line"/>
    </contour>
    <contour>
      <point x="250.0" y="600" type="line"/>
      <point x="250.0" y="710.383"/>
      <point x="160.38299999999998" y="800.0"/>
      <point x="50.0" y="800.0" type="curve"/>
      <point x="50.0" y="600" type="line"/>
    </contour>
    <contour>
      <point x="300.0" y="-5.0" type="line"/>
      <point x="410.383" y="-5.0"/>
      <point x="500.0" y="84.617"/>
      <point x="500.0" y="195.0" type="curve"/>
      <point x="300.0" y="195.0" type="line"/>
    </contour>
    <contour>
      <point x="300.0" y="195.0" type="line"/>
      <point x="500.0" y="195.0" type="line"/>
      <point x="500.0" y="400.0" type="line"/>
      <point x="300.0" y="400.0" type="line"/>
    </contour>
    <contour>
      <point x="300.0" y="400" type="line"/>
      <point x="500.0" y="400" type="line"/>
      <point x="500.0" y="600" type="line"/>
      <point x="300.0" y="600" type="line"/>
    </contour>
    <contour>
      <point x="300.0" y="600" type="line"/>
      <point x="500.0" y="600" type="line"/>
      <point x="500.0" y="800" type="line"/>
      <point x="300.0" y="800" type="line"/>
    </contour>
  </outline>
</glyph>
<glyph name="bracketleft" format="2">
  <advance width="500.0"/>
  <unicode hex="005B"/>
  <outline>
    <contour>
      <point x="50.0" y="-100.0" type="line"/>
      <point x="250.0" y="-100.0" type="line"/>
      <point x="250.0" y="100.0" type="line"/>
      <point x="50.0" y="100.0" type="line"/>
    </contour>
    <contour>
      <point x="50.0" y="100.0" type="line"/>
      <point x="250.0" y="100.0" type="line"/>
      <point x="250.0" y="300.0" type="line"/>
      <point x="50.0" y="300.0" type="line"/>
    </contour>
    <contour>
      <point x="50.0" y="300.0" type="line"/>
      <point x="250.0" y="300.0" type="line"/>
      <point x="250.0" y="500.0" type="line"/>
      <point x="50.0" y="500.0" type="line"/>
    </contour>
    <contour>
      <point x="50.0" y="500.0" type="line"/>
      <point x="250.0" y="500.0" type="line"/>
      <point x="250.0" y="700.0" type="line"/>
      <point x="50.0" y="700.0" type="line"/>
    </contour>
    <contour>
      <point x="50.0" y="700.0" type="line"/>
      <point x="250.0" y="700.0" type="line"/>
      <point x="250.0" y="900.0" type="line"/>
      <point x="50.0" y="900.0" type="line"/>
    </contour>
    <contour>
      <point x="450.0" y="-100.0" type="line"/>
      <point x="450.0" y="10.383"/>
      <point x="360.383" y="100.0"/>
      <point x="250.0" y="100.0" type="curve"/>
      <point x="250.0" y="-100.0" type="line"/>
    </contour>
    <contour>
      <point x="250.0" y="700.0" type="line"/>
      <point x="360.383" y="700.0"/>
      <point x="450.0" y="789.617"/>
      <point x="450.0" y="900.0" type="curve"/>
      <point x="250.0" y="900.0" type="line"/>
    </contour>
  </outline>
</glyph>
<glyph name="bracketright" format="2">
  <advance width="500.0"/>
  <unicode hex="005D"/>
  <outline>
    <contour>
      <point x="250.0" y="100.0" type="line"/>
      <point x="139.617" y="100.0"/>
      <point x="50.0" y="10.383"/>
      <point x="50.0" y="-100.0" type="curve"/>
      <point x="250.0" y="-100.0" type="line"/>
    </contour>
    <contour>
      <point x="50.0" y="900.0" type="line"/>
      <point x="50.0" y="789.617"/>
      <point x="139.617" y="700.0"/>
      <point x="250.0" y="700.0" type="curve"/>
      <point x="250.0" y="900.0" type="line"/>
    </contour>
    <contour>
      <point x="250.0" y="-100.0" type="line"/>
      <point x="450.0" y="-100.0" type="line"/>
      <point x="450.0" y="100.0" type="line"/>
      <point x="250.0" y="100.0" type="line"/>
    </contour>
    <contour>
      <point x="250.0" y="100.0" type="line"/>
      <point x="450.0" y="100.0" type="line"/>
      <point x="450.0" y="300.0" type="line"/>
      <point x="250.0" y="300.0" type="line"/>
    </contour>
    <contour>
      <point x="250.0" y="300.0" type="line"/>
      <point x="450.0" y="300.0" type="line"/>
      <point x="450.0" y="500.0" type="line"/>
      <point x="250.0" y="500.0" type="line"/>
    </contour>
    <contour>
      <point x="250.0" y="500.0" type="line"/>
      <point x="450.0" y="500.0" type="line"/>
      <point x="450.0" y="700.0" type="line"/>
      <point x="250.0" y="700.0" type="line"/>
    </contour>
    <contour>
      <point x="250.0" y="700.0" type="line"/>
      <point x="450.0" y="700.0" type="line"/>
      <point x="450.0" y="900.0" type="line"/>
      <point x="250.0" y="900.0" type="line"/>
    </contour>
  </outline>
</glyph>
<glyph name="underscore" format="2">
  <advance width="550.0"/>
  <unicode hex="005F"/>
  <outline>
    <contour>
      <point x="50.0" y="-200" type="line"/>
      <point x="250.0" y="-200" type="line"/>
      <point x="250.0" y="0" type="line"/>
      <point x="50.0" y="0" type="line"/>
    </contour>
    <contour>
      <point x="250.0" y="-200.0" type="line"/>
      <point x="300.0" y="-200.0" type="line"/>
      <point x="300.0" y="0.0" type="line"/>
      <point x="250.0" y="0.0" type="line"/>
    </contour>
    <contour>
      <point x="300.0" y="-200" type="line"/>
      <point x="500.0" y="-200" type="line"/>
      <point x="500.0" y="0" type="line"/>
      <point x="300.0" y="0" type="line"/>
    </contour>
  </outline>
</glyph>
<glyph name="grave" format="2">
  <advance width="300.0"/>
  <unicode hex="0060"/>
  <outline>
    <contour>
      <point x="-37.5" y="1000.0" type="line"/>
      <point x="-37.5" y="889.617"/>
      <point x="52.117" y="800.0"/>
      <point x="162.5" y="800.0" type="curve"/>
      <point x="162.5" y="1000.0" type="line"/>
    </contour>
  </outline>
</glyph>
<glyph name="b" format="2">
  <advance width="550.0"/>
  <unicode hex="0062"/>
  <outline>
    <contour>
      <point x="50.0" y="0" type="line"/>
      <point x="250.0" y="0" type="line"/>
      <point x="250.0" y="200" type="line"/>
      <point x="50.0" y="200" type="line"/>
    </contour>
    <contour>
      <point x="50.0" y="200" type="line"/>
      <point x="250.0" y="200" type="line"/>
      <point x="250.0" y="400" type="line"/>
      <point x="50.0" y="400" type="line"/>
    </contour>
    <contour>
      <point x="50.0" y="400" type="line"/>
      <point x="250.0" y="400" type="line"/>
      <point x="250.0" y="600" type="line"/>
      <point x="50.0" y="600" type="line"/>
    </contour>
    <contour>
      <point x="50.0" y="600" type="line"/>
      <point x="250.0" y="600" type="line"/>
      <point x="250.0" y="800" type="line"/>
      <point x="50.0" y="800" type="line"/>
    </contour>
    <contour>
      <point x="300.0" y="0.0" type="line"/>
      <point x="410.383" y="0.0"/>
      <point x="500.0" y="89.617"/>
      <point x="500.0" y="200.0" type="curve"/>
      <point x="300.0" y="200.0" type="line"/>
    </contour>
    <contour>
      <point x="300.0" y="200" type="line"/>
      <point x="500.0" y="200" type="line"/>
      <point x="500.0" y="405.0" type="line"/>
      <point x="300.0" y="405.0" type="line"/>
    </contour>
    <contour>
      <point x="500.0" y="405.0" type="line"/>
      <point x="500.0" y="515.383"/>
      <point x="410.383" y="605.0"/>
      <point x="300.0" y="605.0" type="curve"/>
      <point x="300.0" y="405.0" type="line"/>
    </contour>
  </outline>
</glyph>
<glyph name="f" format="2">
  <advance width="550.0"/>
  <unicode hex="0066"/>
  <outline>
    <contour>
      <point x="50.0" y="0" type="line"/>
      <point x="250.0" y="0" type="line"/>
      <point x="250.0" y="200" type="line"/>
      <point x="50.0" y="200" type="line"/>
    </contour>
    <contour>
      <point x="50.0" y="200" type="line"/>
      <point x="250.0" y="200" type="line"/>
      <point x="250.0" y="400" type="line"/>
      <point x="50.0" y="400" type="line"/>
    </contour>
    <contour>
      <point x="50.0" y="400" type="line"/>
      <point x="250.0" y="400" type="line"/>
      <point x="250.0" y="600" type="line"/>
      <point x="50.0" y="600" type="line"/>
    </contour>
    <contour>
      <point x="250.0" y="800.0" type="line"/>
      <point x="139.61700000000002" y="800.0"/>
      <point x="50.0" y="710.383"/>
      <point x="50.0" y="600.0" type="curve"/>
      <point x="250.0" y="600.0" type="line"/>
    </contour>
    <contour>
      <point x="300.0" y="587.5" type="line"/>
      <point x="300.0" y="477.117"/>
      <point x="389.617" y="387.5"/>
      <point x="500.0" y="387.5" type="curve"/>
      <point x="500.0" y="587.5" type="line"/>
    </contour>
    <contour>
      <point x="300.0" y="800.0" type="line"/>
      <point x="300.0" y="689.617"/>
      <point x="389.617" y="600.0"/>
      <point x="500.0" y="600.0" type="curve"/>
      <point x="500.0" y="800.0" type="line"/>
    </contour>
  </outline>
</glyph>
<glyph name="i" format="2">
  <advance width="300.0"/>
  <unicode hex="0069"/>
  <outline>
    <contour>
      <point x="50.0" y="0" type="line"/>
      <point x="250.0" y="0" type="line"/>
      <point x="250.0" y="200" type="line"/>
      <point x="50.0" y="200" type="line"/>
    </contour>
    <contour>
      <point x="50.0" y="200" type="line"/>
      <point x="250.0" y="200" type="line"/>
      <point x="250.0" y="400" type="line"/>
      <point x="50.0" y="400" type="line"/>
    </contour>
    <contour>
      <point x="50.0" y="400" type="line"/>
      <point x="250.0" y="400" type="line"/>
      <point x="250.0" y="600" type="line"/>
      <point x="50.0" y="600" type="line"/>
    </contour>
    <contour>
      <point x="255.0" y="733.33333" type="curve" smooth="yes"/>
      <point x="255.0" y="791.28441"/>
      <point x="207.95108" y="838.33333"/>
      <point x="150.0" y="838.33333" type="curve" smooth="yes"/>
      <point x="92.04892000000001" y="838.33333"/>
      <point x="45.0" y="791.28441"/>
      <point x="45.0" y="733.33333" type="curve" smooth="yes"/>
      <point x="45.0" y="675.38225"/>
      <point x="92.04892000000001" y="628.33333"/>
      <point x="150.0" y="628.33333" type="curve" smooth="yes"/>
      <point x="207.95108" y="628.33333"/>
      <point x="255.0" y="675.38225"/>
    </contour>
  </outline>
</glyph>
<glyph name="l" format="2">
  <advance width="300.0"/>
  <unicode hex="006C"/>
  <outline>
    <contour>
      <point x="50.0" y="195.0" type="line"/>
      <point x="50.0" y="84.617"/>
      <point x="139.61700000000002" y="-5.0"/>
      <point x="250.0" y="-5.0" type="curve"/>
      <point x="250.0" y="195.0" type="line"/>
    </contour>
    <contour>
      <point x="50.0" y="195.0" type="line"/>
      <point x="250.0" y="195.0" type="line"/>
      <point x="250.0" y="400.0" type="line"/>
      <point x="50.0" y="400.0" type="line"/>
    </contour>
    <contour>
      <point x="50.0" y="400" type="line"/>
      <point x="250.0" y="400" type="line"/>
      <point x="250.0" y="600" type="line"/>
      <point x="50.0" y="600" type="line"/>
    </contour>
    <contour>
      <point x="50.0" y="600" type="line"/>
      <point x="250.0" y="600" type="line"/>
      <point x="250.0" y="800" type="line"/>
      <point x="50.0" y="800" type="line"/>
    </contour>
  </outline>
</glyph>
<glyph name="m" format="2">
  <advance width="800.0"/>
  <unicode hex="006D"/>
  <outline>
    <contour>
      <point x="50.0" y="0" type="line"/>
      <point x="250.0" y="0" type="line"/>
      <point x="250.0" y="200" type="line"/>
      <point x="50.0" y="200" type="line"/>
    </contour>
    <contour>
      <point x="50.0" y="200" type="line"/>
      <point x="250.0" y="200" type="line"/>
      <point x="250.0" y="400" type="line"/>
      <point x="50.0" y="400" type="line"/>
    </contour>
    <contour>
      <point x="50.0" y="400" type="line"/>
      <point x="250.0" y="400" type="line"/>
      <point x="250.0" y="600" type="line"/>
      <point x="50.0" y="600" type="line"/>
    </contour>
    <contour>
      <point x="300.0" y="0" type="line"/>
      <point x="500.0" y="0" type="line"/>
      <point x="500.0" y="200" type="line"/>
      <point x="300.0" y="200" type="line"/>
    </contour>
    <contour>
      <point x="300.0" y="200" type="line"/>
      <point x="500.0" y="200" type="line"/>
      <point x="500.0" y="400" type="line"/>
      <point x="300.0" y="400" type="line"/>
    </contour>
    <contour>
      <point x="300.0" y="400" type="line"/>
      <point x="500.0" y="400" type="line"/>
      <point x="500.0" y="600" type="line"/>
      <point x="300.0" y="600" type="line"/>
    </contour>
    <contour>
      <point x="550.0" y="0" type="line"/>
      <point x="750.0" y="0" type="line"/>
      <point x="750.0" y="200" type="line"/>
      <point x="550.0" y="200" type="line"/>
    </contour>
    <contour>
      <point x="550.0" y="200" type="line"/>
      <point x="750.0" y="200" type="line"/>
      <point x="750.0" y="400" type="line"/>
      <point x="550.0" y="400" type="line"/>
    </contour>
    <contour>
      <point x="750.0" y="400" type="line"/>
      <point x="750.0" y="510.383"/>
      <point x="660.383" y="600.0"/>
      <point x="550.0" y="600.0" type="curve"/>
      <point x="550.0" y="400" type="line"/>
    </contour>
  </outline>
</glyph>
<glyph name="p" format="2">
  <advance width="550.0"/>
  <unicode hex="0070"/>
  <outline>
    <contour>
      <point x="50.0" y="-200" type="line"/>
      <point x="250.0" y="-200" type="line"/>
      <point x="250.0" y="0" type="line"/>
      <point x="50.0" y="0" type="line"/>
    </contour>
    <contour>
      <point x="50.0" y="0" type="line"/>
      <point x="250.0" y="0" type="line"/>
      <point x="250.0" y="200" type="line"/>
      <point x="50.0" y="200" type="line"/>
    </contour>
    <contour>
      <point x="50.0" y="200" type="line"/>
      <point x="250.0" y="200" type="line"/>
      <point x="250.0" y="400" type="line"/>
      <point x="50.0" y="400" type="line"/>
    </contour>
    <contour>
      <point x="50.0" y="400" type="line"/>
      <point x="250.0" y="400" type="line"/>
      <point x="250.0" y="600" type="line"/>
      <point x="50.0" y="600" type="line"/>
    </contour>
    <contour>
      <point x="300.0" y="0.0" type="line"/>
      <point x="410.383" y="0.0"/>
      <point x="500.0" y="89.617"/>
      <point x="500.0" y="200.0" type="curve"/>
      <point x="300.0" y="200.0" type="line"/>
    </contour>
    <contour>
      <point x="300.0" y="200" type="line"/>
      <point x="500.0" y="200" type="line"/>
      <point x="500.0" y="400" type="line"/>
      <point x="300.0" y="400" type="line"/>
    </contour>
    <contour>
      <point x="500.0" y="400" type="line"/>
      <point x="500.0" y="510.383"/>
      <point x="410.383" y="600.0"/>
      <point x="300.0" y="600.0" type="curve"/>
      <point x="300.0" y="400" type="line"/>
    </contour>
  </outline>
</glyph>
<glyph name="w" format="2">
  <advance width="800.0"/>
  <unicode hex="0077"/>
  <outline>
    <contour>
      <point x="50.0" y="200.0" type="line"/>
      <point x="50.0" y="89.617"/>
      <point x="139.61700000000002" y="0.0"/>
      <point x="250.0" y="0.0" type="curve"/>
      <point x="250.0" y="200.0" type="line"/>
    </contour>
    <contour>
      <point x="50.0" y="200" type="line"/>
      <point x="250.0" y="200" type="line"/>
      <point x="250.0" y="400" type="line"/>
      <point x="50.0" y="400" type="line"/>
    </contour>
    <contour>
      <point x="250.0" y="400" type="line"/>
      <point x="250.0" y="510.383"/>
      <point x="160.38299999999998" y="600.0"/>
      <point x="50.0" y="600.0" type="curve"/>
      <point x="50.0" y="400" type="line"/>
    </contour>
    <contour>
      <point x="300.0" y="0" type="line"/>
      <point x="500.0" y="0" type="line"/>
      <point x="500.0" y="200" type="line"/>
      <point x="300.0" y="200" type="line"/>
    </contour>
    <contour>
      <point x="300.0" y="200" type="line"/>
      <point x="500.0" y="200" type="line"/>
      <point x="500.0" y="400" type="line"/>
      <point x="300.0" y="400" type="line"/>
    </contour>
    <contour>
      <point x="500.0" y="400" type="line"/>
      <point x="500.0" y="510.383"/>
      <point x="410.383" y="600.0"/>
      <point x="300.0" y="600.0" type="curve"/>
      <point x="300.0" y="400" type="line"/>
    </contour>
    <contour>
      <point x="550.0" y="0.0" type="line"/>
      <point x="660.383" y="0.0"/>
      <point x="750.0" y="89.617"/>
      <point x="750.0" y="200.0" type="curve"/>
      <point x="550.0" y="200.0" type="line"/>
    </contour>
    <contour>
      <point x="550.0" y="200" type="line"/>
      <point x="750.0" y="200" type="line"/>
      <point x="750.0" y="400" type="line"/>
      <point x="550.0" y="400" type="line"/>
    </contour>
    <contour>
      <point x="550.0" y="400" type="line"/>
      <point x="750.0" y="400" type="line"/>
      <point x="750.0" y="600" type="line"/>
      <point x="550.0" y="600" type="line"/>
    </contour>
  </outline>
</glyph>
<glyph name="x" format="2">
  <advance width="550.0"/>
  <unicode hex="0078"/>
  <outline>
    <contour>
      <point x="50.0" y="0" type="line"/>
      <point x="250.0" y="0" type="line"/>
      <point x="250.0" y="100.0" type="line"/>
      <point x="50.0" y="100.0" type="line"/>
    </contour>
    <contour>
      <point x="250.0" y="300.0" type="line"/>
      <point x="139.61700000000002" y="300.0"/>
      <point x="50.0" y="210.383"/>
      <point x="50.0" y="100.0" type="curve"/>
      <point x="250.0" y="100.0" type="line"/>
    </contour>
    <contour>
      <point x="50.0" y="500.0" type="line"/>
      <point x="50.0" y="389.617"/>
      <point x="139.61700000000002" y="300.0"/>
      <point x="250.0" y="300.0" type="curve"/>
      <point x="250.0" y="500.0" type="line"/>
    </contour>
    <contour>
      <point x="50.0" y="500.0" type="line"/>
      <point x="250.0" y="500.0" type="line"/>
      <point x="250.0" y="600.0" type="line"/>
      <point x="50.0" y="600.0" type="line"/>
    </contour>
    <contour>
      <point x="300.0" y="0" type="line"/>
      <point x="500.0" y="0" type="line"/>
      <point x="500.0" y="100.0" type="line"/>
      <point x="300.0" y="100.0" type="line"/>
    </contour>
    <contour>
      <point x="500.0" y="100.0" type="line"/>
      <point x="500.0" y="210.383"/>
      <point x="410.383" y="300.0"/>
      <point x="300.0" y="300.0" type="curve"/>
      <point x="300.0" y="100.0" type="line"/>
    </contour>
    <contour>
      <point x="300.0" y="300.0" type="line"/>
      <point x="410.383" y="300.0"/>
      <point x="500.0" y="389.617"/>
      <point x="500.0" y="500.0" type="curve"/>
      <point x="300.0" y="500.0" type="line"/>
    </contour>
    <contour>
      <point x="300.0" y="500.0" type="line"/>
      <point x="500.0" y="500.0" type="line"/>
      <point x="500.0" y="600.0" type="line"/>
      <point x="300.0" y="600.0" type="line"/>
    </contour>
  </outline>
</glyph>
<glyph name="braceright" format="2">
  <advance width="300.0"/>
  <unicode hex="007D"/>
  <outline>
    <contour>
      <point x="50.0" y="-100.0" type="line"/>
      <point x="160.38299999999998" y="-100.0"/>
      <point x="250.0" y="-10.383"/>
      <point x="250.0" y="100.0" type="curve"/>
      <point x="50.0" y="100.0" type="line"/>
    </contour>
    <contour>
      <point x="50.0" y="100.0" type="line"/>
      <point x="250.0" y="100.0" type="line"/>
      <point x="250.0" y="200.0" type="line"/>
      <point x="50.0" y="200.0" type="line"/>
    </contour>
    <contour>
      <point x="250.0" y="400.0" type="line"/>
      <point x="139.61700000000002" y="400.0"/>
      <point x="50.0" y="310.383"/>
      <point x="50.0" y="200.0" type="curve"/>
      <point x="250.0" y="200.0" type="line"/>
    </contour>
    <contour>
      <point x="50.0" y="600.0" type="line"/>
      <point x="50.0" y="489.617"/>
      <point x="139.61700000000002" y="400.0"/>
      <point x="250.0" y="400.0" type="curve"/>
      <point x="250.0" y="600.0" type="line"/>
    </contour>
    <contour>
      <point x="50.0" y="600" type="line"/>
      <point x="250.0" y="600" type="line"/>
      <point x="250.0" y="700.0" type="line"/>
      <point x="50.0" y="700.0" type="line"/>
    </contour>
    <contour>
      <point x="250.0" y="700.0" type="line"/>
      <point x="250.0" y="810.383"/>
      <point x="160.38299999999998" y="900.0"/>
      <point x="50.0" y="900.0" type="curve"/>
      <point x="50.0" y="700.0" type="line"/>
    </contour>
  </outline>
</glyph>
<glyph name="tilde" format="2">
  <advance width="550.0"/>
  <unicode hex="007E"/>
  <outline>
    <contour>
      <point x="250.0" y="500.0" type="line"/>
      <point x="139.61700000000002" y="500.0"/>
      <point x="50.0" y="410.383"/>
      <point x="50.0" y="300.0" type="curve"/>
      <point x="250.0" y="300.0" type="line"/>
    </contour>
    <contour>
      <point x="250.0" y="300.0" type="line"/>
      <point x="300.0" y="300.0" type="line"/>
      <point x="300.0" y="500.0" type="line"/>
      <point x="250.0" y="500.0" type="line"/>
    </contour>
    <contour>
      <point x="300.0" y="300.0" type="line"/>
      <point x="410.383" y="300.0"/>
      <point x="500.0" y="389.617"/>
      <point x="500.0" y="500.0" type="curve"/>
      <point x="300.0" y="500.0" type="line"/>
    </contour>
  </outline>
</glyph>
<glyph name="cent" format="2">
  <advance width="550.0"/>
  <unicode hex="00A2"/>
  <outline>
    <contour>
      <point x="150.0" y="0" type="line"/>
      <point x="250.0" y="0" type="line"/>
      <point x="250.0" y="100.0" type="line"/>
      <point x="150.0" y="100.0" type="line"/>
    </contour>
    <contour>
      <point x="150.0" y="100.0" type="line"/>
      <point x="250.0" y="100.0" type="line"/>
      <point x="250.0" y="200.0" type="line"/>
      <point x="150.0" y="200.0" type="line"/>
    </contour>
    <contour>
      <point x="50.0" y="300.0" type="line"/>
      <point x="50.0" y="189.617"/>
      <point x="139.61700000000002" y="100.0"/>
      <point x="250.0" y="100.0" type="curve"/>
      <point x="250.0" y="300.0" type="line"/>
    </contour>
    <contour>
      <point x="250.0" y="500.0" type="line"/>
      <point x="139.61700000000002" y="500.0"/>
      <point x="50.0" y="410.383"/>
      <point x="50.0" y="300.0" type="curve"/>
      <point x="250.0" y="300.0" type="line"/>
    </contour>
    <contour>
      <point x="150.0" y="400" type="line"/>
      <point x="250.0" y="400" type="line"/>
      <point x="250.0" y="500.0" type="line"/>
      <point x="150.0" y="500.0" type="line"/>
    </contour>
    <contour>
      <point x="150.0" y="500.0" type="line"/>
      <point x="250.0" y="500.0" type="line"/>
      <point x="250.0" y="600.0" type="line"/>
      <point x="150.0" y="600.0" type="line"/>
    </contour>
    <contour>
      <point x="300.0" y="0" type="line"/>
      <point x="400.0" y="0" type="line"/>
      <point x="400.0" y="100.0" type="line"/>
      <point x="300.0" y="100.0" type="line"/>
    </contour>
    <contour>
      <point x="500.0" y="300.0" type="line"/>
      <point x="389.617" y="300.0"/>
      <point x="300.0" y="210.383"/>
      <point x="300.0" y="100.0" type="curve"/>
      <point x="500.0" y="100.0" type="line"/>
    </contour>
    <contour>
      <point x="300.0" y="500.0" type="line"/>
      <point x="300.0" y="389.617"/>
      <point x="389.617" y="300.0"/>
      <point x="500.0" y="300.0" type="curve"/>
      <point x="500.0" y="500.0" type="line"/>
    </contour>
    <contour>
      <point x="300.0" y="500.0" type="line"/>
      <point x="400.0" y="500.0" type="line"/>
      <point x="400.0" y="600.0" type="line"/>
      <point x="300.0" y="600.0" type="line"/>
    </contour>
  </outline>
</glyph>
<glyph name="pound" format="2">
  <advance width="705.0"/>
  <unicode hex="00A3"/>
  <outline>
    <contour>
      <point x="50.0" y="0" type="line"/>
      <point x="150.0" y="0" type="line"/>
      <point x="150.0" y="100.0" type="line"/>
      <point x="50.0" y="100.0" type="line"/>
    </contour>
    <contour>
      <point x="50.0" y="350.0" type="line"/>
      <point x="150.0" y="350.0" type="line"/>
      <point x="150.0" y="450.0" type="line"/>
      <point x="50.0" y="450.0" type="line"/>
    </contour>
    <contour>
      <point x="200.0" y="0" type="line"/>
      <point x="400.0" y="0" type="line"/>
      <point x="400.0" y="200" type="line"/>
      <point x="200.0" y="200" type="line"/>
    </contour>
    <contour>
      <point x="200.0" y="200" type="line"/>
      <point x="400.0" y="200" type="line"/>
      <point x="400.0" y="400" type="line"/>
      <point x="200.0" y="400" type="line"/>
    </contour>
    <contour>
      <point x="200.0" y="400" type="line"/>
      <point x="400.0" y="400" type="line"/>
      <point x="400.0" y="605.0" type="line"/>
      <point x="200.0" y="605.0" type="line"/>
    </contour>
    <contour>
      <point x="400.0" y="805.0" type="line"/>
      <point x="289.617" y="805.0"/>
      <point x="200.0" y="715.383"/>
      <point x="200.0" y="605.0" type="curve"/>
      <point x="400.0" y="605.0" type="line"/>
    </contour>
    <contour>
      <point x="650.0" y="200.0" type="line"/>
      <point x="539.617" y="200.0"/>
      <point x="450.0" y="110.383"/>
      <point x="450.0" y="0.0" type="curve"/>
      <point x="650.0" y="0.0" type="line"/>
    </contour>
    <contour>
      <point x="450.0" y="350.0" type="line"/>
      <point x="550.0" y="350.0" type="line"/>
      <point x="550.0" y="450.0" type="line"/>
      <point x="450.0" y="450.0" type="line"/>
    </contour>
    <contour>
      <point x="500.0" y="350.0" type="line"/>
      <point x="600.0" y="350.0" type="line"/>
      <point x="600.0" y="450.0" type="line"/>
      <point x="500.0" y="450.0" type="line"/>
    </contour>
    <contour>
      <point x="655.0" y="700.0" type="curve" smooth="yes"/>
      <point x="655.0" y="757.95108"/>
      <point x="607.95108" y="805.0"/>
      <point x="550.0" y="805.0" type="curve" smooth="yes"/>
      <point x="492.04891999999995" y="805.0"/>
      <point x="445.0" y="757.95108"/>
      <point x="445.0" y="700.0" type="curve" smooth="yes"/>
      <point x="445.0" y="642.04892"/>
      <point x="492.04891999999995" y="595.0"/>
      <point x="550.0" y="595.0" type="curve" smooth="yes"/>
      <point x="607.95108" y="595.0"/>
      <point x="655.0" y="642.04892"/>
    </contour>
  </outline>
</glyph>
<glyph name="currency" format="2">
  <advance width="550.0"/>
  <unicode hex="00A4"/>
  <outline>
    <contour>
      <point x="50.0" y="400.0" type="line"/>
      <point x="50.0" y="289.617"/>
      <point x="139.61700000000002" y="200.0"/>
      <point x="250.0" y="200.0" type="curve"/>
      <point x="250.0" y="400.0" type="line"/>
    </contour>
    <contour>
      <point x="250.0" y="600.0" type="line"/>
      <point x="139.61700000000002" y="600.0"/>
      <point x="50.0" y="510.383"/>
      <point x="50.0" y="400.0" type="curve"/>
      <point x="250.0" y="400.0" type="line"/>
    </contour>
    <contour>
      <point x="50.0" y="200.0" type="line"/>
      <point x="150.0" y="200.0" type="line"/>
      <point x="150.0" y="300.0" type="line"/>
      <point x="50.0" y="300.0" type="line"/>
    </contour>
    <contour>
      <point x="50.0" y="500.0" type="line"/>
      <point x="150.0" y="500.0" type="line"/>
      <point x="150.0" y="600.0" type="line"/>
      <point x="50.0" y="600.0" type="line"/>
    </contour>
    <contour>
      <point x="300.0" y="200.0" type="line"/>
      <point x="410.383" y="200.0"/>
      <point x="500.0" y="289.617"/>
      <point x="500.0" y="400.0" type="curve"/>
      <point x="300.0" y="400.0" type="line"/>
    </contour>
    <contour>
      <point x="500.0" y="400" type="line"/>
      <point x="500.0" y="510.383"/>
      <point x="410.383" y="600.0"/>
      <point x="300.0" y="600.0" type="curve"/>
      <point x="300.0" y="400" type="line"/>
    </contour>
    <contour>
      <point x="400.0" y="200.0" type="line"/>
      <point x="500.0" y="200.0" type="line"/>
      <point x="500.0" y="300.0" type="line"/>
      <point x="400.0" y="300.0" type="line"/>
    </contour>
    <contour>
      <point x="400.0" y="500.0" type="line"/>
      <point x="500.0" y="500.0" type="line"/>
      <point x="500.0" y="600.0" type="line"/>
      <point x="400.0" y="600.0" type="line"/>
    </contour>
  </outline>
</glyph>
<glyph name="yen" format="2">
  <advance width="850.0"/>
  <unicode hex="00A5"/>
  <outline>
    <contour>
      <point x="50.0" y="375.0" type="line"/>
      <point x="150.0" y="375.0" type="line"/>
      <point x="150.0" y="475.0" type="line"/>
      <point x="50.0" y="475.0" type="line"/>
    </contour>
    <contour>
      <point x="50.0" y="525.0" type="line"/>
      <point x="150.0" y="525.0" type="line"/>
      <point x="150.0" y="625.0" type="line"/>
      <point x="50.0" y="625.0" type="line"/>
    </contour>
    <contour>
      <point x="200.0" y="400.0" type="line"/>
      <point x="200.0" y="289.617"/>
      <point x="289.617" y="200.0"/>
      <point x="400.0" y="200.0" type="curve"/>
      <point x="400.0" y="400.0" type="line"/>
    </contour>
    <contour>
      <point x="200.0" y="400" type="line"/>
      <point x="400.0" y="400" type="line"/>
      <point x="400.0" y="605.0" type="line"/>
      <point x="200.0" y="605.0" type="line"/>
    </contour>
    <contour>
      <point x="400.0" y="605.0" type="line"/>
      <point x="400.0" y="715.383"/>
      <point x="310.383" y="805.0"/>
      <point x="200.0" y="805.0" type="curve"/>
      <point x="200.0" y="605.0" type="line"/>
    </contour>
    <contour>
      <point x="450.0" y="-5.0" type="line"/>
      <point x="560.383" y="-5.0"/>
      <point x="650.0" y="84.617"/>
      <point x="650.0" y="195.0" type="curve"/>
      <point x="450.0" y="195.0" type="line"/>
    </contour>
    <contour>
      <point x="450.0" y="195.0" type="line"/>
      <point x="650.0" y="195.0" type="line"/>
      <point x="650.0" y="400.0" type="line"/>
      <point x="450.0" y="400.0" type="line"/>
    </contour>
    <contour>
      <point x="450.0" y="400" type="line"/>
      <point x="650.0" y="400" type="line"/>
      <point x="650.0" y="600" type="line"/>
      <point x="450.0" y="600" type="line"/>
    </contour>
    <contour>
      <point x="450.0" y="600" type="line"/>
      <point x="650.0" y="600" type="line"/>
      <point x="650.0" y="800" type="line"/>
      <point x="450.0" y="800" type="line"/>
    </contour>
    <contour>
      <point x="700.0" y="375.0" type="line"/>
      <point x="800.0" y="375.0" type="line"/>
      <point x="800.0" y="475.0" type="line"/>
      <point x="700.0" y="475.0" type="line"/>
    </contour>
    <contour>
      <point x="700.0" y="525.0" type="line"/>
      <point x="800.0" y="525.0" type="line"/>
      <point x="800.0" y="625.0" type="line"/>
      <point x="700.0" y="625.0" type="line"/>
    </contour>
  </outline>
</glyph>
<glyph name="copyright" format="2">
  <advance width="1148.52814"/>
  <unicode hex="00A9"/>
  <outline>
    <contour>
      <point x="336.76407" y="400.0" type="curve"/>
      <point x="536.76407" y="400.0" type="line"/>
      <point x="536.76407" y="200.0" type="line"/>
      <point x="426.38107" y="200.0"/>
      <point x="336.76407" y="289.617"/>
    </contour>
    <contour>
      <point x="536.76407" y="605.0" type="curve"/>
      <point x="536.76407" y="405.0" type="line"/>
      <point x="336.76407" y="405.0" type="line"/>
      <point x="336.76407" y="515.383"/>
      <point x="426.38107" y="605.0"/>
    </contour>
    <contour>
      <point x="336.76407" y="400" type="line"/>
      <point x="336.76407" y="405.0" type="line"/>
      <point x="536.76407" y="405.0" type="line"/>
      <point x="536.76407" y="400" type="line"/>
    </contour>
    <contour>
      <point x="783.63907" y="400.0" type="curve"/>
      <point x="783.63907" y="200.0" type="line"/>
      <point x="583.63907" y="200.0" type="line"/>
      <point x="583.63907" y="310.383"/>
      <point x="673.25607" y="400.0"/>
    </contour>
    <contour>
      <point x="786.76407" y="510.0" type="curve" smooth="yes"/>
      <point x="786.76407" y="454.8085"/>
      <point x="741.9555700000001" y="410.0"/>
      <point x="686.76407" y="410.0" type="curve" smooth="yes"/>
      <point x="631.57257" y="410.0"/>
      <point x="586.76407" y="454.8085"/>
      <point x="586.76407" y="510.0" type="curve" smooth="yes"/>
      <point x="586.76407" y="565.1915"/>
      <point x="631.57257" y="610.0"/>
      <point x="686.76407" y="610.0" type="curve" smooth="yes"/>
      <point x="741.9555700000001" y="610.0"/>
      <point x="786.76407" y="565.1915"/>
    </contour>
    <contour>
      <point x="998.5281399999999" y="405.0" type="curve" smooth="yes"/>
      <point x="998.5281399999999" y="639.15771"/>
      <point x="808.42178" y="829.26407"/>
      <point x="574.26407" y="829.26407" type="curve" smooth="yes"/>
      <point x="340.10636" y="829.26407"/>
      <point x="150.0" y="639.15771"/>
      <point x="150.0" y="405.0" type="curve" smooth="yes"/>
      <point x="150.0" y="170.84229"/>
      <point x="340.10636" y="-19.26407"/>
      <point x="574.26407" y="-19.26407" type="curve" smooth="yes"/>
      <point x="808.42178" y="-19.26407"/>
      <point x="998.5281399999999" y="170.84229"/>
    </contour>
  </outline>
</glyph>
<glyph name="degree" format="2">
  <advance width="360.0"/>
  <unicode hex="00B0"/>
  <outline>
    <contour>
      <point x="155.0" y="805.0" type="line"/>
      <point x="97.04892000000001" y="805.0"/>
      <point x="50.0" y="757.95108"/>
      <point x="50.0" y="700.0" type="curve" smooth="yes"/>
      <point x="50.0" y="642.04892"/>
      <point x="97.04892000000001" y="595.0"/>
      <point x="155.0" y="595.0" type="curve"/>
    </contour>
    <contour>
      <point x="205.0" y="595.0" type="line"/>
      <point x="262.95108" y="595.0"/>
      <point x="310.0" y="642.04892"/>
      <point x="310.0" y="700.0" type="curve" smooth="yes"/>
      <point x="310.0" y="757.95108"/>
      <point x="262.95108" y="805.0"/>
      <point x="205.0" y="805.0" type="curve"/>
    </contour>
  </outline>
</glyph>
<glyph name="plus_minus" format="2">
  <advance width="800.0"/>
  <unicode hex="00B1"/>
  <outline>
    <contour>
      <point x="100.0" y="100.0" type="line"/>
      <point x="300.0" y="100.0" type="line"/>
      <point x="300.0" y="300.0" type="line"/>
      <point x="100.0" y="300.0" type="line"/>
    </contour>
    <contour>
      <point x="100.0" y="400" type="line"/>
      <point x="300.0" y="400" type="line"/>
      <point x="300.0" y="600" type="line"/>
      <point x="100.0" y="600" type="line"/>
    </contour>
    <contour>
      <point x="300.0" y="100.0" type="line"/>
      <point x="500.0" y="100.0" type="line"/>
      <point x="500.0" y="300.0" type="line"/>
      <point x="300.0" y="300.0" type="line"/>
    </contour>
    <contour>
      <point x="300.0" y="300.0" type="line"/>
      <point x="500.0" y="300.0" type="line"/>
      <point x="500.0" y="400.0" type="line"/>
      <point x="300.0" y="400.0" type="line"/>
    </contour>
    <contour>
      <point x="300.0" y="400" type="line"/>
      <point x="500.0" y="400" type="line"/>
      <point x="500.0" y="600" type="line"/>
      <point x="300.0" y="600" type="line"/>
    </contour>
    <contour>
      <point x="300.0" y="600" type="line"/>
      <point x="500.0" y="600" type="line"/>
      <point x="500.0" y="700.0" type="line"/>
      <point x="300.0" y="700.0" type="line"/>
    </contour>
    <contour>
      <point x="500.0" y="100.0" type="line"/>
      <point x="700.0" y="100.0" type="line"/>
      <point x="700.0" y="300.0" type="line"/>
      <point x="500.0" y="300.0" type="line"/>
    </contour>
    <contour>
      <point x="500.0" y="400" type="line"/>
      <point x="700.0" y="400" type="line"/>
      <point x="700.0" y="600" type="line"/>
      <point x="500.0" y="600" type="line"/>
    </contour>
  </outline>
</glyph>
<glyph name="sup_three" format="2">
  <advance width="550.0"/>
  <unicode hex="00B3"/>
  <outline>
    <contour>
      <point x="255.0" y="300.0" type="curve" smooth="yes"/>
      <point x="255.0" y="357.95108"/>
      <point x="207.95108" y="405.0"/>
      <point x="150.0" y="405.0" type="curve" smooth="yes"/>
      <point x="92.04892000000001" y="405.0"/>
      <point x="45.0" y="357.95108"/>
      <point x="45.0" y="300.0" type="curve" smooth="yes"/>
      <point x="45.0" y="242.04892"/>
      <point x="92.04892000000001" y="195.0"/>
      <point x="150.0" y="195.0" type="curve" smooth="yes"/>
      <point x="207.95108" y="195.0"/>
      <point x="255.0" y="242.04892"/>
    </contour>
    <contour>
      <point x="255.0" y="700.0" type="curve" smooth="yes"/>
      <point x="255.0" y="757.95108"/>
      <point x="207.95108" y="805.0"/>
      <point x="150.0" y="805.0" type="curve" smooth="yes"/>
      <point x="92.04892000000001" y="805.0"/>
      <point x="45.0" y="757.95108"/>
      <point x="45.0" y="700.0" type="curve" smooth="yes"/>
      <point x="45.0" y="642.04892"/>
      <point x="92.04892000000001" y="595.0"/>
      <point x="150.0" y="595.0" type="curve" smooth="yes"/>
      <point x="207.95108" y="595.0"/>
      <point x="255.0" y="642.04892"/>
    </contour>
    <contour>
      <point x="300.0" y="195.0" type="line"/>
      <point x="410.383" y="195.0"/>
      <point x="500.0" y="284.617"/>
      <point x="500.0" y="395.0" type="curve"/>
      <point x="300.0" y="395.0" type="line"/>
    </contour>
    <contour>
      <point x="300.0" y="395.0" type="line"/>
      <point x="500.0" y="395.0" type="line"/>
      <point x="500.0" y="400.0" type="line"/>
      <point x="300.0" y="400.0" type="line"/>
    </contour>
    <contour>
      <point x="500.0" y="400" type="line"/>
      <point x="500.0" y="510.383"/>
      <point x="410.383" y="600.0"/>
      <point x="300.0" y="600.0" type="curve"/>
      <point x="300.0" y="400" type="line"/>
    </contour>
    <contour>
      <point x="300.0" y="600.0" type="line"/>
      <point x="410.383" y="600.0"/>
      <point x="500.0" y="689.617"/>
      <point x="500.0" y="800.0" type="curve"/>
      <point x="300.0" y="800.0" type="line"/>
    </contour>
  </outline>
</glyph>
<glyph name="mu" format="2">
  <advance width="600.0"/>
  <unicode hex="00B5"/>
  <outline>
    <contour>
      <point x="50.0" y="-200" type="line"/>
      <point x="250.0" y="-200" type="line"/>
      <point x="250.0" y="0" type="line"/>
      <point x="50.0" y="0" type="line"/>
    </contour>
    <contour>
      <point x="50.0" y="0" type="line"/>
      <point x="250.0" y="0" type="line"/>
      <point x="250.0" y="200" type="line"/>
      <point x="50.0" y="200" type="line"/>
    </contour>
    <contour>
      <point x="50.0" y="200" type="line"/>
      <point x="250.0" y="200" type="line"/>
      <point x="250.0" y="400" type="line"/>
      <point x="50.0" y="400" type="line"/>
    </contour>
    <contour>
      <point x="50.0" y="400" type="line"/>
      <point x="250.0" y="400" type="line"/>
      <point x="250.0" y="600" type="line"/>
      <point x="50.0" y="600" type="line"/>
    </contour>
    <contour>
      <point x="300.0" y="200.0" type="line"/>
      <point x="300.0" y="89.617"/>
      <point x="389.617" y="0.0"/>
      <point x="500.0" y="0.0" type="curve"/>
      <point x="500.0" y="200.0" type="line"/>
    </contour>
    <contour>
      <point x="500.0" y="0" type="line"/>
      <point x="550.0" y="0" type="line"/>
      <point x="550.0" y="200.0" type="line"/>
      <point x="500.0" y="200.0" type="line"/>
    </contour>
    <contour>
      <point x="300.0" y="200" type="line"/>
      <point x="500.0" y="200" type="line"/>
      <point x="500.0" y="400" type="line"/>
      <point x="300.0" y="400" type="line"/>
    </contour>
    <contour>
      <point x="300.0" y="400" type="line"/>
      <point x="500.0" y="400" type="line"/>
      <point x="500.0" y="600" type="line"/>
      <point x="300.0" y="600" type="line"/>
    </contour>
  </outline>
</glyph>
<glyph name="pilcrow" format="2">
  <advance width="550.0"/>
  <unicode hex="00B6"/>
  <outline>
    <contour>
      <point x="50.0" y="600.0" type="line"/>
      <point x="50.0" y="489.617"/>
      <point x="139.61700000000002" y="400.0"/>
      <point x="250.0" y="400.0" type="curve"/>
      <point x="250.0" y="600.0" type="line"/>
    </contour>
    <contour>
      <point x="250.0" y="800.0" type="line"/>
      <point x="139.61700000000002" y="800.0"/>
      <point x="50.0" y="710.383"/>
      <point x="50.0" y="600.0" type="curve"/>
      <point x="250.0" y="600.0" type="line"/>
    </contour>
    <contour>
      <point x="300.0" y="-100.0" type="line"/>
      <point x="500.0" y="-100.0" type="line"/>
      <point x="500.0" y="0.0" type="line"/>
      <point x="300.0" y="0.0" type="line"/>
    </contour>
    <contour>
      <point x="300.0" y="0" type="line"/>
      <point x="500.0" y="0" type="line"/>
      <point x="500.0" y="200" type="line"/>
      <point x="300.0" y="200" type="line"/>
    </contour>
    <contour>
      <point x="300.0" y="200" type="line"/>
      <point x="500.0" y="200" type="line"/>
      <point x="500.0" y="400" type="line"/>
      <point x="300.0" y="400" type="line"/>
    </contour>
    <contour>
      <point x="300.0" y="400" type="line"/>
      <point x="500.0" y="400" type="line"/>
      <point x="500.0" y="600" type="line"/>
      <point x="300.0" y="600" type="line"/>
    </contour>
    <contour>
      <point x="300.0" y="600" type="line"/>
      <point x="500.0" y="600" type="line"/>
      <point x="500.0" y="800" type="line"/>
      <point x="300.0" y="800" type="line"/>
    </contour>
  </outline>
</glyph>
<glyph name="periodcentered" format="2">
  <advance width="300.0"/>
  <unicode hex="00B7"/>
  <outline>
    <contour>
      <point x="255.0" y="400.0" type="curve" smooth="yes"/>
      <point x="255.0" y="457.95108"/>
      <point x="207.95108" y="505.0"/>
      <point x="150.0" y="505.0" type="curve" smooth="yes"/>
      <point x="92.04892000000001" y="505.0"/>
      <point x="45.0" y="457.95108"/>
      <point x="45.0" y="400.0" type="curve" smooth="yes"/>
      <point x="45.0" y="342.04892"/>
      <point x="92.04892000000001" y="295.0"/>
      <point x="150.0" y="295.0" type="curve" smooth="yes"/>
      <point x="207.95108" y="295.0"/>
      <point x="255.0" y="342.04892"/>
    </contour>
  </outline>
</glyph>
<glyph name="cedilla" format="2">
  <advance width="300.0"/>
  <unicode hex="00B8"/>
  <outline>
    <contour>
      <point x="337.5" y="-200" type="line"/>
      <point x="337.5" y="-89.617"/>
      <point x="247.883" y="0.0"/>
      <point x="137.5" y="0.0" type="curve"/>
      <point x="137.5" y="-200" type="line"/>
    </contour>
  </outline>
</glyph>
<glyph name="sup_one" format="2">
  <advance width="300.0"/>
  <unicode hex="00B9"/>
  <outline>
    <contour>
      <point x="50.0" y="200" type="line"/>
      <point x="250.0" y="200" type="line"/>
      <point x="250.0" y="400" type="line"/>
      <point x="50.0" y="400" type="line"/>
    </contour>
    <contour>
      <point x="50.0" y="400" type="line"/>
      <point x="250.0" y="400" type="line"/>
      <point x="250.0" y="600" type="line"/>
      <point x="50.0" y="600" type="line"/>
    </contour>
    <contour>
      <point x="50.0" y="600" type="line"/>
      <point x="250.0" y="600" type="line"/>
      <point x="250.0" y="800" type="line"/>
      <point x="50.0" y="800" type="line"/>
    </contour>
  </outline>
</glyph>
<glyph name="one_over_four" format="2">
  <advance width="1050.0"/>
  <unicode hex="00BC"/>
  <outline>
    <contour>
      <point x="25.0" y="200" type="line"/>
      <point x="225.0" y="200" type="line"/>
      <point x="225.0" y="400" type="line"/>
      <point x="25.0" y="400" type="line"/>
    </contour>
    <contour>
      <point x="25.0" y="400" type="line"/>
      <point x="225.0" y="400" type="line"/>
      <point x="225.0" y="600" type="line"/>
      <point x="25.0" y="600" type="line"/>
    </contour>
    <contour>
      <point x="25.0" y="600" type="line"/>
      <point x="225.0" y="600" type="line"/>
      <point x="225.0" y="800" type="line"/>
      <point x="25.0" y="800" type="line"/>
    </contour>
    <contour>
      <point x="300.0" y="-200.0" type="line"/>
      <point x="410.383" y="-200.0"/>
      <point x="500.0" y="-110.383"/>
      <point x="500.0" y="0.0" type="curve"/>
      <point x="300.0" y="0.0" type="line"/>
    </contour>
    <contour>
      <point x="300.0" y="0" type="line"/>
      <point x="500.0" y="0" type="line"/>
      <point x="500.0" y="200" type="line"/>
      <point x="300.0" y="200" type="line"/>
    </contour>
    <contour>
      <point x="300.0" y="200" type="line"/>
      <point x="500.0" y="200" type="line"/>
      <point x="500.0" y="400" type="line"/>
      <point x="300.0" y="400" type="line"/>
    </contour>
    <contour>
      <point x="300.0" y="400" type="line"/>
      <point x="500.0" y="400" type="line"/>
      <point x="500.0" y="600" type="line"/>
      <point x="300.0" y="600" type="line"/>
    </contour>
    <contour>
      <point x="500.0" y="800.0" type="line"/>
      <point x="389.617" y="800.0"/>
      <point x="300.0" y="710.383"/>
      <point x="300.0" y="600.0" type="curve"/>
      <point x="500.0" y="600.0" type="line"/>
    </contour>
    <contour>
      <point x="575.0" y="0.0" type="line"/>
      <point x="685.383" y="0.0"/>
      <point x="775.0" y="89.617"/>
      <point x="775.0" y="200.0" type="curve"/>
      <point x="575.0" y="200.0" type="line"/>
    </contour>
    <contour>
      <point x="575.0" y="200" type="line"/>
      <point x="775.0" y="200" type="line"/>
      <point x="775.0" y="400" type="line"/>
      <point x="575.0" y="400" type="line"/>
    </contour>
    <contour>
      <point x="825.0" y="-200" type="line"/>
      <point x="1025.0" y="-200" type="line"/>
      <point x="1025.0" y="0" type="line"/>
      <point x="825.0" y="0" type="line"/>
    </contour>
    <contour>
      <point x="825.0" y="0" type="line"/>
      <point x="1025.0" y="0" type="line"/>
      <point x="1025.0" y="200" type="line"/>
      <point x="825.0" y="200" type="line"/>
    </contour>
  </outline>
</glyph>
<glyph name="one_over_two" format="2">
  <advance width="1050.0"/>
  <unicode hex="00BD"/>
  <outline>
    <contour>
      <point x="25.0" y="200" type="line"/>
      <point x="225.0" y="200" type="line"/>
      <point x="225.0" y="400" type="line"/>
      <point x="25.0" y="400" type="line"/>
    </contour>
    <contour>
      <point x="25.0" y="400" type="line"/>
      <point x="225.0" y="400" type="line"/>
      <point x="225.0" y="600" type="line"/>
      <point x="25.0" y="600" type="line"/>
    </contour>
    <contour>
      <point x="25.0" y="600" type="line"/>
      <point x="225.0" y="600" type="line"/>
      <point x="225.0" y="800" type="line"/>
      <point x="25.0" y="800" type="line"/>
    </contour>
    <contour>
      <point x="300.0" y="-200.0" type="line"/>
      <point x="410.383" y="-200.0"/>
      <point x="500.0" y="-110.383"/>
      <point x="500.0" y="0.0" type="curve"/>
      <point x="300.0" y="0.0" type="line"/>
    </contour>
    <contour>
      <point x="300.0" y="0" type="line"/>
      <point x="500.0" y="0" type="line"/>
      <point x="500.0" y="200" type="line"/>
      <point x="300.0" y="200" type="line"/>
    </contour>
    <contour>
      <point x="300.0" y="200" type="line"/>
      <point x="500.0" y="200" type="line"/>
      <point x="500.0" y="400" type="line"/>
      <point x="300.0" y="400" type="line"/>
    </contour>
    <contour>
      <point x="300.0" y="400" type="line"/>
      <point x="500.0" y="400" type="line"/>
      <point x="500.0" y="600" type="line"/>
      <point x="300.0" y="600" type="line"/>
    </contour>
    <contour>
      <point x="500.0" y="800.0" type="line"/>
      <point x="389.617" y="800.0"/>
      <point x="300.0" y="710.383"/>
      <point x="300.0" y="600.0" type="curve"/>
      <point x="500.0" y="600.0" type="line"/>
    </contour>
    <contour>
      <point x="775.0" y="0.0" type="line"/>
      <point x="664.617" y="0.0"/>
      <point x="575.0" y="-89.617"/>
      <point x="575.0" y="-200.0" type="curve"/>
      <point x="775.0" y="-200.0" type="line"/>
    </contour>
    <contour>
      <point x="775.0" y="-200" type="line"/>
      <point x="825.0" y="-200" type="line"/>
      <point x="825.0" y="0.0" type="line"/>
      <point x="775.0" y="0.0" type="line"/>
    </contour>
    <contour>
      <point x="786.25" y="300.0" type="curve" smooth="yes"/>
      <point x="786.25" y="357.95108"/>
      <point x="739.20108" y="405.0"/>
      <point x="681.25" y="405.0" type="curve" smooth="yes"/>
      <point x="623.29892" y="405.0"/>
      <point x="576.25" y="357.95108"/>
      <point x="576.25" y="300.0" type="curve" smooth="yes"/>
      <point x="576.25" y="242.04892"/>
      <point x="623.29892" y="195.0"/>
      <point x="681.25" y="195.0" type="curve" smooth="yes"/>
      <point x="739.20108" y="195.0"/>
      <point x="786.25" y="242.04892"/>
    </contour>
    <contour>
      <point x="825.0" y="-200" type="line"/>
      <point x="1025.0" y="-200" type="line"/>
      <point x="1025.0" y="0" type="line"/>
      <point x="825.0" y="0" type="line"/>
    </contour>
    <contour>
      <point x="825.0" y="5.0" type="line"/>
      <point x="935.383" y="5.0"/>
      <point x="1025.0" y="94.617"/>
      <point x="1025.0" y="205.0" type="curve"/>
      <point x="825.0" y="205.0" type="line"/>
    </contour>
    <contour>
      <point x="1025.0" y="205.0" type="line"/>
      <point x="1025.0" y="315.383"/>
      <point x="935.383" y="405.0"/>
      <point x="825.0" y="405.0" type="curve"/>
      <point x="825.0" y="205.0" type="line"/>
    </contour>
  </outline>
</glyph>
<glyph name="invquestion" format="2">
  <advance width="550.0"/>
  <unicode hex="00BF"/>
  <outline>
    <contour>
      <point x="50.0" y="-5.0" type="line"/>
      <point x="50.0" y="-115.383"/>
      <point x="139.61700000000002" y="-205.0"/>
      <point x="250.0" y="-205.0" type="curve"/>
      <point x="250.0" y="-5.0" type="line"/>
    </contour>
    <contour>
      <point x="250.0" y="195.0" type="line"/>
      <point x="139.61700000000002" y="195.0"/>
      <point x="50.0" y="105.383"/>
      <point x="50.0" y="-5.0" type="curve"/>
      <point x="250.0" y="-5.0" type="line"/>
    </contour>
    <contour>
      <point x="505.0" y="-112.5" type="curve" smooth="yes"/>
      <point x="505.0" y="-54.54892"/>
      <point x="457.95108" y="-7.5"/>
      <point x="400.0" y="-7.5" type="curve" smooth="yes"/>
      <point x="342.04892" y="-7.5"/>
      <point x="295.0" y="-54.54892"/>
      <point x="295.0" y="-112.5" type="curve" smooth="yes"/>
      <point x="295.0" y="-170.45108"/>
      <point x="342.04892" y="-217.5"/>
      <point x="400.0" y="-217.5" type="curve" smooth="yes"/>
      <point x="457.95108" y="-217.5"/>
      <point x="505.0" y="-170.45108"/>
    </contour>
    <contour>
      <point x="300.0" y="0.0" type="line"/>
      <point x="410.383" y="0.0"/>
      <point x="500.0" y="89.617"/>
      <point x="500.0" y="200.0" type="curve"/>
      <point x="300.0" y="200.0" type="line"/>
    </contour>
    <contour>
      <point x="300.0" y="200" type="line"/>
      <point x="500.0" y="200" type="line"/>
      <point x="500.0" y="387.5" type="line"/>
      <point x="300.0" y="387.5" type="line"/>
    </contour>
    <contour>
      <point x="505.0" y="506.25" type="curve" smooth="yes"/>
      <point x="505.0" y="564.20108"/>
      <point x="457.95108" y="611.25"/>
      <point x="400.0" y="611.25" type="curve" smooth="yes"/>
      <point x="342.04892" y="611.25"/>
      <point x="295.0" y="564.20108"/>
      <point x="295.0" y="506.25" type="curve" smooth="yes"/>
      <point x="295.0" y="448.29892"/>
      <point x="342.04892" y="401.25"/>
      <point x="400.0" y="401.25" type="curve" smooth="yes"/>
      <point x="457.95108" y="401.25"/>
      <point x="505.0" y="448.29892"/>
    </contour>
  </outline>
</glyph>
<glyph name="A_with_ring" format="2">
  <advance width="550.0"/>
  <unicode hex="00C5"/>
  <outline>
    <contour>
      <point x="50.0" y="0" type="line"/>
      <point x="250.0" y="0" type="line"/>
      <point x="250.0" y="200" type="line"/>
      <point x="50.0" y="200" type="line"/>
    </contour>
    <contour>
      <point x="50.0" y="200" type="line"/>
      <point x="250.0" y="200" type="line"/>
      <point x="250.0" y="400" type="line"/>
      <point x="50.0" y="400" type="line"/>
    </contour>
    <contour>
      <point x="50.0" y="400" type="line"/>
      <point x="250.0" y="400" type="line"/>
      <point x="250.0" y="605.0" type="line"/>
      <point x="50.0" y="605.0" type="line"/>
    </contour>
    <contour>
      <point x="250.0" y="805.0" type="line"/>
      <point x="139.61700000000002" y="805.0"/>
      <point x="50.0" y="715.383"/>
      <point x="50.0" y="605.0" type="curve"/>
      <point x="250.0" y="605.0" type="line"/>
    </contour>
    <contour>
      <point x="300.0" y="0" type="line"/>
      <point x="500.0" y="0" type="line"/>
      <point x="500.0" y="200" type="line"/>
      <point x="300.0" y="200" type="line"/>
    </contour>
    <contour>
      <point x="300.0" y="200" type="line"/>
      <point x="500.0" y="200" type="line"/>
      <point x="500.0" y="400" type="line"/>
      <point x="300.0" y="400" type="line"/>
    </contour>
    <contour>
      <point x="300.0" y="400" type="line"/>
      <point x="500.0" y="400" type="line"/>
      <point x="500.0" y="605.0" type="line"/>
      <point x="300.0" y="605.0" type="line"/>
    </contour>
    <contour>
      <point x="500.0" y="605.0" type="line"/>
      <point x="500.0" y="715.383"/>
      <point x="410.383" y="805.0"/>
      <point x="300.0" y="805.0" type="curve"/>
      <point x="300.0" y="605.0" type="line"/>
    </contour>
    <contour>
      <point x="250.0" y="1038.3333333333335" type="line"/>
      <point x="192.04892" y="1038.3333333333335"/>
      <point x="145.0" y="991.2844133333333"/>
      <point x="145.0" y="933.3333333333334" type="curve" smooth="yes"/>
      <point x="145.0" y="875.3822533333333"/>
      <point x="192.04892" y="828.3333333333334"/>
      <point x="250.0" y="828.3333333333334" type="curve"/>
    </contour>
    <contour>
      <point x="300.0" y="828.3333333333334" type="line"/>
      <point x="357.95108" y="828.3333333333334"/>
      <point x="405.0" y="875.3822533333333"/>
      <point x="405.0" y="933.3333333333334" type="curve" smooth="yes"/>
      <point x="405.0" y="991.2844133333333"/>
      <point x="357.95108" y="1038.3333333333335"/>
      <point x="300.0" y="1038.3333333333335" type="curve"/>
    </contour>
  </outline>
</glyph>
<glyph name="E_with_diaeresis" format="2">
  <advance width="550.0"/>
  <unicode hex="00CB"/>
  <outline>
    <contour>
      <point x="50.0" y="0" type="line"/>
      <point x="250.0" y="0" type="line"/>
      <point x="250.0" y="200" type="line"/>
      <point x="50.0" y="200" type="line"/>
    </contour>
    <contour>
      <point x="50.0" y="200" type="line"/>
      <point x="250.0" y="200" type="line"/>
      <point x="250.0" y="400" type="line"/>
      <point x="50.0" y="400" type="line"/>
    </contour>
    <contour>
      <point x="50.0" y="400" type="line"/>
      <point x="250.0" y="400" type="line"/>
      <point x="250.0" y="600" type="line"/>
      <point x="50.0" y="600" type="line"/>
    </contour>
    <contour>
      <point x="50.0" y="600" type="line"/>
      <point x="250.0" y="600" type="line"/>
      <point x="250.0" y="800" type="line"/>
      <point x="50.0" y="800" type="line"/>
    </contour>
    <contour>
      <point x="500.0" y="200.0" type="line"/>
      <point x="389.617" y="200.0"/>
      <point x="300.0" y="110.383"/>
      <point x="300.0" y="0.0" type="curve"/>
      <point x="500.0" y="0.0" type="line"/>
    </contour>
    <contour>
      <point x="300.0" y="500.0" type="line"/>
      <point x="300.0" y="389.617"/>
      <point x="389.617" y="300.0"/>
      <point x="500.0" y="300.0" type="curve"/>
      <point x="500.0" y="500.0" type="line"/>
    </contour>
    <contour>
      <point x="300.0" y="800.0" type="line"/>
      <point x="300.0" y="689.617"/>
      <point x="389.617" y="600.0"/>
      <point x="500.0" y="600.0" type="curve"/>
      <point x="500.0" y="800.0" type="line"/>
    </contour>
    <contour>
      <point x="255.0" y="933.3333333333334" type="curve" smooth="yes"/>
      <point x="255.0" y="991.2844133333333"/>
      <point x="207.95108" y="1038.3333333333335"/>
      <point x="150.0" y="1038.3333333333335" type="curve" smooth="yes"/>
      <point x="92.04892000000001" y="1038.3333333333335"/>
      <point x="45.0" y="991.2844133333333"/>
      <point x="45.0" y="933.3333333333334" type="curve" smooth="yes"/>
      <point x="45.0" y="875.3822533333333"/>
      <point x="92.04892000000001" y="828.3333333333334"/>
      <point x="150.0" y="828.3333333333334" type="curve" smooth="yes"/>
      <point x="207.95108" y="828.3333333333334"/>
      <point x="255.0" y="875.3822533333333"/>
    </contour>
    <contour>
      <point x="505.0" y="933.3333333333334" type="curve" smooth="yes"/>
      <point x="505.0" y="991.2844133333333"/>
      <point x="457.95108" y="1038.3333333333335"/>
      <point x="400.0" y="1038.3333333333335" type="curve" smooth="yes"/>
      <point x="342.04892" y="1038.3333333333335"/>
      <point x="295.0" y="991.2844133333333"/>
      <point x="295.0" y="933.3333333333334" type="curve" smooth="yes"/>
      <point x="295.0" y="875.3822533333333"/>
      <point x="342.04892" y="828.3333333333334"/>
      <point x="400.0" y="828.3333333333334" type="curve" smooth="yes"/>
      <point x="457.95108" y="828.3333333333334"/>
      <point x="505.0" y="875.3822533333333"/>
    </contour>
  </outline>
</glyph>
<glyph name="I_with_grave" format="2">
  <advance width="300.0"/>
  <unicode hex="00CC"/>
  <outline>
    <contour>
      <point x="50.0" y="0" type="line"/>
      <point x="250.0" y="0" type="line"/>
      <point x="250.0" y="200" type="line"/>
      <point x="50.0" y="200" type="line"/>
    </contour>
    <contour>
      <point x="50.0" y="200" type="line"/>
      <point x="250.0" y="200" type="line"/>
      <point x="250.0" y="400" type="line"/>
      <point x="50.0" y="400" type="line"/>
    </contour>
    <contour>
      <point x="50.0" y="400" type="line"/>
      <point x="250.0" y="400" type="line"/>
      <point x="250.0" y="600" type="line"/>
      <point x="50.0" y="600" type="line"/>
    </contour>
    <contour>
      <point x="50.0" y="600" type="line"/>
      <point x="250.0" y="600" type="line"/>
      <point x="250.0" y="800" type="line"/>
      <point x="50.0" y="800" type="line"/>
    </contour>
    <contour>
      <point x="-37.5" y="1033.3333333333335" type="line"/>
      <point x="-37.5" y="922.9503333333333"/>
      <point x="52.117" y="833.3333333333334"/>
      <point x="162.5" y="833.3333333333334" type="curve"/>
      <point x="162.5" y="1033.3333333333335" type="line"/>
    </contour>
  </outline>
</glyph>
<glyph name="I_with_circumflex" format="2">
  <advance width="300.0"/>
  <unicode hex="00CE"/>
  <outline>
    <contour>
      <point x="50.0" y="0" type="line"/>
      <point x="250.0" y="0" type="line"/>
      <point x="250.0" y="200" type="line"/>
      <point x="50.0" y="200" type="line"/>
    </contour>
    <contour>
      <point x="50.0" y="200" type="line"/>
      <point x="250.0" y="200" type="line"/>
      <point x="250.0" y="400" type="line"/>
      <point x="50.0" y="400" type="line"/>
    </contour>
    <contour>
      <point x="50.0" y="400" type="line"/>
      <point x="250.0" y="400" type="line"/>
      <point x="250.0" y="600" type="line"/>
      <point x="50.0" y="600" type="line"/>
    </contour>
    <contour>
      <point x="50.0" y="600" type="line"/>
      <point x="250.0" y="600" type="line"/>
      <point x="250.0" y="800" type="line"/>
      <point x="50.0" y="800" type="line"/>
    </contour>
    <contour>
      <point x="-56.25" y="833.3333333333334" type="line"/>
      <point x="54.13300000000001" y="833.3333333333334"/>
      <point x="143.75" y="922.9503333333333"/>
      <point x="143.75" y="1033.3333333333335" type="curve"/>
      <point x="-56.25" y="1033.3333333333335" type="line"/>
    </contour>
    <contour>
      <point x="156.25" y="1033.3333333333335" type="line"/>
      <point x="156.25" y="922.9503333333333"/>
      <point x="245.86700000000002" y="833.3333333333334"/>
      <point x="356.25" y="833.3333333333334" type="curve"/>
      <point x="356.25" y="1033.3333333333335" type="line"/>
    </contour>
  </outline>
</glyph>
<glyph name="I_with_diaeresis" format="2">
  <advance width="300.0"/>
  <unicode hex="00CF"/>
  <outline>
    <contour>
      <point x="50.0" y="0" type="line"/>
      <point x="250.0" y="0" type="line"/>
      <point x="250.0" y="200" type="line"/>
      <point x="50.0" y="200" type="line"/>
    </contour>
    <contour>
      <point x="50.0" y="200" type="line"/>
      <point x="250.0" y="200" type="line"/>
      <point x="250.0" y="400" type="line"/>
      <point x="50.0" y="400" type="line"/>
    </contour>
    <contour>
      <point x="50.0" y="400" type="line"/>
      <point x="250.0" y="400" type="line"/>
      <point x="250.0" y="600" type="line"/>
      <point x="50.0" y="600" type="line"/>
    </contour>
    <contour>
      <point x="50.0" y="600" type="line"/>
      <point x="250.0" y="600" type="line"/>
      <point x="250.0" y="800" type="line"/>
      <point x="50.0" y="800" type="line"/>
    </contour>
    <contour>
      <point x="130.0" y="933.3333333333334" type="curve" smooth="yes"/>
      <point x="130.0" y="991.2844133333333"/>
      <point x="82.95107999999999" y="1038.3333333333335"/>
      <point x="25.0" y="1038.3333333333335" type="curve" smooth="yes"/>
      <point x="-32.95108" y="1038.3333333333335"/>
      <point x="-80.0" y="991.2844133333333"/>
      <point x="-80.0" y="933.3333333333334" type="curve" smooth="yes"/>
      <point x="-80.0" y="875.3822533333333"/>
      <point x="-32.95108" y="828.3333333333334"/>
      <point x="25.0" y="828.3333333333334" type="curve" smooth="yes"/>
      <point x="82.95107999999999" y="828.3333333333334"/>
      <point x="130.0" y="875.3822533333333"/>
    </contour>
    <contour>
      <point x="380.0" y="933.3333333333334" type="curve" smooth="yes"/>
      <point x="380.0" y="991.2844133333333"/>
      <point x="332.95108" y="1038.3333333333335"/>
      <point x="275.0" y="1038.3333333333335" type="curve" smooth="yes"/>
      <point x="217.04892" y="1038.3333333333335"/>
      <point x="170.0" y="991.2844133333333"/>
      <point x="170.0" y="933.3333333333334" type="curve" smooth="yes"/>
      <point x="170.0" y="875.3822533333333"/>
      <point x="217.04892" y="828.3333333333334"/>
      <point x="275.0" y="828.3333333333334" type="curve" smooth="yes"/>
      <point x="332.95108" y="828.3333333333334"/>
      <point x="380.0" y="875.3822533333333"/>
    </contour>
  </outline>
</glyph>
<glyph name="ETH" format="2">
  <advance width="800.0"/>
  <unicode hex="00D0"/>
  <outline>
    <contour>
      <point x="375.0" y="500.0" type="line"/>
      <point x="264.61699999999996" y="500.0"/>
      <point x="175.0" y="410.383"/>
      <point x="175.0" y="300.0" type="curve"/>
      <point x="375.0" y="300.0" type="line"/>
    </contour>
    <contour>
      <point x="300.0" y="0" type="line"/>
      <point x="500.0" y="0" type="line"/>
      <point x="500.0" y="200" type="line"/>
      <point x="300.0" y="200" type="line"/>
    </contour>
    <contour>
      <point x="300.0" y="200" type="line"/>
      <point x="500.0" y="200" type="line"/>
      <point x="500.0" y="400" type="line"/>
      <point x="300.0" y="400" type="line"/>
    </contour>
    <contour>
      <point x="300.0" y="400" type="line"/>
      <point x="500.0" y="400" type="line"/>
      <point x="500.0" y="600" type="line"/>
      <point x="300.0" y="600" type="line"/>
    </contour>
    <contour>
      <point x="300.0" y="600" type="line"/>
      <point x="500.0" y="600" type="line"/>
      <point x="500.0" y="800" type="line"/>
      <point x="300.0" y="800" type="line"/>
    </contour>
    <contour>
      <point x="550.0" y="0.0" type="line"/>
      <point x="660.383" y="0.0"/>
      <point x="750.0" y="89.617"/>
      <point x="750.0" y="200.0" type="curve"/>
      <point x="550.0" y="200.0" type="line"/>
    </contour>
    <contour>
      <point x="550.0" y="200" type="line"/>
      <point x="750.0" y="200" type="line"/>
      <point x="750.0" y="400" type="line"/>
      <point x="550.0" y="400" type="line"/>
    </contour>
    <contour>
      <point x="550.0" y="400" type="line"/>
      <point x="750.0" y="400" type="line"/>
      <point x="750.0" y="600" type="line"/>
      <point x="550.0" y="600" type="line"/>
    </contour>
    <contour>
      <point x="750.0" y="600" type="line"/>
      <point x="750.0" y="710.383"/>
      <point x="660.383" y="800.0"/>
      <point x="550.0" y="800.0" type="curve"/>
      <point x="550.0" y="600" type="line"/>
    </contour>
  </outline>
</glyph>
<glyph name="O_with_circumflex" format="2">
  <advance width="550.0"/>
  <unicode hex="00D4"/>
  <outline>
    <contour>
      <point x="50.0" y="195.0" type="line"/>
      <point x="50.0" y="84.617"/>
      <point x="139.61700000000002" y="-5.0"/>
      <point x="250.0" y="-5.0" type="curve"/>
      <point x="250.0" y="195.0" type="line"/>
    </contour>
    <contour>
      <point x="50.0" y="195.0" type="line"/>
      <point x="250.0" y="195.0" type="line"/>
      <point x="250.0" y="400.0" type="line"/>
      <point x="50.0" y="400.0" type="line"/>
    </contour>
    <contour>
      <point x="50.0" y="400" type="line"/>
      <point x="250.0" y="400" type="line"/>
      <point x="250.0" y="605.0" type="line"/>
      <point x="50.0" y="605.0" type="line"/>
    </contour>
    <contour>
      <point x="250.0" y="805.0" type="line"/>
      <point x="139.61700000000002" y="805.0"/>
      <point x="50.0" y="715.383"/>
      <point x="50.0" y="605.0" type="curve"/>
      <point x="250.0" y="605.0" type="line"/>
    </contour>
    <contour>
      <point x="300.0" y="-5.0" type="line"/>
      <point x="410.383" y="-5.0"/>
      <point x="500.0" y="84.617"/>
      <point x="500.0" y="195.0" type="curve"/>
      <point x="300.0" y="195.0" type="line"/>
    </contour>
    <contour>
      <point x="300.0" y="195.0" type="line"/>
      <point x="500.0" y="195.0" type="line"/>
      <point x="500.0" y="400.0" type="line"/>
      <point x="300.0" y="400.0" type="line"/>
    </contour>
    <contour>
      <point x="300.0" y="400" type="line"/>
      <point x="500.0" y="400" type="line"/>
      <point x="500.0" y="605.0" type="line"/>
      <point x="300.0" y="605.0" type="line"/>
    </contour>
    <contour>
      <point x="500.0" y="605.0" type="line"/>
      <point x="500.0" y="715.383"/>
      <point x="410.383" y="805.0"/>
      <point x="300.0" y="805.0" type="curve"/>
      <point x="300.0" y="605.0" type="line"/>
    </contour>
    <contour>
      <point x="68.75" y="833.3333333333334" type="line"/>
      <point x="179.133" y="833.3333333333334"/>
      <point x="268.75" y="922.9503333333333"/>
      <point x="268.75" y="1033.3333333333335" type="curve"/>
      <point x="68.75" y="1033.3333333333335" type="line"/>
    </contour>
    <contour>
      <point x="281.25" y="1033.3333333333335" type="line"/>
      <point x="281.25" y="922.9503333333333"/>
      <point x="370.867" y="833.3333333333334"/>
      <point x="481.25" y="833.3333333333334" type="curve"/>
      <point x="481.25" y="1033.3333333333335" type="line"/>
    </contour>
  </outline>
</glyph>
<glyph name="multiply" format="2">
  <advance width="550.0"/>
  <unicode hex="00D7"/>
  <outline>
    <contour>
      <point x="250.0" y="400.0" type="line"/>
      <point x="139.61700000000002" y="400.0"/>
      <point x="50.0" y="310.383"/>
      <point x="50.0" y="200.0" type="curve"/>
      <point x="250.0" y="200.0" type="line"/>
    </contour>
    <contour>
      <point x="50.0" y="600.0" type="line"/>
      <point x="50.0" y="489.617"/>
      <point x="139.61700000000002" y="400.0"/>
      <point x="250.0" y="400.0" type="curve"/>
      <point x="250.0" y="600.0" type="line"/>
    </contour>
    <contour>
      <point x="500.0" y="200" type="line"/>
      <point x="500.0" y="310.383"/>
      <point x="410.383" y="400.0"/>
      <point x="300.0" y="400.0" type="curve"/>
      <point x="300.0" y="200" type="line"/>
    </contour>
    <contour>
      <point x="300.0" y="400.0" type="line"/>
      <point x="410.383" y="400.0"/>
      <point x="500.0" y="489.617"/>
      <point x="500.0" y="600.0" type="curve"/>
      <point x="300.0" y="600.0" type="line"/>
    </contour>
  </outline>
</glyph>
<glyph name="O_with_stroke" format="2">
  <advance width="550.0"/>
  <unicode hex="00D8"/>
  <outline>
    <contour>
      <point x="50.0" y="195.0" type="line"/>
      <point x="50.0" y="84.617"/>
      <point x="139.61700000000002" y="-5.0"/>
      <point x="250.0" y="-5.0" type="curve"/>
      <point x="250.0" y="195.0" type="line"/>
    </contour>
    <contour>
      <point x="50.0" y="195.0" type="line"/>
      <point x="250.0" y="195.0" type="line"/>
      <point x="250.0" y="400.0" type="line"/>
      <point x="50.0" y="400.0" type="line"/>
    </contour>
    <contour>
      <point x="50.0" y="400" type="line"/>
      <point x="250.0" y="400" type="line"/>
      <point x="250.0" y="605.0" type="line"/>
      <point x="50.0" y="605.0" type="line"/>
    </contour>
    <contour>
      <point x="250.0" y="805.0" type="line"/>
      <point x="139.61700000000002" y="805.0"/>
      <point x="50.0" y="715.383"/>
      <point x="50.0" y="605.0" type="curve"/>
      <point x="250.0" y="605.0" type="line"/>
    </contour>
    <contour>
      <point x="200.0" y="100.0" type="line"/>
      <point x="89.61699999999999" y="100.0"/>
      <point x="0.0" y="10.383"/>
      <point x="0.0" y="-100.0" type="curve"/>
      <point x="200.0" y="-100.0" type="line"/>
    </contour>
    <contour>
      <point x="300.0" y="-5.0" type="line"/>
      <point x="410.383" y="-5.0"/>
      <point x="500.0" y="84.617"/>
      <point x="500.0" y="195.0" type="curve"/>
      <point x="300.0" y="195.0" type="line"/>
    </contour>
    <contour>
      <point x="300.0" y="195.0" type="line"/>
      <point x="500.0" y="195.0" type="line"/>
      <point x="500.0" y="400.0" type="line"/>
      <point x="300.0" y="400.0" type="line"/>
    </contour>
    <contour>
      <point x="300.0" y="400" type="line"/>
      <point x="500.0" y="400" type="line"/>
      <point x="500.0" y="605.0" type="line"/>
      <point x="300.0" y="605.0" type="line"/>
    </contour>
    <contour>
      <point x="500.0" y="605.0" type="line"/>
      <point x="500.0" y="715.383"/>
      <point x="410.383" y="805.0"/>
      <point x="300.0" y="805.0" type="curve"/>
      <point x="300.0" y="605.0" type="line"/>
    </contour>
    <contour>
      <point x="350.0" y="700.0" type="line"/>
      <point x="460.383" y="700.0"/>
      <point x="550.0" y="789.617"/>
      <point x="550.0" y="900.0" type="curve"/>
      <point x="350.0" y="900.0" type="line"/>
    </contour>
  </outline>
</glyph>
<glyph name="THORN" format="2">
  <advance width="550.0"/>
  <unicode hex="00DE"/>
  <outline>
    <contour>
      <point x="50.0" y="0" type="line"/>
      <point x="250.0" y="0" type="line"/>
      <point x="250.0" y="200" type="line"/>
      <point x="50.0" y="200" type="line"/>
    </contour>
    <contour>
      <point x="50.0" y="200" type="line"/>
      <point x="250.0" y="200" type="line"/>
      <point x="250.0" y="400" type="line"/>
      <point x="50.0" y="400" type="line"/>
    </contour>
    <contour>
      <point x="50.0" y="400" type="line"/>
      <point x="250.0" y="400" type="line"/>
      <point x="250.0" y="600" type="line"/>
      <point x="50.0" y="600" type="line"/>
    </contour>
    <contour>
      <point x="50.0" y="600" type="line"/>
      <point x="250.0" y="600" type="line"/>
      <point x="250.0" y="800" type="line"/>
      <point x="50.0" y="800" type="line"/>
    </contour>
    <contour>
      <point x="300.0" y="100.0" type="line"/>
      <point x="410.383" y="100.0"/>
      <point x="500.0" y="189.617"/>
      <point x="500.0" y="300.0" type="curve"/>
      <point x="300.0" y="300.0" type="line"/>
    </contour>
    <contour>
      <point x="300.0" y="300.0" type="line"/>
      <point x="500.0" y="300.0" type="line"/>
      <point x="500.0" y="500.0" type="line"/>
      <point x="300.0" y="500.0" type="line"/>
    </contour>
    <contour>
      <point x="500.0" y="500.0" type="line"/>
      <point x="500.0" y="610.383"/>
      <point x="410.383" y="700.0"/>
      <point x="300.0" y="700.0" type="curve"/>
      <point x="300.0" y="500.0" type="line"/>
    </contour>
  </outline>
</glyph>
<glyph name="eszett" format="2">
  <advance width="550.0"/>
  <unicode hex="00DF"/>
  <outline>
    <contour>
      <point x="50.0" y="0" type="line"/>
      <point x="250.0" y="0" type="line"/>
      <point x="250.0" y="200" type="line"/>
      <point x="50.0" y="200" type="line"/>
    </contour>
    <contour>
      <point x="50.0" y="200" type="line"/>
      <point x="250.0" y="200" type="line"/>
      <point x="250.0" y="400" type="line"/>
      <point x="50.0" y="400" type="line"/>
    </contour>
    <contour>
      <point x="50.0" y="400" type="line"/>
      <point x="250.0" y="400" type="line"/>
      <point x="250.0" y="600" type="line"/>
      <point x="50.0" y="600" type="line"/>
    </contour>
    <contour>
      <point x="250.0" y="800.0" type="line"/>
      <point x="139.61700000000002" y="800.0"/>
      <point x="50.0" y="710.383"/>
      <point x="50.0" y="600.0" type="curve"/>
      <point x="250.0" y="600.0" type="line"/>
    </contour>
    <contour>
      <point x="300.0" y="0.0" type="line"/>
      <point x="410.383" y="0.0"/>
      <point x="500.0" y="89.617"/>
      <point x="500.0" y="200.0" type="curve"/>
      <point x="300.0" y="200.0" type="line"/>
    </contour>
    <contour>
      <point x="500.0" y="200" type="line"/>
      <point x="500.0" y="310.383"/>
      <point x="410.383" y="400.0"/>
      <point x="300.0" y="400.0" type="curve"/>
      <point x="300.0" y="200" type="line"/>
    </contour>
    <contour>
      <point x="300.0" y="400.0" type="line"/>
      <point x="410.383" y="400.0"/>
      <point x="500.0" y="489.617"/>
      <point x="500.0" y="600.0" type="curve"/>
      <point x="300.0" y="600.0" type="line"/>
    </contour>
    <contour>
      <point x="500.0" y="600" type="line"/>
      <point x="500.0" y="710.383"/>
      <point x="410.383" y="800.0"/>
      <point x="300.0" y="800.0" type="curve"/>
      <point x="300.0" y="600" type="line"/>
    </contour>
  </outline>
</glyph>
<glyph name="a_with_acute" format="2">
  <advance width="550.0"/>
  <unicode hex="00E1"/>
  <outline>
    <contour>
      <point x="50.0" y="200.0" type="line"/>
      <point x="50.0" y="89.617"/>
      <point x="139.61700000000002" y="0.0"/>
      <point x="250.0" y="0.0" type="curve"/>
      <point x="250.0" y="200.0" type="line"/>
    </contour>
    <contour>
      <point x="250.0" y="400.0" type="line"/>
      <point x="139.61700000000002" y="400.0"/>
      <point x="50.0" y="310.383"/>
      <point x="50.0" y="200.0" type="curve"/>
      <point x="250.0" y="200.0" type="line"/>
    </contour>
    <contour>
      <point x="253.125" y="505.0" type="curve" smooth="yes"/>
      <point x="253.125" y="560.1915"/>
      <point x="208.3165" y="605.0"/>
      <point x="153.125" y="605.0" type="curve" smooth="yes"/>
      <point x="97.93350000000001" y="605.0"/>
      <point x="53.125" y="560.1915"/>
      <point x="53.125" y="505.0" type="curve" smooth="yes"/>
      <point x="53.125" y="449.8085"/>
      <point x="97.93350000000001" y="405.0"/>
      <point x="153.125" y="405.0" type="curve" smooth="yes"/>
      <point x="208.3165" y="405.0"/>
      <point x="253.125" y="449.8085"/>
    </contour>
    <contour>
      <point x="300.0" y="195.0" type="line"/>
      <point x="300.0" y="84.617"/>
      <point x="389.617" y="-5.0"/>
      <point x="500.0" y="-5.0" type="curve"/>
      <point x="500.0" y="195.0" type="line"/>
    </contour>
    <contour>
      <point x="300.0" y="195.0" type="line"/>
      <point x="500.0" y="195.0" type="line"/>
      <point x="500.0" y="200.0" type="line"/>
      <point x="300.0" y="200.0" type="line"/>
    </contour>
    <contour>
      <point x="300.0" y="200" type="line"/>
      <point x="500.0" y="200" type="line"/>
      <point x="500.0" y="400" type="line"/>
      <point x="300.0" y="400" type="line"/>
    </contour>
    <contour>
      <point x="500.0" y="402.5" type="line"/>
      <point x="500.0" y="512.883"/>
      <point x="410.383" y="602.5"/>
      <point x="300.0" y="602.5" type="curve"/>
      <point x="300.0" y="402.5" type="line"/>
    </contour>
    <contour>
      <point x="300.0" y="400" type="line"/>
      <point x="500.0" y="400" type="line"/>
      <point x="500.0" y="402.5" type="line"/>
      <point x="300.0" y="402.5" type="line"/>
    </contour>
    <contour>
      <point x="262.5" y="633.3333333333334" type="line"/>
      <point x="372.88300000000004" y="633.3333333333334"/>
      <point x="462.5" y="722.9503333333333"/>
      <point x="462.5" y="833.3333333333334" type="curve"/>
      <point x="262.5" y="833.3333333333334" type="line"/>
    </contour>
  </outline>
</glyph>
<glyph name="ae" format="2">
  <advance width="1050.0"/>
  <unicode hex="00E6"/>
  <outline>
    <contour>
      <point x="50.0" y="195.0" type="line"/>
      <point x="50.0" y="84.617"/>
      <point x="139.61700000000002" y="-5.0"/>
      <point x="250.0" y="-5.0" type="curve"/>
      <point x="250.0" y="195.0" type="line"/>
    </contour>
    <contour>
      <point x="250.0" y="395.0" type="line"/>
      <point x="139.61700000000002" y="395.0"/>
      <point x="50.0" y="305.383"/>
      <point x="50.0" y="195.0" type="curve"/>
      <point x="250.0" y="195.0" type="line"/>
    </contour>
    <contour>
      <point x="258.125" y="500.0" type="curve" smooth="yes"/>
      <point x="258.125" y="557.95108"/>
      <point x="211.07608" y="605.0"/>
      <point x="153.125" y="605.0" type="curve" smooth="yes"/>
      <point x="95.17392000000001" y="605.0"/>
      <point x="48.125" y="557.95108"/>
      <point x="48.125" y="500.0" type="curve" smooth="yes"/>
      <point x="48.125" y="442.04892"/>
      <point x="95.17392000000001" y="395.0"/>
      <point x="153.125" y="395.0" type="curve" smooth="yes"/>
      <point x="211.07608" y="395.0"/>
      <point x="258.125" y="442.04892"/>
    </contour>
    <contour>
      <point x="300.0" y="-5.0" type="line"/>
      <point x="410.383" y="-5.0"/>
      <point x="500.0" y="84.617"/>
      <point x="500.0" y="195.0" type="curve"/>
      <point x="300.0" y="195.0" type="line"/>
    </contour>
    <contour>
      <point x="300.0" y="195.0" type="line"/>
      <point x="500.0" y="195.0" type="line"/>
      <point x="500.0" y="405.0" type="line"/>
      <point x="300.0" y="405.0" type="line"/>
    </contour>
    <contour>
      <point x="500.0" y="405.0" type="line"/>
      <point x="500.0" y="515.383"/>
      <point x="410.383" y="605.0"/>
      <point x="300.0" y="605.0" type="curve"/>
      <point x="300.0" y="405.0" type="line"/>
    </contour>
    <contour>
      <point x="550.0" y="195.0" type="line"/>
      <point x="550.0" y="84.617"/>
      <point x="639.617" y="-5.0"/>
      <point x="750.0" y="-5.0" type="curve"/>
      <point x="750.0" y="195.0" type="line"/>
    </contour>
    <contour>
      <point x="550.0" y="195.0" type="line"/>
      <point x="750.0" y="195.0" type="line"/>
      <point x="750.0" y="405.0" type="line"/>
      <point x="550.0" y="405.0" type="line"/>
    </contour>
    <contour>
      <point x="750.0" y="605.0" type="line"/>
      <point x="639.617" y="605.0"/>
      <point x="550.0" y="515.383"/>
      <point x="550.0" y="405.0" type="curve"/>
      <point x="750.0" y="405.0" type="line"/>
    </contour>
    <contour>
      <point x="800.0" y="195.0" type="line"/>
      <point x="1000.0" y="195.0" type="line"/>
      <point x="1000.0" y="405.0" type="line"/>
      <point x="800.0" y="405.0" type="line"/>
    </contour>
    <contour>
      <point x="1000.0" y="405.0" type="line"/>
      <point x="1000.0" y="515.383"/>
      <point x="910.383" y="605.0"/>
      <point x="800.0" y="605.0" type="curve"/>
      <point x="800.0" y="405.0" type="line"/>
    </contour>
  </outline>
</glyph>
<glyph name="c_with_cedilla" format="2">
  <advance width="550.0"/>
  <unicode hex="00E7"/>
  <outline>
    <contour>
      <point x="50.0" y="200.0" type="line"/>
      <point x="50.0" y="89.617"/>
      <point x="139.61700000000002" y="0.0"/>
      <point x="250.0" y="0.0" type="curve"/>
      <point x="250.0" y="200.0" type="line"/>
    </contour>
    <contour>
      <point x="50.0" y="200" type="line"/>
      <point x="250.0" y="200" type="line"/>
      <point x="250.0" y="405.0" type="line"/>
      <point x="50.0" y="405.0" type="line"/>
    </contour>
    <contour>
      <point x="250.0" y="605.0" type="line"/>
      <point x="139.61700000000002" y="605.0"/>
      <point x="50.0" y="515.383"/>
      <point x="50.0" y="405.0" type="curve"/>
      <point x="250.0" y="405.0" type="line"/>
    </contour>
    <contour>
      <point x="496.875" y="200.0" type="line"/>
      <point x="386.492" y="200.0"/>
      <point x="296.875" y="110.383"/>
      <point x="296.875" y="0.0" type="curve"/>
      <point x="496.875" y="0.0" type="line"/>
    </contour>
    <contour>
      <point x="505.0" y="500.0" type="curve" smooth="yes"/>
      <point x="505.0" y="557.95108"/>
      <point x="457.95108" y="605.0"/>
      <point x="400.0" y="605.0" type="curve" smooth="yes"/>
      <point x="342.04892" y="605.0"/>
      <point x="295.0" y="557.95108"/>
      <point x="295.0" y="500.0" type="curve" smooth="yes"/>
      <point x="295.0" y="442.04892"/>
      <point x="342.04892" y="395.0"/>
      <point x="400.0" y="395.0" type="curve" smooth="yes"/>
      <point x="457.95108" y="395.0"/>
      <point x="505.0" y="442.04892"/>
    </contour>
    <contour>
      <point x="465.0" y="-225.0" type="line"/>
      <point x="465.0" y="-114.617"/>
      <point x="375.38300000000004" y="-25.0"/>
      <point x="265.0" y="-25.0" type="curve"/>
      <point x="265.0" y="-225.0" type="line"/>
    </contour>
  </outline>
</glyph>
<glyph name="e_with_diaeresis" format="2">
  <advance width="550.0"/>
  <unicode hex="00EB"/>
  <outline>
    <contour>
      <point x="50.0" y="195.0" type="line"/>
      <point x="50.0" y="84.617"/>
      <point x="139.61700000000002" y="-5.0"/>
      <point x="250.0" y="-5.0" type="curve"/>
      <point x="250.0" y="195.0" type="line"/>
    </contour>
    <contour>
      <point x="50.0" y="195.0" type="line"/>
      <point x="250.0" y="195.0" type="line"/>
      <point x="250.0" y="405.0" type="line"/>
      <point x="50.0" y="405.0" type="line"/>
    </contour>
    <contour>
      <point x="250.0" y="605.0" type="line"/>
      <point x="139.61700000000002" y="605.0"/>
      <point x="50.0" y="515.383"/>
      <point x="50.0" y="405.0" type="curve"/>
      <point x="250.0" y="405.0" type="line"/>
    </contour>
    <contour>
      <point x="300.0" y="195.0" type="line"/>
      <point x="500.0" y="195.0" type="line"/>
      <point x="500.0" y="405.0" type="line"/>
      <point x="300.0" y="405.0" type="line"/>
    </contour>
    <contour>
      <point x="500.0" y="405.0" type="line"/>
      <point x="500.0" y="515.383"/>
      <point x="410.383" y="605.0"/>
      <point x="300.0" y="605.0" type="curve"/>
      <point x="300.0" y="405.0" type="line"/>
    </contour>
    <contour>
      <point x="255.0" y="733.3333333333334" type="curve" smooth="yes"/>
      <point x="255.0" y="791.2844133333333"/>
      <point x="207.95108" y="838.3333333333334"/>
      <point x="150.0" y="838.3333333333334" type="curve" smooth="yes"/>
      <point x="92.04892000000001" y="838.3333333333334"/>
      <point x="45.0" y="791.2844133333333"/>
      <point x="45.0" y="733.3333333333334" type="curve" smooth="yes"/>
      <point x="45.0" y="675.3822533333333"/>
      <point x="92.04892000000001" y="628.3333333333334"/>
      <point x="150.0" y="628.3333333333334" type="curve" smooth="yes"/>
      <point x="207.95108" y="628.3333333333334"/>
      <point x="255.0" y="675.3822533333333"/>
    </contour>
    <contour>
      <point x="505.0" y="733.3333333333334" type="curve" smooth="yes"/>
      <point x="505.0" y="791.2844133333333"/>
      <point x="457.95108" y="838.3333333333334"/>
      <point x="400.0" y="838.3333333333334" type="curve" smooth="yes"/>
      <point x="342.04892" y="838.3333333333334"/>
      <point x="295.0" y="791.2844133333333"/>
      <point x="295.0" y="733.3333333333334" type="curve" smooth="yes"/>
      <point x="295.0" y="675.3822533333333"/>
      <point x="342.04892" y="628.3333333333334"/>
      <point x="400.0" y="628.3333333333334" type="curve" smooth="yes"/>
      <point x="457.95108" y="628.3333333333334"/>
      <point x="505.0" y="675.3822533333333"/>
    </contour>
  </outline>
</glyph>
<glyph name="i_with_circumflex" format="2">
  <advance width="300.0"/>
  <unicode hex="00EE"/>
  <outline>
    <contour>
      <point x="50.0" y="0" type="line"/>
      <point x="250.0" y="0" type="line"/>
      <point x="250.0" y="200" type="line"/>
      <point x="50.0" y="200" type="line"/>
    </contour>
    <contour>
      <point x="50.0" y="200" type="line"/>
      <point x="250.0" y="200" type="line"/>
      <point x="250.0" y="400" type="line"/>
      <point x="50.0" y="400" type="line"/>
    </contour>
    <contour>
      <point x="50.0" y="400" type="line"/>
      <point x="250.0" y="400" type="line"/>
      <point x="250.0" y="600" type="line"/>
      <point x="50.0" y="600" type="line"/>
    </contour>
    <contour>
      <point x="-56.25" y="633.3333333333334" type="line"/>
      <point x="54.13300000000001" y="633.3333333333334"/>
      <point x="143.75" y="722.9503333333333"/>
      <point x="143.75" y="833.3333333333334" type="curve"/>
      <point x="-56.25" y="833.3333333333334" type="line"/>
    </contour>
    <contour>
      <point x="156.25" y="833.3333333333334" type="line"/>
      <point x="156.25" y="722.9503333333333"/>
      <point x="245.86700000000002" y="633.3333333333334"/>
      <point x="356.25" y="633.3333333333334" type="curve"/>
      <point x="356.25" y="833.3333333333334" type="line"/>
    </contour>
  </outline>
</glyph>
<glyph name="n_with_smalltilde" format="2">
  <advance width="550.0"/>
  <unicode hex="00F1"/>
  <outline>
    <contour>
      <point x="50.0" y="0" type="line"/>
      <point x="250.0" y="0" type="line"/>
      <point x="250.0" y="200" type="line"/>
      <point x="50.0" y="200" type="line"/>
    </contour>
    <contour>
      <point x="50.0" y="200" type="line"/>
      <point x="250.0" y="200" type="line"/>
      <point x="250.0" y="400" type="line"/>
      <point x="50.0" y="400" type="line"/>
    </contour>
    <contour>
      <point x="50.0" y="400" type="line"/>
      <point x="250.0" y="400" type="line"/>
      <point x="250.0" y="600" type="line"/>
      <point x="50.0" y="600" type="line"/>
    </contour>
    <contour>
      <point x="300.0" y="0" type="line"/>
      <point x="500.0" y="0" type="line"/>
      <point x="500.0" y="200" type="line"/>
      <point x="300.0" y="200" type="line"/>
    </contour>
    <contour>
      <point x="300.0" y="200" type="line"/>
      <point x="500.0" y="200" type="line"/>
      <point x="500.0" y="400" type="line"/>
      <point x="300.0" y="400" type="line"/>
    </contour>
    <contour>
      <point x="500.0" y="400" type="line"/>
      <point x="500.0" y="510.383"/>
      <point x="410.383" y="600.0"/>
      <point x="300.0" y="600.0" type="curve"/>
      <point x="300.0" y="400" type="line"/>
    </contour>
    <contour>
      <point x="275.0" y="833.3333333333334" type="line"/>
      <point x="164.61700000000002" y="833.3333333333334"/>
      <point x="75.0" y="743.7163333333334"/>
      <point x="75.0" y="633.3333333333334" type="curve"/>
      <point x="275.0" y="633.3333333333334" type="line"/>
    </contour>
    <contour>
      <point x="275.0" y="633.3333333333334" type="line"/>
      <point x="385.383" y="633.3333333333334"/>
      <point x="475.0" y="722.9503333333333"/>
      <point x="475.0" y="833.3333333333334" type="curve"/>
      <point x="275.0" y="833.3333333333334" type="line"/>
    </contour>
  </outline>
</glyph>
<glyph name="divide" format="2">
  <advance width="800.0"/>
  <unicode hex="00F7"/>
  <outline>
    <contour>
      <point x="100.0" y="300.0" type="line"/>
      <point x="300.0" y="300.0" type="line"/>
      <point x="300.0" y="500.0" type="line"/>
      <point x="100.0" y="500.0" type="line"/>
    </contour>
    <contour>
      <point x="505.0" y="150.0" type="curve" smooth="yes"/>
      <point x="505.0" y="207.95108"/>
      <point x="457.95108" y="255.0"/>
      <point x="400.0" y="255.0" type="curve" smooth="yes"/>
      <point x="342.04892" y="255.0"/>
      <point x="295.0" y="207.95108"/>
      <point x="295.0" y="150.0" type="curve" smooth="yes"/>
      <point x="295.0" y="92.04892"/>
      <point x="342.04892" y="45.0"/>
      <point x="400.0" y="45.0" type="curve" smooth="yes"/>
      <point x="457.95108" y="45.0"/>
      <point x="505.0" y="92.04892"/>
    </contour>
    <contour>
      <point x="300.0" y="300.0" type="line"/>
      <point x="500.0" y="300.0" type="line"/>
      <point x="500.0" y="500.0" type="line"/>
      <point x="300.0" y="500.0" type="line"/>
    </contour>
    <contour>
      <point x="505.0" y="650.0" type="curve" smooth="yes"/>
      <point x="505.0" y="707.95108"/>
      <point x="457.95108" y="755.0"/>
      <point x="400.0" y="755.0" type="curve" smooth="yes"/>
      <point x="342.04892" y="755.0"/>
      <point x="295.0" y="707.95108"/>
      <point x="295.0" y="650.0" type="curve" smooth="yes"/>
      <point x="295.0" y="592.04892"/>
      <point x="342.04892" y="545.0"/>
      <point x="400.0" y="545.0" type="curve" smooth="yes"/>
      <point x="457.95108" y="545.0"/>
      <point x="505.0" y="592.04892"/>
    </contour>
    <contour>
      <point x="500.0" y="300.0" type="line"/>
      <point x="700.0" y="300.0" type="line"/>
      <point x="700.0" y="500.0" type="line"/>
      <point x="500.0" y="500.0" type="line"/>
    </contour>
  </outline>
</glyph>
<glyph name="o_with_stroke" format="2">
  <advance width="550.0"/>
  <unicode hex="00F8"/>
  <outline>
    <contour>
      <point x="50.0" y="195.0" type="line"/>
      <point x="50.0" y="84.617"/>
      <point x="139.61700000000002" y="-5.0"/>
      <point x="250.0" y="-5.0" type="curve"/>
      <point x="250.0" y="195.0" type="line"/>
    </contour>
    <contour>
      <point x="50.0" y="195.0" type="line"/>
      <point x="250.0" y="195.0" type="line"/>
      <point x="250.0" y="405.0" type="line"/>
      <point x="50.0" y="405.0" type="line"/>
    </contour>
    <contour>
      <point x="250.0" y="605.0" type="line"/>
      <point x="139.61700000000002" y="605.0"/>
      <point x="50.0" y="515.383"/>
      <point x="50.0" y="405.0" type="curve"/>
      <point x="250.0" y="405.0" type="line"/>
    </contour>
    <contour>
      <point x="200.0" y="100.0" type="line"/>
      <point x="89.61699999999999" y="100.0"/>
      <point x="0.0" y="10.383"/>
      <point x="0.0" y="-100.0" type="curve"/>
      <point x="200.0" y="-100.0" type="line"/>
    </contour>
    <contour>
      <point x="300.0" y="-5.0" type="line"/>
      <point x="410.383" y="-5.0"/>
      <point x="500.0" y="84.617"/>
      <point x="500.0" y="195.0" type="curve"/>
      <point x="300.0" y="195.0" type="line"/>
    </contour>
    <contour>
      <point x="300.0" y="195.0" type="line"/>
      <point x="500.0" y="195.0" type="line"/>
      <point x="500.0" y="405.0" type="line"/>
      <point x="300.0" y="405.0" type="line"/>
    </contour>
    <contour>
      <point x="500.0" y="405.0" type="line"/>
      <point x="500.0" y="515.383"/>
      <point x="410.383" y="605.0"/>
      <point x="300.0" y="605.0" type="curve"/>
      <point x="300.0" y="405.0" type="line"/>
    </contour>
    <contour>
      <point x="350.0" y="500.0" type="line"/>
      <point x="460.383" y="500.0"/>
      <point x="550.0" y="589.617"/>
      <point x="550.0" y="700.0" type="curve"/>
      <point x="350.0" y="700.0" type="line"/>
    </contour>
  </outline>
</glyph>
<glyph name="u_with_diaeresis" format="2">
  <advance width="550.0"/>
  <unicode hex="00FC"/>
  <outline>
    <contour>
      <point x="50.0" y="195.0" type="line"/>
      <point x="50.0" y="84.617"/>
      <point x="139.61700000000002" y="-5.0"/>
      <point x="250.0" y="-5.0" type="curve"/>
      <point x="250.0" y="195.0" type="line"/>
    </contour>
    <contour>
      <point x="50.0" y="195.0" type="line"/>
      <point x="250.0" y="195.0" type="line"/>
      <point x="250.0" y="400.0" type="line"/>
      <point x="50.0" y="400.0" type="line"/>
    </contour>
    <contour>
      <point x="50.0" y="400" type="line"/>
      <point x="250.0" y="400" type="line"/>
      <point x="250.0" y="600" type="line"/>
      <point x="50.0" y="600" type="line"/>
    </contour>
    <contour>
      <point x="300.0" y="-5.0" type="line"/>
      <point x="410.383" y="-5.0"/>
      <point x="500.0" y="84.617"/>
      <point x="500.0" y="195.0" type="curve"/>
      <point x="300.0" y="195.0" type="line"/>
    </contour>
    <contour>
      <point x="300.0" y="195.0" type="line"/>
      <point x="500.0" y="195.0" type="line"/>
      <point x="500.0" y="400.0" type="line"/>
      <point x="300.0" y="400.0" type="line"/>
    </contour>
    <contour>
      <point x="300.0" y="400" type="line"/>
      <point x="500.0" y="400" type="line"/>
      <point x="500.0" y="600" type="line"/>
      <point x="300.0" y="600" type="line"/>
    </contour>
    <contour>
      <point x="255.0" y="733.3333333333334" type="curve" smooth="yes"/>
      <point x="255.0" y="791.2844133333333"/>
      <point x="207.95108" y="838.3333333333334"/>
      <point x="150.0" y="838.3333333333334" type="curve" smooth="yes"/>
      <point x="92.04892000000001" y="838.3333333333334"/>
      <point x="45.0" y="791.2844133333333"/>
      <point x="45.0" y="733.3333333333334" type="curve" smooth="yes"/>
      <point x="45.0" y="675.3822533333333"/>
      <point x="92.04892000000001" y="628.3333333333334"/>
      <point x="150.0" y="628.3333333333334" type="curve" smooth="yes"/>
      <point x="207.95108" y="628.3333333333334"/>
      <point x="255.0" y="675.3822533333333"/>
    </contour>
    <contour>
      <point x="505.0" y="733.3333333333334" type="curve" smooth="yes"/>
      <point x="505.0" y="791.2844133333333"/>
      <point x="457.95108" y="838.3333333333334"/>
      <point x="400.0" y="838.3333333333334" type="curve" smooth="yes"/>
      <point x="342.04892" y="838.3333333333334"/>
      <point x="295.0" y="791.2844133333333"/>
      <point x="295.0" y="733.3333333333334" type="curve" smooth="yes"/>
      <point x="295.0" y="675.3822533333333"/>
      <point x="342.04892" y="628.3333333333334"/>
      <point x="400.0" y="628.3333333333334" type="curve" smooth="yes"/>
      <point x="457.95108" y="628.3333333333334"/>
      <point x="505.0" y="675.3822533333333"/>
    </contour>
  </outline>
</glyph>
<glyph name="y_with_diaeresis" format="2">
  <advance width="550.0"/>
  <unicode hex="00FF"/>
  <outline>
    <contour>
      <point x="256.25" y="-110.0" type="curve" smooth="yes"/>
      <point x="256.25" y="-54.8085"/>
      <point x="211.4415" y="-10.0"/>
      <point x="156.25" y="-10.0" type="curve" smooth="yes"/>
      <point x="101.05850000000001" y="-10.0"/>
      <point x="56.25" y="-54.8085"/>
      <point x="56.25" y="-110.0" type="curve" smooth="yes"/>
      <point x="56.25" y="-165.1915"/>
      <point x="101.05850000000001" y="-210.0"/>
      <point x="156.25" y="-210.0" type="curve" smooth="yes"/>
      <point x="211.4415" y="-210.0"/>
      <point x="256.25" y="-165.1915"/>
    </contour>
    <contour>
      <point x="50.0" y="200.0" type="line"/>
      <point x="50.0" y="89.617"/>
      <point x="139.61700000000002" y="0.0"/>
      <point x="250.0" y="0.0" type="curve"/>
      <point x="250.0" y="200.0" type="line"/>
    </contour>
    <contour>
      <point x="50.0" y="200" type="line"/>
      <point x="250.0" y="200" type="line"/>
      <point x="250.0" y="405.0" type="line"/>
      <point x="50.0" y="405.0" type="line"/>
    </contour>
    <contour>
      <point x="250.0" y="405.0" type="line"/>
      <point x="250.0" y="515.383"/>
      <point x="160.38299999999998" y="605.0"/>
      <point x="50.0" y="605.0" type="curve"/>
      <point x="50.0" y="405.0" type="line"/>
    </contour>
    <contour>
      <point x="300.0" y="-210.0" type="line"/>
      <point x="410.383" y="-210.0"/>
      <point x="500.0" y="-120.383"/>
      <point x="500.0" y="-10.0" type="curve"/>
      <point x="300.0" y="-10.0" type="line"/>
    </contour>
    <contour>
      <point x="300.0" y="-10.0" type="line"/>
      <point x="500.0" y="-10.0" type="line"/>
      <point x="500.0" y="200.0" type="line"/>
      <point x="300.0" y="200.0" type="line"/>
    </contour>
    <contour>
      <point x="300.0" y="200" type="line"/>
      <point x="500.0" y="200" type="line"/>
      <point x="500.0" y="400" type="line"/>
      <point x="300.0" y="400" type="line"/>
    </contour>
    <contour>
      <point x="300.0" y="400" type="line"/>
      <point x="500.0" y="400" type="line"/>
      <point x="500.0" y="600" type="line"/>
      <point x="300.0" y="600" type="line"/>
    </contour>
    <contour>
      <point x="255.0" y="733.3333333333334" type="curve" smooth="yes"/>
      <point x="255.0" y="791.2844133333333"/>
      <point x="207.95108" y="838.3333333333334"/>
      <point x="150.0" y="838.3333333333334" type="curve" smooth="yes"/>
      <point x="92.04892000000001" y="838.3333333333334"/>
      <point x="45.0" y="791.2844133333333"/>
      <point x="45.0" y="733.3333333333334" type="curve" smooth="yes"/>
      <point x="45.0" y="675.3822533333333"/>
      <point x="92.04892000000001" y="628.3333333333334"/>
      <point x="150.0" y="628.3333333333334" type="curve" smooth="yes"/>
      <point x="207.95108" y="628.3333333333334"/>
      <point x="255.0" y="675.3822533333333"/>
    </contour>
    <contour>
      <point x="505.0" y="733.3333333333334" type="curve" smooth="yes"/>
      <point x="505.0" y="791.2844133333333"/>
      <point x="457.95108" y="838.3333333333334"/>
      <point x="400.0" y="838.3333333333334" type="curve" smooth="yes"/>
      <point x="342.04892" y="838.3333333333334"/>
      <point x="295.0" y="791.2844133333333"/>
      <point x="295.0" y="733.3333333333334" type="curve" smooth="yes"/>
      <point x="295.0" y="675.3822533333333"/>
      <point x="342.04892" y="628.3333333333334"/>
      <point x="400.0" y="628.3333333333334" type="curve" smooth="yes"/>
      <point x="457.95108" y="628.3333333333334"/>
      <point x="505.0" y="675.3822533333333"/>
    </contour>
  </outline>
</glyph>
<glyph name="c_with_dotabove" format="2">
  <advance width="550.0"/>
  <unicode hex="010B"/>
  <outline>
    <contour>
      <point x="50.0" y="200.0" type="line"/>
      <point x="50.0" y="89.617"/>
      <point x="139.61700000000002" y="0.0"/>
      <point x="250.0" y="0.0" type="curve"/>
      <point x="250.0" y="200.0" type="line"/>
    </contour>
    <contour>
      <point x="50.0" y="200" type="line"/>
      <point x="250.0" y="200" type="line"/>
      <point x="250.0" y="405.0" type="line"/>
      <point x="50.0" y="405.0" type="line"/>
    </contour>
    <contour>
      <point x="250.0" y="605.0" type="line"/>
      <point x="139.61700000000002" y="605.0"/>
      <point x="50.0" y="515.383"/>
      <point x="50.0" y="405.0" type="curve"/>
      <point x="250.0" y="405.0" type="line"/>
    </contour>
    <contour>
      <point x="496.875" y="200.0" type="line"/>
      <point x="386.492" y="200.0"/>
      <point x="296.875" y="110.383"/>
      <point x="296.875" y="0.0" type="curve"/>
      <point x="496.875" y="0.0" type="line"/>
    </contour>
    <contour>
      <point x="505.0" y="500.0" type="curve" smooth="yes"/>
      <point x="505.0" y="557.95108"/>
      <point x="457.95108" y="605.0"/>
      <point x="400.0" y="605.0" type="curve" smooth="yes"/>
      <point x="342.04892" y="605.0"/>
      <point x="295.0" y="557.95108"/>
      <point x="295.0" y="500.0" type="curve" smooth="yes"/>
      <point x="295.0" y="442.04892"/>
      <point x="342.04892" y="395.0"/>
      <point x="400.0" y="395.0" type="curve" smooth="yes"/>
      <point x="457.95108" y="395.0"/>
      <point x="505.0" y="442.04892"/>
    </contour>
    <contour>
      <point x="382.5" y="733.3333333333334" type="curve" smooth="yes"/>
      <point x="382.5" y="791.2844133333333"/>
      <point x="335.45108" y="838.3333333333334"/>
      <point x="277.5" y="838.3333333333334" type="curve" smooth="yes"/>
      <point x="219.54892" y="838.3333333333334"/>
      <point x="172.5" y="791.2844133333333"/>
      <point x="172.5" y="733.3333333333334" type="curve" smooth="yes"/>
      <point x="172.5" y="675.3822533333333"/>
      <point x="219.54892" y="628.3333333333334"/>
      <point x="277.5" y="628.3333333333334" type="curve" smooth="yes"/>
      <point x="335.45108" y="628.3333333333334"/>
      <point x="382.5" y="675.3822533333333"/>
    </contour>
  </outline>
</glyph>
<glyph name="c_with_caron" format="2">
  <advance width="550.0"/>
  <unicode hex="010D"/>
  <outline>
    <contour>
      <point x="50.0" y="200.0" type="line"/>
      <point x="50.0" y="89.617"/>
      <point x="139.61700000000002" y="0.0"/>
      <point x="250.0" y="0.0" type="curve"/>
      <point x="250.0" y="200.0" type="line"/>
    </contour>
    <contour>
      <point x="50.0" y="200" type="line"/>
      <point x="250.0" y="200" type="line"/>
      <point x="250.0" y="405.0" type="line"/>
      <point x="50.0" y="405.0" type="line"/>
    </contour>
    <contour>
      <point x="250.0" y="605.0" type="line"/>
      <point x="139.61700000000002" y="605.0"/>
      <point x="50.0" y="515.383"/>
      <point x="50.0" y="405.0" type="curve"/>
      <point x="250.0" y="405.0" type="line"/>
    </contour>
    <contour>
      <point x="496.875" y="200.0" type="line"/>
      <point x="386.492" y="200.0"/>
      <point x="296.875" y="110.383"/>
      <point x="296.875" y="0.0" type="curve"/>
      <point x="496.875" y="0.0" type="line"/>
    </contour>
    <contour>
      <point x="505.0" y="500.0" type="curve" smooth="yes"/>
      <point x="505.0" y="557.95108"/>
      <point x="457.95108" y="605.0"/>
      <point x="400.0" y="605.0" type="curve" smooth="yes"/>
      <point x="342.04892" y="605.0"/>
      <point x="295.0" y="557.95108"/>
      <point x="295.0" y="500.0" type="curve" smooth="yes"/>
      <point x="295.0" y="442.04892"/>
      <point x="342.04892" y="395.0"/>
      <point x="400.0" y="395.0" type="curve" smooth="yes"/>
      <point x="457.95108" y="395.0"/>
      <point x="505.0" y="442.04892"/>
    </contour>
    <contour>
      <point x="271.25" y="633.3333333333334" type="line"/>
      <point x="271.25" y="743.7163333333334"/>
      <point x="181.633" y="833.3333333333334"/>
      <point x="71.25" y="833.3333333333334" type="curve"/>
      <point x="71.25" y="633.3333333333334" type="line"/>
    </contour>
    <contour>
      <point x="483.75" y="833.3333333333334" type="line"/>
      <point x="373.367" y="833.3333333333334"/>
      <point x="283.75" y="743.7163333333334"/>
      <point x="283.75" y="633.3333333333334" type="curve"/>
      <point x="483.75" y="633.3333333333334" type="line"/>
    </contour>
  </outline>
</glyph>
<glyph name="g_with_circumflex" format="2">
  <advance width="550.0"/>
  <unicode hex="011D"/>
  <outline>
    <contour>
      <point x="256.25" y="-110.0" type="curve" smooth="yes"/>
      <point x="256.25" y="-54.8085"/>
      <point x="211.4415" y="-10.0"/>
      <point x="156.25" y="-10.0" type="curve" smooth="yes"/>
      <point x="101.05850000000001" y="-10.0"/>
      <point x="56.25" y="-54.8085"/>
      <point x="56.25" y="-110.0" type="curve" smooth="yes"/>
      <point x="56.25" y="-165.1915"/>
      <point x="101.05850000000001" y="-210.0"/>
      <point x="156.25" y="-210.0" type="curve" smooth="yes"/>
      <point x="211.4415" y="-210.0"/>
      <point x="256.25" y="-165.1915"/>
    </contour>
    <contour>
      <point x="50.0" y="200.0" type="line"/>
      <point x="50.0" y="89.617"/>
      <point x="139.61700000000002" y="0.0"/>
      <point x="250.0" y="0.0" type="curve"/>
      <point x="250.0" y="200.0" type="line"/>
    </contour>
    <contour>
      <point x="50.0" y="200" type="line"/>
      <point x="250.0" y="200" type="line"/>
      <point x="250.0" y="400" type="line"/>
      <point x="50.0" y="400" type="line"/>
    </contour>
    <contour>
      <point x="250.0" y="600.0" type="line"/>
      <point x="139.61700000000002" y="600.0"/>
      <point x="50.0" y="510.383"/>
      <point x="50.0" y="400.0" type="curve"/>
      <point x="250.0" y="400.0" type="line"/>
    </contour>
    <contour>
      <point x="300.0" y="-210.0" type="line"/>
      <point x="410.383" y="-210.0"/>
      <point x="500.0" y="-120.383"/>
      <point x="500.0" y="-10.0" type="curve"/>
      <point x="300.0" y="-10.0" type="line"/>
    </contour>
    <contour>
      <point x="300.0" y="-10.0" type="line"/>
      <point x="500.0" y="-10.0" type="line"/>
      <point x="500.0" y="200.0" type="line"/>
      <point x="300.0" y="200.0" type="line"/>
    </contour>
    <contour>
      <point x="300.0" y="200" type="line"/>
      <point x="500.0" y="200" type="line"/>
      <point x="500.0" y="400" type="line"/>
      <point x="300.0" y="400" type="line"/>
    </contour>
    <contour>
      <point x="300.0" y="400" type="line"/>
      <point x="500.0" y="400" type="line"/>
      <point x="500.0" y="600" type="line"/>
      <point x="300.0" y="600" type="line"/>
    </contour>
    <contour>
      <point x="68.75" y="633.3333333333334" type="line"/>
      <point x="179.133" y="633.3333333333334"/>
      <point x="268.75" y="722.9503333333333"/>
      <point x="268.75" y="833.3333333333334" type="curve"/>
      <point x="68.75" y="833.3333333333334" type="line"/>
    </contour>
    <contour>
      <point x="281.25" y="833.3333333333334" type="line"/>
      <point x="281.25" y="722.9503333333333"/>
      <point x="370.867" y="633.3333333333334"/>
      <point x="481.25" y="633.3333333333334" type="curve"/>
      <point x="481.25" y="833.3333333333334" type="line"/>
    </contour>
  </outline>
</glyph>
<glyph name="I_with_ogonek" format="2">
  <advance width="300.0"/>
  <unicode hex="012E"/>
  <outline>
    <contour>
      <point x="50.0" y="0" type="line"/>
      <point x="250.0" y="0" type="line"/>
      <point x="250.0" y="200" type="line"/>
      <point x="50.0" y="200" type="line"/>
    </contour>
    <contour>
      <point x="50.0" y="200" type="line"/>
      <point x="250.0" y="200" type="line"/>
      <point x="250.0" y="400" type="line"/>
      <point x="50.0" y="400" type="line"/>
    </contour>
    <contour>
      <point x="50.0" y="400" type="line"/>
      <point x="250.0" y="400" type="line"/>
      <point x="250.0" y="600" type="line"/>
      <point x="50.0" y="600" type="line"/>
    </contour>
    <contour>
      <point x="50.0" y="600" type="line"/>
      <point x="250.0" y="600" type="line"/>
      <point x="250.0" y="800" type="line"/>
      <point x="50.0" y="800" type="line"/>
    </contour>
    <contour>
      <point x="250.0" y="-25.0" type="line"/>
      <point x="139.617" y="-25.0"/>
      <point x="50.0" y="-114.617"/>
      <point x="50.0" y="-225.0" type="curve"/>
      <point x="250.0" y="-225.0" type="line"/>
    </contour>
  </outline>
</glyph>
<glyph name="IJ" format="2">
  <advance width="550.0"/>
  <unicode hex="0132"/>
  <outline>
    <contour>
      <point x="255.0" y="95.0" type="curve" smooth="yes"/>
      <point x="255.0" y="152.95108"/>
      <point x="207.95108" y="200.0"/>
      <point x="150.0" y="200.0" type="curve" smooth="yes"/>
      <point x="92.04892000000001" y="200.0"/>
      <point x="45.0" y="152.95108"/>
      <point x="45.0" y="95.0" type="curve" smooth="yes"/>
      <point x="45.0" y="37.04892"/>
      <point x="92.04892000000001" y="-10.0"/>
      <point x="150.0" y="-10.0" type="curve" smooth="yes"/>
      <point x="207.95108" y="-10.0"/>
      <point x="255.0" y="37.04892"/>
    </contour>
    <contour>
      <point x="37.5" y="250.0" type="line"/>
      <point x="237.5" y="250.0" type="line"/>
      <point x="237.5" y="450.0" type="line"/>
      <point x="37.5" y="450.0" type="line"/>
    </contour>
    <contour>
      <point x="37.5" y="400" type="line"/>
      <point x="237.5" y="400" type="line"/>
      <point x="237.5" y="600" type="line"/>
      <point x="37.5" y="600" type="line"/>
    </contour>
    <contour>
      <point x="37.5" y="600" type="line"/>
      <point x="237.5" y="600" type="line"/>
      <point x="237.5" y="800" type="line"/>
      <point x="37.5" y="800" type="line"/>
    </contour>
    <contour>
      <point x="300.0" y="-5.0" type="line"/>
      <point x="410.383" y="-5.0"/>
      <point x="500.0" y="84.617"/>
      <point x="500.0" y="195.0" type="curve"/>
      <point x="300.0" y="195.0" type="line"/>
    </contour>
    <contour>
      <point x="300.0" y="195.0" type="line"/>
      <point x="500.0" y="195.0" type="line"/>
      <point x="500.0" y="400.0" type="line"/>
      <point x="300.0" y="400.0" type="line"/>
    </contour>
    <contour>
      <point x="300.0" y="400" type="line"/>
      <point x="500.0" y="400" type="line"/>
      <point x="500.0" y="600" type="line"/>
      <point x="300.0" y="600" type="line"/>
    </contour>
    <contour>
      <point x="300.0" y="600" type="line"/>
      <point x="500.0" y="600" type="line"/>
      <point x="500.0" y="800" type="line"/>
      <point x="300.0" y="800" type="line"/>
    </contour>
  </outline>
</glyph>
<glyph name="ij" format="2">
  <advance width="550.0"/>
  <unicode hex="0133"/>
  <outline>
    <contour>
      <point x="256.25" y="-110.0" type="curve" smooth="yes"/>
      <point x="256.25" y="-54.8085"/>
      <point x="211.4415" y="-10.0"/>
      <point x="156.25" y="-10.0" type="curve" smooth="yes"/>
      <point x="101.05850000000001" y="-10.0"/>
      <point x="56.25" y="-54.8085"/>
      <point x="56.25" y="-110.0" type="curve" smooth="yes"/>
      <point x="56.25" y="-165.1915"/>
      <point x="101.05850000000001" y="-210.0"/>
      <point x="156.25" y="-210.0" type="curve" smooth="yes"/>
      <point x="211.4415" y="-210.0"/>
      <point x="256.25" y="-165.1915"/>
    </contour>
    <contour>
      <point x="37.5" y="50.0" type="line"/>
      <point x="237.5" y="50.0" type="line"/>
      <point x="237.5" y="250.0" type="line"/>
      <point x="37.5" y="250.0" type="line"/>
    </contour>
    <contour>
      <point x="37.5" y="200" type="line"/>
      <point x="237.5" y="200" type="line"/>
      <point x="237.5" y="400" type="line"/>
      <point x="37.5" y="400" type="line"/>
    </contour>
    <contour>
      <point x="37.5" y="400" type="line"/>
      <point x="237.5" y="400" type="line"/>
      <point x="237.5" y="600" type="line"/>
      <point x="37.5" y="600" type="line"/>
    </contour>
    <contour>
      <point x="242.5" y="733.33333" type="curve" smooth="yes"/>
      <point x="242.5" y="791.28441"/>
      <point x="195.45108" y="838.33333"/>
      <point x="137.5" y="838.33333" type="curve" smooth="yes"/>
      <point x="79.54892" y="838.33333"/>
      <point x="32.5" y="791.28441"/>
      <point x="32.5" y="733.33333" type="curve" smooth="yes"/>
      <point x="32.5" y="675.38225"/>
      <point x="79.54892" y="628.33333"/>
      <point x="137.5" y="628.33333" type="curve" smooth="yes"/>
      <point x="195.45108" y="628.33333"/>
      <point x="242.5" y="675.38225"/>
    </contour>
    <contour>
      <point x="300.0" y="-210.0" type="line"/>
      <point x="410.383" y="-210.0"/>
      <point x="500.0" y="-120.383"/>
      <point x="500.0" y="-10.0" type="curve"/>
      <point x="300.0" y="-10.0" type="line"/>
    </contour>
    <contour>
      <point x="300.0" y="-10.0" type="line"/>
      <point x="500.0" y="-10.0" type="line"/>
      <point x="500.0" y="200.0" type="line"/>
      <point x="300.0" y="200.0" type="line"/>
    </contour>
    <contour>
      <point x="300.0" y="200" type="line"/>
      <point x="500.0" y="200" type="line"/>
      <point x="500.0" y="400" type="line"/>
      <point x="300.0" y="400" type="line"/>
    </contour>
    <contour>
      <point x="300.0" y="400" type="line"/>
      <point x="500.0" y="400" type="line"/>
      <point x="500.0" y="600" type="line"/>
      <point x="300.0" y="600" type="line"/>
    </contour>
    <contour>
      <point x="505.0" y="733.33333" type="curve" smooth="yes"/>
      <point x="505.0" y="791.28441"/>
      <point x="457.95108" y="838.33333"/>
      <point x="400.0" y="838.33333" type="curve" smooth="yes"/>
      <point x="342.04892" y="838.33333"/>
      <point x="295.0" y="791.28441"/>
      <point x="295.0" y="733.33333" type="curve" smooth="yes"/>
      <point x="295.0" y="675.38225"/>
      <point x="342.04892" y="628.33333"/>
      <point x="400.0" y="628.33333" type="curve" smooth="yes"/>
      <point x="457.95108" y="628.33333"/>
      <point x="505.0" y="675.38225"/>
    </contour>
  </outline>
</glyph>
<glyph name="K_with_cedilla" format="2">
  <advance width="550.0"/>
  <unicode hex="0136"/>
  <outline>
    <contour>
      <point x="50.0" y="0" type="line"/>
      <point x="250.0" y="0" type="line"/>
      <point x="250.0" y="200" type="line"/>
      <point x="50.0" y="200" type="line"/>
    </contour>
    <contour>
      <point x="50.0" y="200" type="line"/>
      <point x="250.0" y="200" type="line"/>
      <point x="250.0" y="400" type="line"/>
      <point x="50.0" y="400" type="line"/>
    </contour>
    <contour>
      <point x="50.0" y="400" type="line"/>
      <point x="250.0" y="400" type="line"/>
      <point x="250.0" y="600" type="line"/>
      <point x="50.0" y="600" type="line"/>
    </contour>
    <contour>
      <point x="50.0" y="600" type="line"/>
      <point x="250.0" y="600" type="line"/>
      <point x="250.0" y="800" type="line"/>
      <point x="50.0" y="800" type="line"/>
    </contour>
    <contour>
      <point x="300.0" y="0" type="line"/>
      <point x="500.0" y="0" type="line"/>
      <point x="500.0" y="200" type="line"/>
      <point x="300.0" y="200" type="line"/>
    </contour>
    <contour>
      <point x="500.0" y="200" type="line"/>
      <point x="500.0" y="310.383"/>
      <point x="410.383" y="400.0"/>
      <point x="300.0" y="400.0" type="curve"/>
      <point x="300.0" y="200" type="line"/>
    </contour>
    <contour>
      <point x="300.0" y="400.0" type="line"/>
      <point x="410.383" y="400.0"/>
      <point x="500.0" y="489.617"/>
      <point x="500.0" y="600.0" type="curve"/>
      <point x="300.0" y="600.0" type="line"/>
    </contour>
    <contour>
      <point x="300.0" y="600" type="line"/>
      <point x="500.0" y="600" type="line"/>
      <point x="500.0" y="800" type="line"/>
      <point x="300.0" y="800" type="line"/>
    </contour>
    <contour>
      <point x="462.5" y="-225.0" type="line"/>
      <point x="462.5" y="-114.617"/>
      <point x="372.88300000000004" y="-25.0"/>
      <point x="262.5" y="-25.0" type="curve"/>
      <point x="262.5" y="-225.0" type="line"/>
    </contour>
  </outline>
</glyph>
<glyph name="L_with_stroke" format="2">
  <advance width="575.0"/>
  <unicode hex="0141"/>
  <outline>
    <contour>
      <point x="75.0" y="0" type="line"/>
      <point x="275.0" y="0" type="line"/>
      <point x="275.0" y="200" type="line"/>
      <point x="75.0" y="200" type="line"/>
    </contour>
    <contour>
      <point x="75.0" y="200" type="line"/>
      <point x="275.0" y="200" type="line"/>
      <point x="275.0" y="400" type="line"/>
      <point x="75.0" y="400" type="line"/>
    </contour>
    <contour>
      <point x="75.0" y="400" type="line"/>
      <point x="275.0" y="400" type="line"/>
      <point x="275.0" y="600" type="line"/>
      <point x="75.0" y="600" type="line"/>
    </contour>
    <contour>
      <point x="75.0" y="600" type="line"/>
      <point x="275.0" y="600" type="line"/>
      <point x="275.0" y="800" type="line"/>
      <point x="75.0" y="800" type="line"/>
    </contour>
    <contour>
      <point x="150.0" y="500.0" type="line"/>
      <point x="39.61699999999999" y="500.0"/>
      <point x="-50.0" y="410.383"/>
      <point x="-50.0" y="300.0" type="curve"/>
      <point x="150.0" y="300.0" type="line"/>
    </contour>
    <contour>
      <point x="200.0" y="400.0" type="line"/>
      <point x="310.38300000000004" y="400.0"/>
      <point x="400.0" y="489.617"/>
      <point x="400.0" y="600.0" type="curve"/>
      <point x="200.0" y="600.0" type="line"/>
    </contour>
    <contour>
      <point x="525.0" y="200.0" type="line"/>
      <point x="414.617" y="200.0"/>
      <point x="325.0" y="110.383"/>
      <point x="325.0" y="0.0" type="curve"/>
      <point x="525.0" y="0.0" type="line"/>
    </contour>
  </outline>
</glyph>
<glyph name="l_with_stroke" format="2">
  <advance width="350.0"/>
  <unicode hex="0142"/>
  <outline>
    <contour>
      <point x="75.0" y="195.0" type="line"/>
      <point x="75.0" y="84.617"/>
      <point x="164.61700000000002" y="-5.0"/>
      <point x="275.0" y="-5.0" type="curve"/>
      <point x="275.0" y="195.0" type="line"/>
    </contour>
    <contour>
      <point x="75.0" y="195.0" type="line"/>
      <point x="275.0" y="195.0" type="line"/>
      <point x="275.0" y="400.0" type="line"/>
      <point x="75.0" y="400.0" type="line"/>
    </contour>
    <contour>
      <point x="75.0" y="400" type="line"/>
      <point x="275.0" y="400" type="line"/>
      <point x="275.0" y="600" type="line"/>
      <point x="75.0" y="600" type="line"/>
    </contour>
    <contour>
      <point x="75.0" y="600" type="line"/>
      <point x="275.0" y="600" type="line"/>
      <point x="275.0" y="800" type="line"/>
      <point x="75.0" y="800" type="line"/>
    </contour>
    <contour>
      <point x="150.0" y="500.0" type="line"/>
      <point x="39.61699999999999" y="500.0"/>
      <point x="-50.0" y="410.383"/>
      <point x="-50.0" y="300.0" type="curve"/>
      <point x="150.0" y="300.0" type="line"/>
    </contour>
    <contour>
      <point x="200.0" y="400.0" type="line"/>
      <point x="310.38300000000004" y="400.0"/>
      <point x="400.0" y="489.617"/>
      <point x="400.0" y="600.0" type="curve"/>
      <point x="200.0" y="600.0" type="line"/>
    </contour>
  </outline>
</glyph>
<glyph name="n_with_acute" format="2">
  <advance width="550.0"/>
  <unicode hex="0144"/>
  <outline>
    <contour>
      <point x="50.0" y="0" type="line"/>
      <point x="250.0" y="0" type="line"/>
      <point x="250.0" y="200" type="line"/>
      <point x="50.0" y="200" type="line"/>
    </contour>
    <contour>
      <point x="50.0" y="200" type="line"/>
      <point x="250.0" y="200" type="line"/>
      <point x="250.0" y="400" type="line"/>
      <point x="50.0" y="400" type="line"/>
    </contour>
    <contour>
      <point x="50.0" y="400" type="line"/>
      <point x="250.0" y="400" type="line"/>
      <point x="250.0" y="600" type="line"/>
      <point x="50.0" y="600" type="line"/>
    </contour>
    <contour>
      <point x="300.0" y="0" type="line"/>
      <point x="500.0" y="0" type="line"/>
      <point x="500.0" y="200" type="line"/>
      <point x="300.0" y="200" type="line"/>
    </contour>
    <contour>
      <point x="300.0" y="200" type="line"/>
      <point x="500.0" y="200" type="line"/>
      <point x="500.0" y="400" type="line"/>
      <point x="300.0" y="400" type="line"/>
    </contour>
    <contour>
      <point x="500.0" y="400" type="line"/>
      <point x="500.0" y="510.383"/>
      <point x="410.383" y="600.0"/>
      <point x="300.0" y="600.0" type="curve"/>
      <point x="300.0" y="400" type="line"/>
    </contour>
    <contour>
      <point x="262.5" y="633.3333333333334" type="line"/>
      <point x="372.88300000000004" y="633.3333333333334"/>
      <point x="462.5" y="722.9503333333333"/>
      <point x="462.5" y="833.3333333333334" type="curve"/>
      <point x="262.5" y="833.3333333333334" type="line"/>
    </contour>
  </outline>
</glyph>
<glyph name="n_with_cedilla" format="2">
  <advance width="550.0"/>
  <unicode hex="0146"/>
  <outline>
    <contour>
      <point x="50.0" y="0" type="line"/>
      <point x="250.0" y="0" type="line"/>
      <point x="250.0" y="200" type="line"/>
      <point x="50.0" y="200" type="line"/>
    </contour>
    <contour>
      <point x="50.0" y="200" type="line"/>
      <point x="250.0" y="200" type="line"/>
      <point x="250.0" y="400" type="line"/>
      <point x="50.0" y="400" type="line"/>
    </contour>
    <contour>
      <point x="50.0" y="400" type="line"/>
      <point x="250.0" y="400" type="line"/>
      <point x="250.0" y="600" type="line"/>
      <point x="50.0" y="600" type="line"/>
    </contour>
    <contour>
      <point x="300.0" y="0" type="line"/>
      <point x="500.0" y="0" type="line"/>
      <point x="500.0" y="200" type="line"/>
      <point x="300.0" y="200" type="line"/>
    </contour>
    <contour>
      <point x="300.0" y="200" type="line"/>
      <point x="500.0" y="200" type="line"/>
      <point x="500.0" y="400" type="line"/>
      <point x="300.0" y="400" type="line"/>
    </contour>
    <contour>
      <point x="500.0" y="400" type="line"/>
      <point x="500.0" y="510.383"/>
      <point x="410.383" y="600.0"/>
      <point x="300.0" y="600.0" type="curve"/>
      <point x="300.0" y="400" type="line"/>
    </contour>
    <contour>
      <point x="462.5" y="-225.0" type="line"/>
      <point x="462.5" y="-114.617"/>
      <point x="372.88300000000004" y="-25.0"/>
      <point x="262.5" y="-25.0" type="curve"/>
      <point x="262.5" y="-225.0" type="line"/>
    </contour>
  </outline>
</glyph>
<glyph name="n_with_caron" format="2">
  <advance width="550.0"/>
  <unicode hex="0148"/>
  <outline>
    <contour>
      <point x="50.0" y="0" type="line"/>
      <point x="250.0" y="0" type="line"/>
      <point x="250.0" y="200" type="line"/>
      <point x="50.0" y="200" type="line"/>
    </contour>
    <contour>
      <point x="50.0" y="200" type="line"/>
      <point x="250.0" y="200" type="line"/>
      <point x="250.0" y="400" type="line"/>
      <point x="50.0" y="400" type="line"/>
    </contour>
    <contour>
      <point x="50.0" y="400" type="line"/>
      <point x="250.0" y="400" type="line"/>
      <point x="250.0" y="600" type="line"/>
      <point x="50.0" y="600" type="line"/>
    </contour>
    <contour>
      <point x="300.0" y="0" type="line"/>
      <point x="500.0" y="0" type="line"/>
      <point x="500.0" y="200" type="line"/>
      <point x="300.0" y="200" type="line"/>
    </contour>
    <contour>
      <point x="300.0" y="200" type="line"/>
      <point x="500.0" y="200" type="line"/>
      <point x="500.0" y="400" type="line"/>
      <point x="300.0" y="400" type="line"/>
    </contour>
    <contour>
      <point x="500.0" y="400" type="line"/>
      <point x="500.0" y="510.383"/>
      <point x="410.383" y="600.0"/>
      <point x="300.0" y="600.0" type="curve"/>
      <point x="300.0" y="400" type="line"/>
    </contour>
    <contour>
      <point x="268.75" y="633.3333333333334" type="line"/>
      <point x="268.75" y="743.7163333333334"/>
      <point x="179.133" y="833.3333333333334"/>
      <point x="68.75" y="833.3333333333334" type="curve"/>
      <point x="68.75" y="633.3333333333334" type="line"/>
    </contour>
    <contour>
      <point x="481.25" y="833.3333333333334" type="line"/>
      <point x="370.867" y="833.3333333333334"/>
      <point x="281.25" y="743.7163333333334"/>
      <point x="281.25" y="633.3333333333334" type="curve"/>
      <point x="481.25" y="633.3333333333334" type="line"/>
    </contour>
  </outline>
</glyph>
<glyph name="O_with_acutedbl" format="2">
  <advance width="550.0"/>
  <unicode hex="0150"/>
  <outline>
    <contour>
      <point x="50.0" y="195.0" type="line"/>
      <point x="50.0" y="84.617"/>
      <point x="139.61700000000002" y="-5.0"/>
      <point x="250.0" y="-5.0" type="curve"/>
      <point x="250.0" y="195.0" type="line"/>
    </contour>
    <contour>
      <point x="50.0" y="195.0" type="line"/>
      <point x="250.0" y="195.0" type="line"/>
      <point x="250.0" y="400.0" type="line"/>
      <point x="50.0" y="400.0" type="line"/>
    </contour>
    <contour>
      <point x="50.0" y="400" type="line"/>
      <point x="250.0" y="400" type="line"/>
      <point x="250.0" y="605.0" type="line"/>
      <point x="50.0" y="605.0" type="line"/>
    </contour>
    <contour>
      <point x="250.0" y="805.0" type="line"/>
      <point x="139.61700000000002" y="805.0"/>
      <point x="50.0" y="715.383"/>
      <point x="50.0" y="605.0" type="curve"/>
      <point x="250.0" y="605.0" type="line"/>
    </contour>
    <contour>
      <point x="300.0" y="-5.0" type="line"/>
      <point x="410.383" y="-5.0"/>
      <point x="500.0" y="84.617"/>
      <point x="500.0" y="195.0" type="curve"/>
      <point x="300.0" y="195.0" type="line"/>
    </contour>
    <contour>
      <point x="300.0" y="195.0" type="line"/>
      <point x="500.0" y="195.0" type="line"/>
      <point x="500.0" y="400.0" type="line"/>
      <point x="300.0" y="400.0" type="line"/>
    </contour>
    <contour>
      <point x="300.0" y="400" type="line"/>
      <point x="500.0" y="400" type="line"/>
      <point x="500.0" y="605.0" type="line"/>
      <point x="300.0" y="605.0" type="line"/>
    </contour>
    <contour>
      <point x="500.0" y="605.0" type="line"/>
      <point x="500.0" y="715.383"/>
      <point x="410.383" y="805.0"/>
      <point x="300.0" y="805.0" type="curve"/>
      <point x="300.0" y="605.0" type="line"/>
    </contour>
    <contour>
      <point x="50.0" y="833.3333333333334" type="line"/>
      <point x="160.38299999999998" y="833.3333333333334"/>
      <point x="250.0" y="922.9503333333333"/>
      <point x="250.0" y="1033.3333333333335" type="curve"/>
      <point x="50.0" y="1033.3333333333335" type="line"/>
    </contour>
    <contour>
      <point x="300.0" y="833.3333333333334" type="line"/>
      <point x="410.383" y="833.3333333333334"/>
      <point x="500.0" y="922.9503333333333"/>
      <point x="500.0" y="1033.3333333333335" type="curve"/>
      <point x="300.0" y="1033.3333333333335" type="line"/>
    </contour>
  </outline>
</glyph>
<glyph name="OE" format="2">
  <advance width="1050.0"/>
  <unicode hex="0152"/>
  <outline>
    <contour>
      <point x="50.0" y="195.0" type="line"/>
      <point x="50.0" y="84.617"/>
      <point x="139.61700000000002" y="-5.0"/>
      <point x="250.0" y="-5.0" type="curve"/>
      <point x="250.0" y="195.0" type="line"/>
    </contour>
    <contour>
      <point x="50.0" y="195.0" type="line"/>
      <point x="250.0" y="195.0" type="line"/>
      <point x="250.0" y="400.0" type="line"/>
      <point x="50.0" y="400.0" type="line"/>
    </contour>
    <contour>
      <point x="50.0" y="400" type="line"/>
      <point x="250.0" y="400" type="line"/>
      <point x="250.0" y="605.0" type="line"/>
      <point x="50.0" y="605.0" type="line"/>
    </contour>
    <contour>
      <point x="250.0" y="805.0" type="line"/>
      <point x="139.61700000000002" y="805.0"/>
      <point x="50.0" y="715.383"/>
      <point x="50.0" y="605.0" type="curve"/>
      <point x="250.0" y="605.0" type="line"/>
    </contour>
    <contour>
      <point x="300.0" y="-5.0" type="line"/>
      <point x="410.383" y="-5.0"/>
      <point x="500.0" y="84.617"/>
      <point x="500.0" y="195.0" type="curve"/>
      <point x="300.0" y="195.0" type="line"/>
    </contour>
    <contour>
      <point x="300.0" y="195.0" type="line"/>
      <point x="500.0" y="195.0" type="line"/>
      <point x="500.0" y="400.0" type="line"/>
      <point x="300.0" y="400.0" type="line"/>
    </contour>
    <contour>
      <point x="300.0" y="400" type="line"/>
      <point x="500.0" y="400" type="line"/>
      <point x="500.0" y="605.0" type="line"/>
      <point x="300.0" y="605.0" type="line"/>
    </contour>
    <contour>
      <point x="500.0" y="605.0" type="line"/>
      <point x="500.0" y="715.383"/>
      <point x="410.383" y="805.0"/>
      <point x="300.0" y="805.0" type="curve"/>
      <point x="300.0" y="605.0" type="line"/>
    </contour>
    <contour>
      <point x="550.0" y="0" type="line"/>
      <point x="750.0" y="0" type="line"/>
      <point x="750.0" y="200" type="line"/>
      <point x="550.0" y="200" type="line"/>
    </contour>
    <contour>
      <point x="550.0" y="200" type="line"/>
      <point x="750.0" y="200" type="line"/>
      <point x="750.0" y="400" type="line"/>
      <point x="550.0" y="400" type="line"/>
    </contour>
    <contour>
      <point x="550.0" y="400" type="line"/>
      <point x="750.0" y="400" type="line"/>
      <point x="750.0" y="600" type="line"/>
      <point x="550.0" y="600" type="line"/>
    </contour>
    <contour>
      <point x="550.0" y="600" type="line"/>
      <point x="750.0" y="600" type="line"/>
      <point x="750.0" y="800" type="line"/>
      <point x="550.0" y="800" type="line"/>
    </contour>
    <contour>
      <point x="1000.0" y="200.0" type="line"/>
      <point x="889.617" y="200.0"/>
      <point x="800.0" y="110.383"/>
      <point x="800.0" y="0.0" type="curve"/>
      <point x="1000.0" y="0.0" type="line"/>
    </contour>
    <contour>
      <point x="800.0" y="500.0" type="line"/>
      <point x="800.0" y="389.617"/>
      <point x="889.617" y="300.0"/>
      <point x="1000.0" y="300.0" type="curve"/>
      <point x="1000.0" y="500.0" type="line"/>
    </contour>
    <contour>
      <point x="800.0" y="800.0" type="line"/>
      <point x="800.0" y="689.617"/>
      <point x="889.617" y="600.0"/>
      <point x="1000.0" y="600.0" type="curve"/>
      <point x="1000.0" y="800.0" type="line"/>
    </contour>
  </outline>
</glyph>
<glyph name="oe" format="2">
  <advance width="1050.0"/>
  <unicode hex="0153"/>
  <outline>
    <contour>
      <point x="50.0" y="195.0" type="line"/>
      <point x="50.0" y="84.617"/>
      <point x="139.61700000000002" y="-5.0"/>
      <point x="250.0" y="-5.0" type="curve"/>
      <point x="250.0" y="195.0" type="line"/>
    </contour>
    <contour>
      <point x="50.0" y="195.0" type="line"/>
      <point x="250.0" y="195.0" type="line"/>
      <point x="250.0" y="405.0" type="line"/>
      <point x="50.0" y="405.0" type="line"/>
    </contour>
    <contour>
      <point x="250.0" y="605.0" type="line"/>
      <point x="139.61700000000002" y="605.0"/>
      <point x="50.0" y="515.383"/>
      <point x="50.0" y="405.0" type="curve"/>
      <point x="250.0" y="405.0" type="line"/>
    </contour>
    <contour>
      <point x="300.0" y="-5.0" type="line"/>
      <point x="410.383" y="-5.0"/>
      <point x="500.0" y="84.617"/>
      <point x="500.0" y="195.0" type="curve"/>
      <point x="300.0" y="195.0" type="line"/>
    </contour>
    <contour>
      <point x="300.0" y="195.0" type="line"/>
      <point x="500.0" y="195.0" type="line"/>
      <point x="500.0" y="405.0" type="line"/>
      <point x="300.0" y="405.0" type="line"/>
    </contour>
    <contour>
      <point x="500.0" y="405.0" type="line"/>
      <point x="500.0" y="515.383"/>
      <point x="410.383" y="605.0"/>
      <point x="300.0" y="605.0" type="curve"/>
      <point x="300.0" y="405.0" type="line"/>
    </contour>
    <contour>
      <point x="550.0" y="195.0" type="line"/>
      <point x="550.0" y="84.617"/>
      <point x="639.617" y="-5.0"/>
      <point x="750.0" y="-5.0" type="curve"/>
      <point x="750.0" y="195.0" type="line"/>
    </contour>
    <contour>
      <point x="550.0" y="195.0" type="line"/>
      <point x="750.0" y="195.0" type="line"/>
      <point x="750.0" y="405.0" type="line"/>
      <point x="550.0" y="405.0" type="line"/>
    </contour>
    <contour>
      <point x="750.0" y="605.0" type="line"/>
      <point x="639.617" y="605.0"/>
      <point x="550.0" y="515.383"/>
      <point x="550.0" y="405.0" type="curve"/>
      <point x="750.0" y="405.0" type="line"/>
    </contour>
    <contour>
      <point x="800.0" y="195.0" type="line"/>
      <point x="1000.0" y="195.0" type="line"/>
      <point x="1000.0" y="405.0" type="line"/>
      <point x="800.0" y="405.0" type="line"/>
    </contour>
    <contour>
      <point x="1000.0" y="405.0" type="line"/>
      <point x="1000.0" y="515.383"/>
      <point x="910.383" y="605.0"/>
      <point x="800.0" y="605.0" type="curve"/>
      <point x="800.0" y="405.0" type="line"/>
    </contour>
  </outline>
</glyph>
<glyph name="r_with_acute" format="2">
  <advance width="550.0"/>
  <unicode hex="0155"/>
  <outline>
    <contour>
      <point x="50.0" y="0" type="line"/>
      <point x="250.0" y="0" type="line"/>
      <point x="250.0" y="200" type="line"/>
      <point x="50.0" y="200" type="line"/>
    </contour>
    <contour>
      <point x="50.0" y="200" type="line"/>
      <point x="250.0" y="200" type="line"/>
      <point x="250.0" y="400" type="line"/>
      <point x="50.0" y="400" type="line"/>
    </contour>
    <contour>
      <point x="50.0" y="400" type="line"/>
      <point x="250.0" y="400" type="line"/>
      <point x="250.0" y="600" type="line"/>
      <point x="50.0" y="600" type="line"/>
    </contour>
    <contour>
      <point x="505.0" y="500.0" type="curve" smooth="yes"/>
      <point x="505.0" y="557.95108"/>
      <point x="457.95108" y="605.0"/>
      <point x="400.0" y="605.0" type="curve" smooth="yes"/>
      <point x="342.04892" y="605.0"/>
      <point x="295.0" y="557.95108"/>
      <point x="295.0" y="500.0" type="curve" smooth="yes"/>
      <point x="295.0" y="442.04892"/>
      <point x="342.04892" y="395.0"/>
      <point x="400.0" y="395.0" type="curve" smooth="yes"/>
      <point x="457.95108" y="395.0"/>
      <point x="505.0" y="442.04892"/>
    </contour>
    <contour>
      <point x="265.0" y="633.3333333333334" type="line"/>
      <point x="375.38300000000004" y="633.3333333333334"/>
      <point x="465.0" y="722.9503333333333"/>
      <point x="465.0" y="833.3333333333334" type="curve"/>
      <point x="265.0" y="833.3333333333334" type="line"/>
    </contour>
  </outline>
</glyph>
<glyph name="S_with_acute" format="2">
  <advance width="550.0"/>
  <unicode hex="015A"/>
  <outline>
    <contour>
      <point x="253.125" y="0" type="line"/>
      <point x="253.125" y="110.383"/>
      <point x="163.50799999999998" y="200.0"/>
      <point x="53.125" y="200.0" type="curve"/>
      <point x="53.125" y="0" type="line"/>
    </contour>
    <contour>
      <point x="50.0" y="500.0" type="line"/>
      <point x="50.0" y="389.617"/>
      <point x="139.61700000000002" y="300.0"/>
      <point x="250.0" y="300.0" type="curve"/>
      <point x="250.0" y="500.0" type="line"/>
    </contour>
    <contour>
      <point x="50.0" y="500.0" type="line"/>
      <point x="250.0" y="500.0" type="line"/>
      <point x="250.0" y="600.0" type="line"/>
      <point x="50.0" y="600.0" type="line"/>
    </contour>
    <contour>
      <point x="250.0" y="800.0" type="line"/>
      <point x="139.61700000000002" y="800.0"/>
      <point x="50.0" y="710.383"/>
      <point x="50.0" y="600.0" type="curve"/>
      <point x="250.0" y="600.0" type="line"/>
    </contour>
    <contour>
      <point x="300.0" y="0.0" type="line"/>
      <point x="410.383" y="0.0"/>
      <point x="500.0" y="89.617"/>
      <point x="500.0" y="200.0" type="curve"/>
      <point x="300.0" y="200.0" type="line"/>
    </contour>
    <contour>
      <point x="300.0" y="200" type="line"/>
      <point x="500.0" y="200" type="line"/>
      <point x="500.0" y="300.0" type="line"/>
      <point x="300.0" y="300.0" type="line"/>
    </contour>
    <contour>
      <point x="500.0" y="300.0" type="line"/>
      <point x="500.0" y="410.383"/>
      <point x="410.383" y="500.0"/>
      <point x="300.0" y="500.0" type="curve"/>
      <point x="300.0" y="300.0" type="line"/>
    </contour>
    <contour>
      <point x="293.75" y="800.0" type="line"/>
      <point x="293.75" y="689.617"/>
      <point x="383.367" y="600.0"/>
      <point x="493.75" y="600.0" type="curve"/>
      <point x="493.75" y="800.0" type="line"/>
    </contour>
    <contour>
      <point x="262.5" y="833.3333333333334" type="line"/>
      <point x="372.88300000000004" y="833.3333333333334"/>
      <point x="462.5" y="922.9503333333333"/>
      <point x="462.5" y="1033.3333333333335" type="curve"/>
      <point x="262.5" y="1033.3333333333335" type="line"/>
    </contour>
  </outline>
</glyph>
<glyph name="S_with_circumflex" format="2">
  <advance width="550.0"/>
  <unicode hex="015C"/>
  <outline>
    <contour>
      <point x="253.125" y="0" type="line"/>
      <point x="253.125" y="110.383"/>
      <point x="163.50799999999998" y="200.0"/>
      <point x="53.125" y="200.0" type="curve"/>
      <point x="53.125" y="0" type="line"/>
    </contour>
    <contour>
      <point x="50.0" y="500.0" type="line"/>
      <point x="50.0" y="389.617"/>
      <point x="139.61700000000002" y="300.0"/>
      <point x="250.0" y="300.0" type="curve"/>
      <point x="250.0" y="500.0" type="line"/>
    </contour>
    <contour>
      <point x="50.0" y="500.0" type="line"/>
      <point x="250.0" y="500.0" type="line"/>
      <point x="250.0" y="600.0" type="line"/>
      <point x="50.0" y="600.0" type="line"/>
    </contour>
    <contour>
      <point x="250.0" y="800.0" type="line"/>
      <point x="139.61700000000002" y="800.0"/>
      <point x="50.0" y="710.383"/>
      <point x="50.0" y="600.0" type="curve"/>
      <point x="250.0" y="600.0" type="line"/>
    </contour>
    <contour>
      <point x="300.0" y="0.0" type="line"/>
      <point x="410.383" y="0.0"/>
      <point x="500.0" y="89.617"/>
      <point x="500.0" y="200.0" type="curve"/>
      <point x="300.0" y="200.0" type="line"/>
    </contour>
    <contour>
      <point x="300.0" y="200" type="line"/>
      <point x="500.0" y="200" type="line"/>
      <point x="500.0" y="300.0" type="line"/>
      <point x="300.0" y="300.0" type="line"/>
    </contour>
    <contour>
      <point x="500.0" y="300.0" type="line"/>
      <point x="500.0" y="410.383"/>
      <point x="410.383" y="500.0"/>
      <point x="300.0" y="500.0" type="curve"/>
      <point x="300.0" y="300.0" type="line"/>
    </contour>
    <contour>
      <point x="293.75" y="800.0" type="line"/>
      <point x="293.75" y="689.617"/>
      <point x="383.367" y="600.0"/>
      <point x="493.75" y="600.0" type="curve"/>
      <point x="493.75" y="800.0" type="line"/>
    </contour>
    <contour>
      <point x="68.75" y="833.3333333333334" type="line"/>
      <point x="179.133" y="833.3333333333334"/>
      <point x="268.75" y="922.9503333333333"/>
      <point x="268.75" y="1033.3333333333335" type="curve"/>
      <point x="68.75" y="1033.3333333333335" type="line"/>
    </contour>
    <contour>
      <point x="281.25" y="1033.3333333333335" type="line"/>
      <point x="281.25" y="922.9503333333333"/>
      <point x="370.867" y="833.3333333333334"/>
      <point x="481.25" y="833.3333333333334" type="curve"/>
      <point x="481.25" y="1033.3333333333335" type="line"/>
    </contour>
  </outline>
</glyph>
<glyph name="s_with_caron" format="2">
  <advance width="550.0"/>
  <unicode hex="0161"/>
  <outline>
    <contour>
      <point x="253.125" y="0" type="line"/>
      <point x="253.125" y="110.383"/>
      <point x="163.50799999999998" y="200.0"/>
      <point x="53.125" y="200.0" type="curve"/>
      <point x="53.125" y="0" type="line"/>
    </contour>
    <contour>
      <point x="50.0" y="400.0" type="line"/>
      <point x="50.0" y="289.617"/>
      <point x="139.61700000000002" y="200.0"/>
      <point x="250.0" y="200.0" type="curve"/>
      <point x="250.0" y="400.0" type="line"/>
    </contour>
    <contour>
      <point x="250.0" y="600.0" type="line"/>
      <point x="139.61700000000002" y="600.0"/>
      <point x="50.0" y="510.383"/>
      <point x="50.0" y="400.0" type="curve"/>
      <point x="250.0" y="400.0" type="line"/>
    </contour>
    <contour>
      <point x="300.0" y="-5.0" type="line"/>
      <point x="410.383" y="-5.0"/>
      <point x="500.0" y="84.617"/>
      <point x="500.0" y="195.0" type="curve"/>
      <point x="300.0" y="195.0" type="line"/>
    </contour>
    <contour>
      <point x="500.0" y="195.0" type="line"/>
      <point x="500.0" y="305.383"/>
      <point x="410.383" y="395.0"/>
      <point x="300.0" y="395.0" type="curve"/>
      <point x="300.0" y="195.0" type="line"/>
    </contour>
    <contour>
      <point x="293.75" y="600.0" type="line"/>
      <point x="293.75" y="489.617"/>
      <point x="383.367" y="400.0"/>
      <point x="493.75" y="400.0" type="curve"/>
      <point x="493.75" y="600.0" type="line"/>
    </contour>
    <contour>
      <point x="268.75" y="633.3333333333334" type="line"/>
      <point x="268.75" y="743.7163333333334"/>
      <point x="179.133" y="833.3333333333334"/>
      <point x="68.75" y="833.3333333333334" type="curve"/>
      <point x="68.75" y="633.3333333333334" type="line"/>
    </contour>
    <contour>
      <point x="481.25" y="833.3333333333334" type="line"/>
      <point x="370.867" y="833.3333333333334"/>
      <point x="281.25" y="743.7163333333334"/>
      <point x="281.25" y="633.3333333333334" type="curve"/>
      <point x="481.25" y="633.3333333333334" type="line"/>
    </contour>
  </outline>
</glyph>
<glyph name="T_with_cedilla" format="2">
  <advance width="800.0"/>
  <unicode hex="0162"/>
  <outline>
    <contour>
      <point x="50.0" y="600.0" type="line"/>
      <point x="160.38299999999998" y="600.0"/>
      <point x="250.0" y="689.617"/>
      <point x="250.0" y="800.0" type="curve"/>
      <point x="50.0" y="800.0" type="line"/>
    </contour>
    <contour>
      <point x="300.0" y="0" type="line"/>
      <point x="500.0" y="0" type="line"/>
      <point x="500.0" y="200" type="line"/>
      <point x="300.0" y="200" type="line"/>
    </contour>
    <contour>
      <point x="300.0" y="200" type="line"/>
      <point x="500.0" y="200" type="line"/>
      <point x="500.0" y="400" type="line"/>
      <point x="300.0" y="400" type="line"/>
    </contour>
    <contour>
      <point x="300.0" y="400" type="line"/>
      <point x="500.0" y="400" type="line"/>
      <point x="500.0" y="600" type="line"/>
      <point x="300.0" y="600" type="line"/>
    </contour>
    <contour>
      <point x="300.0" y="600" type="line"/>
      <point x="500.0" y="600" type="line"/>
      <point x="500.0" y="800" type="line"/>
      <point x="300.0" y="800" type="line"/>
    </contour>
    <contour>
      <point x="550.0" y="800.0" type="line"/>
      <point x="550.0" y="689.617"/>
      <point x="639.617" y="600.0"/>
      <point x="750.0" y="600.0" type="curve"/>
      <point x="750.0" y="800.0" type="line"/>
    </contour>
    <contour>
      <point x="587.5" y="-225.0" type="line"/>
      <point x="587.5" y="-114.617"/>
      <point x="497.88300000000004" y="-25.0"/>
      <point x="387.5" y="-25.0" type="curve"/>
      <point x="387.5" y="-225.0" type="line"/>
    </contour>
  </outline>
</glyph>
<glyph name="t_with_cedilla" format="2">
  <advance width="550.0"/>
  <unicode hex="0163"/>
  <outline>
    <contour>
      <point x="50.0" y="0" type="line"/>
      <point x="250.0" y="0" type="line"/>
      <point x="250.0" y="200" type="line"/>
      <point x="50.0" y="200" type="line"/>
    </contour>
    <contour>
      <point x="50.0" y="200" type="line"/>
      <point x="250.0" y="200" type="line"/>
      <point x="250.0" y="400" type="line"/>
      <point x="50.0" y="400" type="line"/>
    </contour>
    <contour>
      <point x="50.0" y="400" type="line"/>
      <point x="250.0" y="400" type="line"/>
      <point x="250.0" y="600" type="line"/>
      <point x="50.0" y="600" type="line"/>
    </contour>
    <contour>
      <point x="250.0" y="800.0" type="line"/>
      <point x="139.61700000000002" y="800.0"/>
      <point x="50.0" y="710.383"/>
      <point x="50.0" y="600.0" type="curve"/>
      <point x="250.0" y="600.0" type="line"/>
    </contour>
    <contour>
      <point x="300.0" y="400.0" type="line"/>
      <point x="410.383" y="400.0"/>
      <point x="500.0" y="489.617"/>
      <point x="500.0" y="600.0" type="curve"/>
      <point x="300.0" y="600.0" type="line"/>
    </contour>
    <contour>
      <point x="350.0" y="-225.0" type="line"/>
      <point x="350.0" y="-114.617"/>
      <point x="260.38300000000004" y="-25.0"/>
      <point x="150.0" y="-25.0" type="curve"/>
      <point x="150.0" y="-225.0" type="line"/>
    </contour>
  </outline>
</glyph>
